<?xml version="1.0" encoding="utf-8"?>
<!-- Generator: Adobe Illustrator 23.0.3, SVG Export Plug-In . SVG Version: 6.00 Build 0)  -->
<svg version="1.1" id="Layer_1" xmlns="http://www.w3.org/2000/svg" xmlns:xlink="http://www.w3.org/1999/xlink" x="0px" y="0px"
	 viewBox="0 0 300 300" style="enable-background:new 0 0 300 300;" xml:space="preserve">
<style type="text/css">
	.st0{fill:#FFFFFF;}
</style>
<path d="M152.3,191.2c1.5,2.8,5.9,2,6.5-0.8c1.8,2.6,6,1.4,6.4-1.4c1.7,1.9,5.2,1.1,6-1.3c0,0,0,0,0,0c12.9-5.3,22.3-14.9,26-26.3
	c0.8-0.3,1.5-0.9,2-1.5c4,0.9,8.4,2.8,10.1-1.6c3.5,0.9,10.9,3.4,13.1-2.6c5.2,0.7,12.6,1.2,13.6-4.2c4.4,0,12.2-0.7,12.2-5.9
	c4.5,0,12.2-3,11.2-6.6c4-0.5,9.4-4.7,9.4-7.5c4-1.2,8.4-4.2,7.5-8.2c2.3-1.4,6.3-3,6.3-5.4c0-2.3-1.9-4.2-4-4.2
	c-2.1,0-10.1,0.5-12.9,0.5c-2.8,0-36.8-0.5-44.7,0c-8,0.5-18,0.7-23,0.2c-3.6-0.3-16-1.1-23.4,0.9c-15.7-7.8-35.4-7.8-51.1,0
	c-7.4-2-19.8-1.3-23.4-0.9c-4.9,0.5-15,0.2-23-0.2c-8-0.5-41.9,0-44.7,0c-2.8,0-10.8-0.5-12.9-0.5s-4,1.9-4,4.2c0,2.3,4,4,6.3,5.4
	c-0.9,4,3.5,7,7.5,8.2c0,2.8,5.4,7,9.4,7.5c-0.9,3.5,6.8,6.6,11.2,6.6c0,5.2,7.7,5.9,12.2,5.9c0.9,5.4,8.4,4.9,13.6,4.2
	c2.2,6,9.6,3.5,13.1,2.6c1.6,4.5,6.1,2.6,10.1,1.6c0.5,0.7,1.2,1.2,2,1.5c3.7,11.4,13.1,21,26,26.3c0,0,0,0,0,0
	c0.8,2.5,4.3,3.2,6,1.3c0.4,2.8,4.6,4,6.4,1.4c0.6,2.9,5,3.7,6.5,0.8C146.2,193.8,151.9,193.8,152.3,191.2L152.3,191.2z"/>
<path class="st0" d="M108.5,160.8c1.4,3.1,5.7,2.5,8.3,1.5c3.5,5.3,9.3,9.6,16.4,12.2l-5.7,9.6c-11-4.8-19.1-12.8-22.7-22.2
	C106.1,161.7,107.4,161.3,108.5,160.8L108.5,160.8z"/>
<path class="st0" d="M126.8,186.6c-12.1-5.1-21.1-14.1-24.8-24.8c0.6,0.1,1.2,0.2,1.9,0.2c3.6,9.8,12,18.1,23.3,23
	C126.9,185.4,126.8,186,126.8,186.6z M133.1,186.8C133.1,186.9,133.1,186.9,133.1,186.8c-1.8,4.4-7.1,1.9-4.7-2.3l5.8-9.7
	c1.1,0.4,2.1,0.7,3.2,1C137.4,175.9,133.2,186.6,133.1,186.8z M139.2,188.2c-1.1,4.4-6.5,3.1-5.2-1.1l4.6-11.1
	c1.1,0.2,2.2,0.5,3.3,0.6C141.9,176.7,139.2,188.2,139.2,188.2L139.2,188.2z M145.5,188.9c-0.4,4.8-6.2,3.9-5.2-0.8
	c0,0,2.6-11.3,2.6-11.3c1.1,0.1,2.2,0.2,3.3,0.3C146.3,177.2,145.5,188.8,145.5,188.9L145.5,188.9z M146.5,188.9
	c0,0,0.6-11.5,0.6-11.6c1.1,0,2.7,0.1,3.8,0c0.1,0.1,0.8,11.5,0.8,11.6C152.1,193.5,146.2,193.6,146.5,188.9z M19.4,116.5
	c0.5-0.4,1.7-0.4,3.1-0.5c7.3,0,24.1,0.5,27.4,0.5c3.3,0,26.5,2.6,30.1,3.7c1.6,0.5,2,2.1,0,2.2c-2,0.1-26.7,0.5-30.3,0.5
	c-2.7,0-16.9,0-25.1-1.7C20.2,120.4,17.8,117.7,19.4,116.5L19.4,116.5z M27.4,125.2c4.2,0.1,25.3,0.2,27.8,0.1
	c2.5-0.1,21.5-1.2,23.8-1.3c4.8-0.3,6.4,1.9,1.3,3c-2.6,0.6-26.3,3.3-44.4,2.9c-3.4,0.1-8-1.6-9.1-3.3
	C25.5,125.1,26.8,125.2,27.4,125.2L27.4,125.2z M35.6,132.9c2.9,0,37.5-2.6,44.7-4.1c6.3-1,4.9,2.3,2.3,2.8
	c-2.1,0.4-27.8,5.4-40.8,5.6C37.6,137.1,32.5,133,35.6,132.9L35.6,132.9z M44.3,140.2c4.1-0.5,31.4-4.8,38.8-6.8
	c6.7-1.7,5.3,2.7,2.9,3.4c-2.1,0.6-25.4,6.3-30.7,6.6c-2.2,0.1-4.5,0-6.7-0.5C41.2,141.4,44.3,140.2,44.3,140.2z M55.4,146.3
	c2.9-0.6,26.7-6,33.5-8.5c3.3-1.2,4.3,2.1,2.2,3c-1.3,0.6-19.6,8.2-28.2,8.7C59.7,149.4,53.8,147.7,55.4,146.3L55.4,146.3z
	 M94.1,141.3c-2.7,1.3-19.1,8.2-25.4,9.6c-0.9,0.2-1.8,0.6-1.7,1.1c0.6,3.7,12.2,0.6,13,0.3c4.5-1.4,13.6-4.8,17.5-8.6
	C96.5,143.3,94.4,141.8,94.1,141.3z M99,145.3c-1.8,1.2-13.2,7.1-18.5,8.8c-2.8,0.9,0.1,3.7,5.5,2.2c5.9-0.9,14.6-8,16-9.2
	C101.4,146.7,99.9,145.8,99,145.3L99,145.3z M104.4,148.5c-2.1,1.5-6.2,4.2-8.8,5.9c-1.1,0.7-3.6,2.1-3.6,3.3c0,0.5,1.1,1.6,5.7-0.1
	c2.9-1.2,6.4-3.6,9.4-8C106.6,149.4,105.1,148.8,104.4,148.5z M109.7,150.2c-1.1,1.1-2.5,2.6-3.9,4c-1.3,1.6-4.1,2.8-3.1,4.7
	c1.1,2.1,4.4-0.9,5.6-2c1.7-1.6,3.3-3.7,4-5.9C111.4,150.8,110.5,150.6,109.7,150.2L109.7,150.2z"/>
<path class="st0" d="M68.9,115.6c3,0,13.3,0.7,17.1,0.7c10.8,0,25.3-1.9,35.4,0.2c6.2,1.3,7.1,3.1,7.1,5c0,2.5-2.1,4-3.6,5.1
	c-1.8,1.3-7.1,4.4-7.4,12.6c-1.4-0.6-3.4-0.9-2-3.9c2.5-4.9,8-10.9-1.5-13.4c-1.5-0.4-3.3-0.7-5.6-0.7c-6.9-0.2-16.9-0.3-20.3-0.9
	c-3.4-0.6-16.2-3.6-18.9-3.9C68.1,116.3,68.1,115.7,68.9,115.6L68.9,115.6z"/>
<path class="st0" d="M96,122.7c2.5,0,10-0.1,12.5,0.1c7,0.3,12,3.7,6.9,10.1c-1,1.2-3.6,3.9-4.7,4.8c-0.9,0.7-2.7-0.5-1.2-2.2
	c-2,1.2-4.4,0.9-3.3-1.8c-1.8,1.4-4.7,1.5-2.9-2.1c-1.2,0.9-4.4,0.8-2.3-2c-1.8,0.6-3.7-0.5-2.5-2.2c-2.2,0.4-3.5-1.3-1.2-2.6
	C95.2,125.4,94.6,122.8,96,122.7L96,122.7z M89.1,121.5c-0.9-0.1-5.1-0.7-5,1.5c0.1,2.2,4.7,1.4,5.6,1.2c1.7-0.3,3.1-0.8,3.1-1.6
	C92.8,121.9,91,121.6,89.1,121.5z M89.3,125.3c-1,0.1-4.6-0.1-4,1.9c0.2,0.6,1.5,1.9,5.9,0.9c1.9-0.5,2.9-1.5,2.9-2.3
	C94.1,125,91.5,125.1,89.3,125.3L89.3,125.3z M92.1,128.6c-0.7,0.1-4.8,0.4-4.1,2.5c0.5,1.4,1.2,1,2.5,1.1c0.8,0.1,7-1.6,6-3.6
	C96.2,128,94.4,128.2,92.1,128.6z M94.2,131.5c-4.1,1.7-4,2.8-3.8,3.4c0.2,0.6,2.1,1.4,5.9-0.5c2-1,2-2,1.5-2.8
	C97.2,130.6,95.6,130.9,94.2,131.5L94.2,131.5z M97,134.3c-4.3,1.5-4,2.8-3.7,3.6c0.4,0.9,1.7,1.8,5.3-0.4c2.1-1.4,3.5-2.5,3.2-3.4
	C101.4,133.2,99.4,133.4,97,134.3L97,134.3z M98.7,138.5c-1.1,0.7-1.6,1.6-0.9,2.6c1.3,1.9,5-1.4,5.9-2.4c0.7-0.7,1.1-1.5,0.7-2.1
	C104,136,102.8,136.1,98.7,138.5L98.7,138.5z M105.4,138.9c-5,2.5-4.5,3.7-3.8,4.3c0.8,0.6,2.6,1.2,5.6-2.3
	C108.5,139.3,107.8,137.7,105.4,138.9L105.4,138.9z M107.9,141.5c-1,1.2-3.5,2.9-1.6,4.2c1.6,1.1,2.5-0.1,3.3-0.9
	C114.2,140.5,112.7,137.7,107.9,141.5z"/>
<path d="M122.8,118.6c3.5,1.7,4.9,3.6,1.3,6.1c-0.4,0.3,0.1,1.1,0.5,0.8c3.9-2.8,3.1-5.7-1.5-7.7
	C122.8,117.5,122.4,118.3,122.8,118.6z"/>
<path class="st0" d="M170.6,158.2c0-3.7-3.8-7.5-8.1-8.8c-1.1-0.3-1-1.3-0.1-1.7c0.9-0.4,5.8-3.9,5.8-8.2c0-4.2-5-10.7-19.5-10.7
	c-8.5,0-15.7,1.9-19.9,5.5c1,0.8,2.1,1.9,2.1,3.2v23.6c-0.1,1.4-0.9,2.6-2,3.9c3.8,2.7,10.7,5.3,20.6,5.3
	C159.9,170.1,170.6,167,170.6,158.2L170.6,158.2z"/>
<ellipse cx="149.3" cy="140.3" rx="8.2" ry="6.6"/>
<ellipse cx="150.4" cy="158.1" rx="9.2" ry="6.9"/>
<path class="st0" d="M113.7,146.8c0.3-1.6,0.8-3.1,1.5-4.6c0-0.1-1.3-1.6-4.3,2.7C109.3,147.2,112.2,148.2,113.7,146.8L113.7,146.8z
	 M113.6,154.1c-1.2,1.4-2.4,2.6-3.2,3.6c-1.6,2,2.6,4.5,4.8,1.6C114.4,157.7,113.9,155.9,113.6,154.1z M171.2,116.7
	c0.7-0.4,1.4-0.7,2.1-0.9c-15-7.1-33.5-7.1-48.5,0c0.8,0.3,1.5,0.6,2.1,0.9C140.8,110.6,157.4,110.7,171.2,116.7z"/>
<path class="st0" d="M178.1,135.3c-1.7-5.9-5.9-8.2-7.5-9.4c-3.3-2.3-3.1-5.7-0.3-8.6c-13.4-5.6-29.3-5.6-42.5,0
	c2.8,2.9,3,6.3-0.3,8.6c-1.6,1.1-5.8,3.5-7.5,9.4C134.3,120.5,163.8,120.5,178.1,135.3z M189.6,160.8c-1.4,3.1-5.7,2.5-8.3,1.5
	c-3.5,5.3-9.3,9.6-16.4,12.2l5.7,9.6c11-4.8,19.1-12.8,22.7-22.2C191.9,161.7,190.7,161.3,189.6,160.8L189.6,160.8z"/>
<path class="st0" d="M171.3,186.6c12.1-5.1,21.1-14.1,24.8-24.8c-0.6,0.1-1.2,0.2-1.9,0.2c-3.6,9.8-12,18.1-23.3,23
	C171.1,185.4,171.3,186,171.3,186.6z M165,186.8L165,186.8c1.8,4.4,7.1,1.9,4.7-2.3l-5.8-9.7c-1.1,0.4-2.1,0.7-3.2,1
	C160.7,175.9,164.9,186.6,165,186.8z M158.9,188.2c1.1,4.4,6.5,3.1,5.2-1.1c0,0-4.3-10.5-4.6-11.1c-1.1,0.2-2.2,0.5-3.3,0.6
	C156.2,176.7,158.9,188.2,158.9,188.2L158.9,188.2z M152.6,188.9c0.4,4.8,6.2,3.9,5.2-0.8c0,0-2.6-11.3-2.6-11.3
	c-1.1,0.1-2.2,0.2-3.3,0.3C151.8,177.2,152.6,188.8,152.6,188.9L152.6,188.9z M278.7,116.5c-0.5-0.4-1.7-0.4-3.1-0.5
	c-7.3,0-24.1,0.5-27.4,0.5s-26.5,2.6-30.1,3.7c-1.6,0.5-2,2.1,0,2.2c2,0.1,26.7,0.5,30.3,0.5c2.7,0,16.9,0,25.1-1.7
	C277.9,120.4,280.3,117.7,278.7,116.5L278.7,116.5z M270.7,125.2c-4.2,0.1-25.3,0.2-27.8,0.1c-2.5-0.1-21.5-1.2-23.8-1.3
	c-4.8-0.3-6.4,1.9-1.3,3c2.6,0.6,26.3,3.3,44.4,2.9c3.4,0.1,8-1.6,9.1-3.3C272.6,125.1,271.3,125.2,270.7,125.2L270.7,125.2z
	 M262.5,132.9c-2.9,0-37.5-2.6-44.7-4.1c-6.3-1-4.9,2.3-2.3,2.8c2.1,0.4,27.8,5.4,40.8,5.6C260.5,137.1,265.5,133,262.5,132.9z
	 M253.7,140.2c-4.1-0.5-31.4-4.8-38.8-6.8c-6.7-1.7-5.3,2.7-2.9,3.4c2.1,0.6,25.4,6.3,30.7,6.6c2.2,0.1,4.5,0,6.7-0.5
	C256.9,141.4,253.7,140.2,253.7,140.2z M242.7,146.3c-2.9-0.6-26.7-6-33.5-8.5c-3.3-1.2-4.3,2.1-2.2,3c1.3,0.6,19.6,8.2,28.2,8.7
	C238.4,149.4,244.2,147.7,242.7,146.3L242.7,146.3z M204,141.3c2.7,1.3,19.1,8.2,25.4,9.6c0.9,0.2,1.8,0.6,1.7,1.1
	c-0.6,3.7-12.2,0.6-13,0.3c-4.5-1.4-13.6-4.8-17.5-8.6C201.6,143.3,203.7,141.8,204,141.3z M199,145.3c1.8,1.2,13.2,7.1,18.5,8.8
	c2.8,0.9-0.1,3.7-5.5,2.2c-5.9-0.9-14.6-8-16-9.2C196.7,146.7,198.2,145.8,199,145.3L199,145.3z M193.7,148.5
	c2.1,1.5,6.2,4.2,8.8,5.9c1.1,0.7,3.6,2.1,3.6,3.3c0,0.5-1.1,1.6-5.7-0.1c-2.9-1.2-6.4-3.6-9.4-8
	C191.4,149.4,192.9,148.8,193.7,148.5L193.7,148.5z M188.4,150.2c1.1,1.1,2.5,2.6,3.9,4c1.3,1.6,4.1,2.8,3.1,4.7
	c-1.1,2.1-4.4-0.9-5.6-2c-1.7-1.6-3.3-3.7-4-5.9C186.7,150.8,187.6,150.6,188.4,150.2L188.4,150.2z"/>
<path class="st0" d="M229.1,115.6c-3,0-13.3,0.7-17.1,0.7c-10.8,0-25.3-1.9-35.4,0.2c-6.2,1.3-7.1,3.1-7.1,5c0,2.5,2.1,4,3.6,5.1
	c1.8,1.3,7.1,4.4,7.4,12.6c1.4-0.6,3.4-0.9,2-3.9c-2.5-4.9-8-10.9,1.5-13.4c1.5-0.4,3.3-0.7,5.6-0.7c6.9-0.2,16.9-0.3,20.3-0.9
	s16.2-3.6,18.9-3.9C230,116.3,230,115.7,229.1,115.6L229.1,115.6z"/>
<path class="st0" d="M202.1,122.7c-2.5,0-10-0.1-12.5,0.1c-7,0.3-12,3.7-6.9,10.1c1,1.2,3.6,3.9,4.7,4.8c0.9,0.7,2.7-0.5,1.2-2.2
	c2,1.2,4.5,0.9,3.3-1.8c1.8,1.4,4.7,1.5,2.9-2.1c1.2,0.9,4.4,0.8,2.3-2c1.8,0.6,3.7-0.5,2.5-2.2c2.2,0.4,3.5-1.3,1.2-2.6
	C202.9,125.4,203.5,122.8,202.1,122.7L202.1,122.7z M208.9,121.5c0.9-0.1,5.1-0.7,5,1.5c-0.1,2.2-4.7,1.4-5.6,1.2
	c-1.7-0.3-3.1-0.8-3.1-1.6C205.3,121.9,207.1,121.6,208.9,121.5L208.9,121.5z M208.8,125.3c1,0.1,4.6-0.1,4,1.9
	c-0.2,0.6-1.5,1.9-5.9,0.9c-1.9-0.5-2.9-1.5-2.9-2.3C203.9,125,206.5,125.1,208.8,125.3L208.8,125.3z M205.9,128.6
	c0.7,0.1,4.8,0.4,4.1,2.5c-0.5,1.4-1.2,1-2.5,1.1c-0.8,0.1-7-1.6-6-3.6C201.9,128,203.7,128.2,205.9,128.6z M203.9,131.5
	c4.1,1.7,4,2.8,3.8,3.4c-0.2,0.6-2.1,1.4-5.9-0.5c-2-1-2-2-1.5-2.8C200.9,130.6,202.4,130.9,203.9,131.5L203.9,131.5z M201,134.3
	c4.3,1.5,4,2.8,3.7,3.6c-0.4,0.9-1.7,1.8-5.3-0.4c-2.1-1.4-3.5-2.5-3.2-3.4C196.6,133.2,198.7,133.4,201,134.3L201,134.3z
	 M199.4,138.5c1.1,0.7,1.6,1.6,0.9,2.6c-1.3,1.9-5-1.4-5.9-2.4c-0.7-0.7-1.1-1.5-0.7-2.1C194,136,195.3,136.1,199.4,138.5
	L199.4,138.5z M192.7,138.9c5,2.5,4.5,3.7,3.8,4.3c-0.8,0.6-2.6,1.2-5.6-2.3C189.6,139.3,190.3,137.7,192.7,138.9L192.7,138.9z
	 M190.2,141.5c1,1.2,3.5,2.9,1.6,4.2c-1.6,1.1-2.5-0.1-3.3-0.9C183.9,140.5,185.4,137.7,190.2,141.5z"/>
<path d="M175.2,118.6c-3.5,1.7-4.9,3.6-1.3,6.1c0.4,0.3-0.1,1.1-0.5,0.8c-3.9-2.8-3.1-5.7,1.5-7.7
	C175.3,117.5,175.7,118.3,175.2,118.6z"/>
<path class="st0" d="M184.4,146.8c-0.3-1.6-0.8-3.1-1.5-4.6c0-0.1,1.3-1.6,4.3,2.7C188.8,147.2,185.9,148.2,184.4,146.8L184.4,146.8
	z M184.5,154.1c1.2,1.4,2.4,2.6,3.2,3.6c1.6,2-2.6,4.5-4.8,1.6C183.6,157.7,184.2,155.9,184.5,154.1z"/>
</svg>
