<?xml version="1.0" encoding="utf-8"?>
<!-- Generator: Adobe Illustrator 24.0.3, SVG Export Plug-In . SVG Version: 6.00 Build 0)  -->
<svg version="1.1" id="Layer_1" xmlns="http://www.w3.org/2000/svg" xmlns:xlink="http://www.w3.org/1999/xlink" x="0px" y="0px"
	 viewBox="0 0 300 300" style="enable-background:new 0 0 300 300;" xml:space="preserve">
<style type="text/css">
	.st0{fill:url(#path3051_1_);}
	.st1{fill:url(#path3126_1_);}
	.st2{fill:url(#path3068-2_1_);}
	.st3{fill:url(#path3992_1_);}
	.st4{fill:url(#path3068_1_);}
	.st5{fill:url(#path3305_1_);}
	.st6{fill:url(#path3992-7_1_);}
	.st7{fill:url(#path3274_1_);}
	.st8{opacity:0.8;}
	.st9{fill:url(#path3068-2-3-6-4_1_);}
	.st10{fill:url(#path3068-2-3-6_1_);}
	.st11{fill:#505050;}
	.st12{fill:url(#path3120_1_);}
	.st13{fill:url(#path3025_1_);}
	.st14{opacity:0.5;fill:url(#path4184_1_);enable-background:new    ;}
	.st15{fill:url(#path3069_1_);}
	.st16{opacity:0.3;fill:url(#path3314_1_);enable-background:new    ;}
	.st17{fill:url(#path3116_1_);}
	.st18{opacity:0.5;fill:url(#path4198_1_);enable-background:new    ;}
	.st19{opacity:0.3;fill:url(#path3116-1_1_);enable-background:new    ;}
	.st20{opacity:0.3;fill:url(#path4500_1_);enable-background:new    ;}
	.st21{fill:url(#path3155_1_);}
	.st22{opacity:0.5;fill:url(#path3284_1_);enable-background:new    ;}
	.st23{opacity:0.3;fill:url(#path3300_1_);enable-background:new    ;}
	.st24{fill:url(#path3287_1_);enable-background:new    ;}
</style>
<g id="g3049">
	
		<linearGradient id="path3051_1_" gradientUnits="userSpaceOnUse" x1="703.3097" y1="-3145.0303" x2="984.606" y2="-3327.7563" gradientTransform="matrix(0.65 0 0 -0.65 -408.2 -1929.2485)">
		<stop  offset="0" style="stop-color:#000032"/>
		<stop  offset="0.25" style="stop-color:#646464"/>
		<stop  offset="0.42" style="stop-color:#000000"/>
		<stop  offset="1" style="stop-color:#787878"/>
	</linearGradient>
	<path id="path3051" class="st0" d="M135.4,220c-14.6-1.5-28.7-5.6-42-11.9c-11.2-5.5-18.3-10.4-26-18.2
		c-8.6-8.7-12.9-15.2-16.7-25.4c-4.7-12.4-3-28.9,4.3-43.3c6.2-12,13.9-20.6,26-28.6c4.5-2.9,15.6-8.7,18.5-9.5
		c2.1-0.5-1,0.5-4.6,2.6c-2.2,1.2-3.5,2-5.6,3.1c-3.8,2.3-7.4,4.9-10.7,7.7c-13.3,10.7-21.6,23.4-24.5,37.7
		c-0.9,6.6-0.9,13.3,0,19.8c3.5,17.1,13.7,30.9,31.1,42.3c9.9,6.7,21.6,11.4,35.1,14.8c11.4,2.7,15.7,3.1,31.2,3.1
		c11.2,0,14.9-0.1,19.3-0.8c14.3-2.2,29.6-7.2,39.9-13c8.4-4.7,11.1-6.4,11.8-7c1.3-0.8,2.8-1.6,4.3-2.3c1.9-0.6,3.5-1.8,4.8-3.1
		c1.3-1.6,1.4-1.6,4.7-1.6c2,0,5-2.8,5-2.6c-3.9,5.4-8.5,10.2-13.8,14.2c-5.2,4.1-11,7.7-17.2,10.6c-12.9,6.2-23.3,9.6-39.5,11.5
		C159.4,221,147.4,221.1,135.4,220L135.4,220z"/>
</g>
<g id="g3124">
	
		<linearGradient id="path3126_1_" gradientUnits="userSpaceOnUse" x1="817.4373" y1="-3078.7517" x2="1104.749" y2="-3076.6079" gradientTransform="matrix(0.65 0 0 -0.65 -475.65 -1808.9385)">
		<stop  offset="0" style="stop-color:#999999"/>
		<stop  offset="0.22" style="stop-color:#3C3C3C;stop-opacity:0.87"/>
		<stop  offset="0.52" style="stop-color:#969696"/>
		<stop  offset="0.75" style="stop-color:#828282"/>
		<stop  offset="1" style="stop-color:#5A5A5A"/>
	</linearGradient>
	<path id="path3126" class="st1" d="M134.5,212.7c-9.3-1-18.5-3-27.5-6.1c-5.9-2.2-11.4-4.7-17.1-7.4c-4.8-3-9.4-6.6-13.8-10.3
		c-5.2-4.5-13.6-15-13-16.2c1.4-0.7,3-1.4,4.7-1.8c0.6,0.7,1.2,1.6,1.6,2.5c4,6.8,9.3,12.8,15.5,17.6c8.3,6.8,14.2,9.7,26.3,13.2
		c24.9,7.1,53.8,6.8,77.2-0.8c9.1-2.9,18.2-8,21.7-11.7c0.9-1,8.3-3.6,8.9-3.1c0.5,0.4-1,2.8-4.7,6.1c-6.5,5.5-22.3,12.4-35.1,15.1
		c-11.4,2.5-15.5,2.8-29.5,3C142.4,212.9,135.4,212.8,134.5,212.7L134.5,212.7z"/>
</g>
<linearGradient id="path3068-2_1_" gradientUnits="userSpaceOnUse" x1="339.3764" y1="-3164.3501" x2="338.8352" y2="-3093.8699" gradientTransform="matrix(0.65 0 0 -0.65 -66.15 -1837.0985)">
	<stop  offset="0" style="stop-color:#000000"/>
	<stop  offset="1" style="stop-color:#000000;stop-opacity:0"/>
</linearGradient>
<path id="path3068-2" class="st2" d="M89.4,197c-3.7-1.2-5.9-2.4-10.4-6c-10.1-7.9-17.4-17.8-20.6-28.1c-1.9-6.2-2.3-10.1-2.1-18.7
	c0.2-6.8,0.4-8.5,1.5-12c2.4-8.3,6.5-16,12-22.5c13.6-16.2,38.7-28.5,64.5-31.3c7.1-0.7,20.4-0.8,22.4-0.1c2.4,1,4.1,3,5,5.6
	c0.4,1.5,0.4,2-0.5,3.8c-0.6,1.3-1.4,2.5-2.4,3.6c-0.7,0.8-2.6,3.4-4.1,5.5s-5.2,6.8-8.2,10.4s-7.7,9.8-10.7,14
	c-5.4,7.5-17.2,25.3-19.6,29.5c-0.6,1.3-2,3.2-2.8,4.4c-1.2,1.9-2.3,3.7-3.1,5.8c-1.5,3.2-1.6,3.8-1.5,6.9c0.2,4.3,1.5,6.5,5.4,9
	c5.8,3.7,0.5,3.4,60.9,3.4h53.8l4.7-5c3.6-3.9,5-5.9,6.3-8.5c2.1-4.7,3.5-9.5,4.5-14.6c0.6-3.9,0.2-14.4-0.6-17.1
	c-1.9-7.2-4.8-14.2-8.9-20.4c-7.4-11.4-18-20.6-33.2-28.8c-2.7-1.4-9.6-4.8-9.5-4.9c0.3-0.3,10.6,3.9,15.7,6.5
	c12.5,6.3,23.3,15.2,30.6,25.2c5.4,7.4,9.4,15.7,11.7,24.6c1,4.6,1.5,9.4,1.3,14.1c0,10.4-2.2,17.2-7.3,27.1
	c-3.6,7-4.4,7.9-9.7,10.7l-6.1,2.2l-53.1,0.3c-54.2,0.3-54.3,0-59.7-1c-11.3-2.2-16-4.9-18.8-11c-1.4-3-1.8-9-0.7-13.2
	c2.4-9.7,19.1-35.5,42.4-65.8c4.5-5.9,8.3-10.8,8.5-11.3c1.2-2.3,0-3.8-3.5-4.4c-2.4-0.3-14.9,1.6-20.2,3.1
	c-13.3,3.8-18.2,5.9-24.8,9.6c-9.9,5.8-18,12.8-23.8,20.4c-6.1,8.2-8.4,13.4-10.7,23.1c-1.3,5.8-1,14.7,0.7,20.9
	c3.7,13.3,11.4,23.7,25,33c1.3,0.8,2.6,1.9,3.8,2.8C93.5,198,91.8,197.7,89.4,197L89.4,197z"/>
<g id="g3066">
	
		<linearGradient id="path3992_1_" gradientUnits="userSpaceOnUse" x1="260.373" y1="-2962.9114" x2="466.2559" y2="-3197.4983" gradientTransform="matrix(0.65 0 0 -0.65 -65.77 -1836.9585)">
		<stop  offset="0" style="stop-color:#5A5A5A"/>
		<stop  offset="0.27" style="stop-color:#505050"/>
		<stop  offset="0.63" style="stop-color:#666666"/>
		<stop  offset="0.67" style="stop-color:#666666"/>
		<stop  offset="1" style="stop-color:#666666"/>
	</linearGradient>
	<path id="path3992" class="st3" d="M89.7,197c-3.7-1.2-5.9-2.4-10.4-6c-10.1-7.9-17.4-17.8-20.5-28.1c-2-6.2-2.4-10.1-2.1-18.7
		c0.2-6.8,0.4-8.5,1.5-12c2.3-8.3,6.5-16,11.9-22.5c13.6-16.2,38.8-28.5,64.5-31.3c7.1-0.7,20.4-0.8,22.4-0.1c2.4,1,4.1,3,5,5.6
		c0.4,1.5,0.4,2-0.5,3.8c-0.6,1.3-1.4,2.5-2.4,3.6c-0.7,0.8-2.6,3.4-4.1,5.5s-5.2,6.8-8.2,10.4c-2.9,3.6-7.7,9.9-10.6,14
		c-5.4,7.5-17.2,25.3-19.6,29.5c-0.7,1.3-2.1,3.2-2.8,4.4c-1.2,1.9-2.3,3.7-3.1,5.8c-1.5,3.2-1.6,3.8-1.5,6.9c0.2,4.3,1.5,6.5,5.4,9
		c5.8,3.7,0.5,3.4,60.9,3.4h53.8l4.7-5c3.6-3.9,5-5.9,6.3-8.5c2.1-4.7,3.5-9.5,4.5-14.6c0.6-3.9,0.2-14.4-0.6-17.1
		c-1.8-7.3-5.8-13.7-9.5-19.9c-7.4-11.5-17.2-19.1-32.4-27.2c-2.7-1.4-16.1-8.6-9.5-7.2c0.3-0.3,10.6,3.9,15.7,6.5
		c12.5,6.3,23.3,15.2,30.6,25.2c5.5,7.4,9.4,15.7,11.8,24.6c1,4.6,1.5,9.4,1.3,14.1c0,10.4-2.2,17.2-7.3,27.1
		c-3.6,7-4.4,7.9-9.7,10.7l-6.1,2.2l-53.1,0.3c-54.2,0.3-54.3,0-59.7-1c-11.3-2.2-16-4.9-18.8-11c-1.4-3-1.8-9-0.7-13.2
		c2.4-9.7,19.1-35.5,42.4-65.8c4.5-5.9,8.3-10.8,8.5-11.3c1.2-2.3,0-3.8-3.5-4.4c-2.4-0.3-14.9,1.5-20.3,3.1
		c-12.8,3.5-17.8,5.6-24.4,9.3c-9.9,5.9-18,12.9-23.8,20.4c-6.1,8.2-8.4,13.4-10.7,23.1c-1.3,5.8-1,14.7,0.7,20.9
		c3.7,13.3,10.8,24.2,24.4,33.5C91.4,195.8,92.1,197.8,89.7,197L89.7,197z"/>
	
		<linearGradient id="path3068_1_" gradientUnits="userSpaceOnUse" x1="260.2099" y1="-2963.0547" x2="466.0928" y2="-3197.6416" gradientTransform="matrix(0.65 0 0 -0.65 -65.77 -1836.9585)">
		<stop  offset="0" style="stop-color:#5A5A5A"/>
		<stop  offset="0.27" style="stop-color:#505050"/>
		<stop  offset="0.63" style="stop-color:#666666"/>
		<stop  offset="0.67" style="stop-color:#666666"/>
		<stop  offset="1" style="stop-color:#666666"/>
	</linearGradient>
	<path id="path3068" class="st4" d="M89.7,197c-3.7-1.2-5.9-2.4-10.4-6c-10.1-7.9-17.4-17.8-20.5-28.1c-2-6.2-2.4-10.1-2.1-18.7
		c0.2-6.8,0.4-8.5,1.5-12c2.3-8.3,6.5-16,11.9-22.5c13.6-16.2,38.8-28.5,64.5-31.3c7.1-0.7,20.4-0.8,22.4-0.1c2.4,1,4.1,3,5,5.6
		c0.4,1.5,0.4,2-0.5,3.8c-0.6,1.3-1.4,2.5-2.4,3.6c-0.7,0.8-2.6,3.4-4.1,5.5s-5.2,6.8-8.2,10.4c-2.9,3.6-7.7,9.9-10.6,14
		c-5.4,7.5-17.2,25.3-19.6,29.5c-0.7,1.3-2.1,3.2-2.8,4.4c-1.2,1.9-2.3,3.7-3.1,5.8c-1.5,3.2-1.6,3.8-1.5,6.9c0.2,4.3,1.5,6.5,5.4,9
		c5.8,3.7,0.5,3.4,60.9,3.4h53.8l4.7-5c3.6-3.9,5-5.9,6.3-8.5c2.1-4.7,3.5-9.5,4.5-14.6c0.6-3.9,0.2-14.4-0.6-17.1
		c-1.9-7.2-4.8-14.2-8.9-20.4c-7.4-11.5-17.9-20.7-33.2-28.8c-2.7-1.4-9.6-4.8-9.5-4.9c0.3-0.3,10.6,3.9,15.7,6.5
		c12.5,6.3,23.3,15.2,30.6,25.2c5.5,7.4,9.4,15.7,11.8,24.6c1,4.6,1.5,9.4,1.3,14.1c0,10.4-2.2,17.2-7.3,27.1
		c-3.6,7-4.4,7.9-9.7,10.7l-6.1,2.2l-53.1,0.3c-54.2,0.3-54.3,0-59.7-1c-11.3-2.2-16-4.9-18.8-11c-1.4-3-1.8-9-0.7-13.2
		c2.4-9.7,19.1-35.5,42.4-65.8c4.5-5.9,8.3-10.8,8.5-11.3c1.2-2.3,0-3.8-3.5-4.4c-2.4-0.3-14.9,1.5-20.3,3.1
		c-13.3,3.8-18.2,5.9-24.8,9.6c-9.9,5.9-18,12.9-23.8,20.4c-6.1,8.2-8.4,13.4-10.7,23.1c-1.3,5.8-1,14.7,0.7,20.9
		c3.7,13.3,11.4,23.7,25,33c1.3,0.8,2.6,1.9,3.8,2.8C93.8,198.1,92.1,197.8,89.7,197L89.7,197z"/>
</g>
<linearGradient id="path3305_1_" gradientUnits="userSpaceOnUse" x1="1178.1904" y1="-2688.8296" x2="1388.8711" y2="-2779.6985" gradientTransform="matrix(0.65 0 0 -0.65 -703.56 -1651.3185)">
	<stop  offset="0" style="stop-color:#323232;stop-opacity:0"/>
	<stop  offset="0.39" style="stop-color:#323232;stop-opacity:0.95"/>
	<stop  offset="0.47" style="stop-color:#323232;stop-opacity:0.9"/>
	<stop  offset="0.7" style="stop-color:#E1E1E1;stop-opacity:0.5"/>
	<stop  offset="1" style="stop-color:#C8C8C8;stop-opacity:0"/>
</linearGradient>
<path id="path3305" class="st5" d="M56.3,144.1c0.2-6.8,0.4-8.5,1.5-12c2.3-8.3,6.5-16,12-22.5c13.6-16.2,38.7-28.5,64.5-31.3
	c7.1-0.7,20.4-0.8,22.4-0.1c2.4,1,4.1,3,5,5.6c0.4,1.5,0.4,2-0.5,3.8c-0.6,1.3-1.4,2.5-2.4,3.6c-0.7,0.8-2.6,3.4-4.1,5.5
	s-5.2,6.8-8.2,10.4s-7.7,9.8-10.7,14c-5.4,7.5-17.2,25.3-19.6,29.5c-0.6,1.3-2,3.2-2.8,4.4c-1.2,1.9-2.3,3.7-3.1,5.8
	c-1.5,3.2-1.6,3.8-1.5,6.9c0.2,4.3,1.5,6.5,5.4,9c5.8,3.7,0.5,3.4,60.9,3.4h53.8l4.7-5c3.6-3.9,5-5.9,6.3-8.5
	c2.1-4.7,3.5-9.5,4.5-14.6c0.6-3.9,0.2-14.4-0.6-17.1c-1.8-7.3-5.9-13.5-9.7-19.6c-7.4-11.5-17.9-20.7-33.2-28.8
	c-2.9-1.8-6-3.6-8.6-5.9c0.3-0.3,10.6,3.9,15.7,6.5c12.5,6.3,23.3,15.2,30.6,25.2c5.4,7.4,9.4,15.7,11.7,24.6
	c1,4.6,1.5,9.4,1.3,14.1c0,10.4-2.2,17.2-7.3,27.1c-3.6,7-4.4,7.9-9.7,10.7l-6.1,2.2l-53.1,0.3c-54.2,0.3-54.3,0-59.7-1
	c-11.3-2.2-16-4.9-18.8-11c-1.4-3-1.8-9-0.7-13.2c2.4-9.7,19.1-35.5,42.4-65.8c4.5-5.9,8.3-10.8,8.5-11.3c1.2-2.3,0-3.8-3.5-4.4
	c-2.4-0.3-14.9,1.6-20.2,3.1c-13.3,3.8-18.2,5.9-24.8,9.6c-9.9,5.8-18,12.8-23.8,20.4c-6.1,8.2-8.4,13.4-10.7,23.1
	c-1.3,5.8-1,14.7,0.7,20.9C57,155.3,56.1,149.6,56.3,144.1L56.3,144.1z"/>
<linearGradient id="path3992-7_1_" gradientUnits="userSpaceOnUse" x1="336.1146" y1="-3126.8308" x2="337.1968" y2="-3092.3921" gradientTransform="matrix(0.65 0 0 -0.65 -66.15 -1837.0985)">
	<stop  offset="0" style="stop-color:#000000"/>
	<stop  offset="1" style="stop-color:#000000;stop-opacity:0"/>
</linearGradient>
<path id="path3992-7" class="st6" d="M58.3,163c-1.9-6.2-2.3-10.1-2.1-18.7c0.2-6.8,0.4-8.5,1.5-12c2.3-8.3,6.5-16,12-22.5
	c13.6-16.2,38.7-28.5,64.5-31.3c7.1-0.7,20.4-0.8,22.4-0.1c2.4,1,4.1,3,5,5.6c0.4,1.5,0.4,2-0.5,3.8c-0.6,1.3-1.4,2.5-2.4,3.6
	c-0.7,0.8-2.6,3.4-4.1,5.5s-5.2,6.8-8.2,10.4s-7.7,9.8-10.7,14c-5.4,7.5-17.2,25.3-19.6,29.5c-0.6,1.3-2,3.2-2.8,4.4
	c-1.2,1.9-2.3,3.7-3.1,5.8c-1.5,3.2-1.6,3.8-1.5,6.9c0.2,4.3,1.5,6.5,5.4,9c5.8,3.7,0.5,3.4,60.9,3.4h53.8l4.7-5
	c3.6-3.9,5-5.9,6.3-8.5c2.1-4.7,3.5-9.5,4.5-14.6c0.6-3.9,0.2-14.4-0.6-17.1c-1.9-7.2-4.8-14.2-8.9-20.4
	c-7.4-11.4-18-20.6-33.2-28.8c-2.7-1.4-9.6-4.8-9.5-4.9c0.3-0.3,10.6,3.9,15.7,6.5c12.5,6.3,23.3,15.2,30.6,25.2
	c5.4,7.4,9.4,15.7,11.7,24.6c1,4.6,1.5,9.4,1.3,14.1c0,10.4-2.2,17.2-7.3,27.1c-3.6,7-4.4,7.9-9.7,10.7l-6.1,2.2l-53.1,0.3
	c-54.2,0.3-54.3,0-59.7-1c-11.3-2.2-16-4.9-18.8-11c-1.4-3-1.8-9-0.7-13.2c2.4-9.7,19.1-35.5,42.4-65.8c4.5-5.9,8.3-10.8,8.5-11.3
	c1.2-2.3,0-3.8-3.5-4.4c-2.4-0.3-14.9,1.6-20.2,3.1c-13.3,3.8-18.2,5.9-24.8,9.6c-9.9,5.8-18,12.8-23.8,20.4
	c-6.1,8.2-8.4,13.4-10.7,23.1c-1.3,5.8-1,14.7,0.7,20.9C62.5,163,68.2,171.8,58.3,163L58.3,163z"/>
<linearGradient id="path3274_1_" gradientUnits="userSpaceOnUse" x1="1220.921" y1="-2657.875" x2="1249.7501" y2="-2688.2754" gradientTransform="matrix(0.65 0 0 -0.65 -702.84 -1652.0385)">
	<stop  offset="0" style="stop-color:#28170B"/>
	<stop  offset="1" style="stop-color:#28170B;stop-opacity:0"/>
</linearGradient>
<path id="path3274" class="st7" d="M58.8,162.4c-1.9-6.2-2.3-10.1-2.1-18.7c0.2-6.8,0.4-8.5,1.5-12c2.3-8.3,6.5-16,12-22.5
	C83.8,93,109,80.6,134.7,77.9c7.1-0.7,20.4-0.8,22.4-0.1c2.4,1,4.1,3,5,5.6c0.4,1.5,0.4,2-0.5,3.8c-0.6,1.3-1.4,2.5-2.4,3.6
	c-0.7,0.8-2.6,3.4-4.1,5.5s-5.2,6.8-8.2,10.4s-7.7,9.8-10.7,13.9c-5.4,7.5-17.2,25.3-19.6,29.5c-0.7,1.3-2,3.2-2.8,4.5
	c-1.2,1.9-2.3,3.7-3.1,5.8c-1.5,3.2-1.6,3.8-1.5,6.9c0.2,4.3,1.5,6.5,5.4,9c5.8,3.7,0.5,3.4,60.9,3.4H229l4.7-5
	c3.6-3.9,5-5.9,6.3-8.5c2.1-4.7,3.5-9.5,4.5-14.6c0.6-3.9,0.2-14.4-0.6-17.1c-1.8-7.3-5.9-13.5-9.7-19.6
	c-7.4-11.5-17.9-20.7-33.2-28.8c-2.9-1.8-6-3.6-8.6-5.9c0.3-0.3,10.6,3.9,15.7,6.5c12.5,6.3,23.3,15.2,30.6,25.2
	c5.5,7.4,9.4,15.7,11.8,24.6c1,4.6,1.5,9.4,1.3,14.1c0,10.4-2.2,17.2-7.3,27.1c-3.6,7-4.4,7.9-9.7,10.7l-6.1,2.2l-53.1,0.3
	c-54.2,0.3-54.3,0-59.7-1c-11.3-2.2-16-4.9-18.8-11c-1.4-3-1.8-9-0.7-13.2c2.4-9.6,19.1-35.5,42.4-65.7c4.5-5.9,8.3-10.8,8.5-11.3
	c1.2-2.3,0-3.8-3.5-4.4c-2.4-0.3-14.9,1.5-20.3,3.1c-13.3,3.8-18.2,5.9-24.8,9.6c-9.9,5.8-18,12.8-23.8,20.4
	c-6.1,8.2-8.4,13.4-10.7,23.1c-1.3,5.8-1,14.7,0.7,20.9C63,162.5,63.4,162,58.8,162.4L58.8,162.4z"/>
<g id="g3066-5-8-6-6" class="st8">
	
		<linearGradient id="path3068-2-3-6-4_1_" gradientUnits="userSpaceOnUse" x1="487.3484" y1="-3109.1846" x2="476.2955" y2="-3083.6545" gradientTransform="matrix(0.61 0 0 -0.62 -144.73 -1835.9518)">
		<stop  offset="0" style="stop-color:#B3B3B3;stop-opacity:0"/>
		<stop  offset="0.16" style="stop-color:#B3B3B3;stop-opacity:0.3"/>
		<stop  offset="0.34" style="stop-color:#B3B3B3;stop-opacity:0.87"/>
		<stop  offset="0.41" style="stop-color:#B3B3B3;stop-opacity:0.75"/>
		<stop  offset="0.66" style="stop-color:#B3B3B3;stop-opacity:0"/>
		<stop  offset="1" style="stop-color:#B3B3B3;stop-opacity:0"/>
	</linearGradient>
	<path id="path3068-2-3-6-4" class="st9" d="M135.2,78.7c6.7-0.7,19.1-0.7,21.1-0.1c2.3,0.9,3.9,2.9,4.7,5.4c0.4,1.5,0.4,2-0.4,3.6
		c-0.6,1.2-1.4,2.4-2.2,3.5c-0.6,0.8-2.4,3.1-3.9,5.2c-10.8,10.8-8.7,4.7-7.3-7.4c1.2-2.2,0-3.7-3.2-4.1
		C139.6,81.3,143.6,81.9,135.2,78.7L135.2,78.7z"/>
</g>
<g id="g3066-5-8-6">
	
		<linearGradient id="path3068-2-3-6_1_" gradientUnits="userSpaceOnUse" x1="480.4037" y1="-3223.0225" x2="466.2078" y2="-3178.7693" gradientTransform="matrix(0.61 0 0 -0.62 -149.03 -1830.8817)">
		<stop  offset="0" style="stop-color:#B3B3B3;stop-opacity:0"/>
		<stop  offset="0.12" style="stop-color:#B3B3B3;stop-opacity:0.37"/>
		<stop  offset="0.29" style="stop-color:#B3B3B3;stop-opacity:0.87"/>
		<stop  offset="0.38" style="stop-color:#B3B3B3;stop-opacity:0.75"/>
		<stop  offset="0.52" style="stop-color:#B3B3B3;stop-opacity:0.5"/>
		<stop  offset="1" style="stop-color:#B3B3B3;stop-opacity:0"/>
	</linearGradient>
	<path id="path3068-2-3-6" class="st10" d="M143.6,109.8c-2.7,3.5-7.2,9.5-10.1,13.5c-5,7.2-16.2,24.3-18.3,28.3
		c-0.6,1.2-1.9,3.1-2.6,4.3c-1,1.8-2.2,3.5-3,5.4c-1.4,3.1-1.5,3.6-1.4,6.7c0.2,4,1.4,6.3,5,8.5c5.4,3.5,0.4,3.2,57.4,3.2
		c7.4,3.2,65,8.7,0.2,10.8c-51,0.3-51.2,0-56.2-0.9c-10.6-2.1-15-4.7-17.8-10.5c-1.3-2.8-1.8-8.5-0.6-12.7
		C108.6,122.5,149.7,100.4,143.6,109.8z"/>
</g>
<path id="path3151" class="st11" d="M131.6,171c-2.3-3.2-2.4-7-0.2-11.8c3.8-8.6,25.3-38.8,41.6-58.1c9.4-11.1,13.2-16.5,13.2-18.5
	c-0.1-1.2-0.7-2.4-1.6-3.1l-2.9-2.6l2.6,0.7c2.6,0.7,5.2,1.8,7.7,2.9c2.3,1.5,1.9,5.8-0.4,9.7c-2.8,4.3-6.1,8.3-9.4,12.1
	c-12.7,14.9-24.2,30.7-34.9,46.9c-6.3,9.4-8.2,13.4-7.5,15.1c0.3,0.8-5.6,7.7-6.7,7.7C132.4,171.9,131.9,171.5,131.6,171L131.6,171z
	"/>
<linearGradient id="path3120_1_" gradientUnits="userSpaceOnUse" x1="1396.9382" y1="-2916.4875" x2="1439.3075" y2="-3043.0227" gradientTransform="matrix(0.65 0 0 -0.65 -703.56 -1815.4685)">
	<stop  offset="0" style="stop-color:#000000"/>
	<stop  offset="0.55" style="stop-color:#7D7D7D"/>
	<stop  offset="0.69" style="stop-color:#969696"/>
	<stop  offset="0.86" style="stop-color:#8A8A8A"/>
	<stop  offset="1" style="stop-color:#505050"/>
</linearGradient>
<path id="path3120" class="st12" d="M230.3,174.1c-1-1-3.5-6.3-3.5-7.1c0-0.3,1-0.3,1.4-0.6c1.3-1,2.2-3.1,3.4-8
	c2.9-11.3,1.6-23.6-3.6-34c-6.6-13.7-20.1-25.2-35.3-30.4c-2.2-0.6-2.8-0.9-3.2-1.4c-0.7-0.8-0.6-1.2,0.6-4c0.9-2.1,1.2-3.1,1.9-3.2
	c0.6-0.1,3.2,1,7.3,2.9c19.6,9.5,32.5,21.7,38.9,36.4c3.4,7.7,4.1,10.9,4.4,18.5c0.5,8.5-1.3,17.1-5.4,24.7
	C233.8,174.7,232,175.9,230.3,174.1L230.3,174.1z"/>
<linearGradient id="path3025_1_" gradientUnits="userSpaceOnUse" x1="1286.4364" y1="-3037.3159" x2="1425.7731" y2="-3070.2769" gradientTransform="matrix(0.65 0 0 -0.65 -703.56 -1815.4685)">
	<stop  offset="0" style="stop-color:#323232"/>
	<stop  offset="0.11" style="stop-color:#B4B4B6"/>
	<stop  offset="0.25" style="stop-color:#B4B4B4"/>
	<stop  offset="1" style="stop-color:#AAAAAA"/>
</linearGradient>
<path id="path3025" class="st13" d="M137.2,174.7c-2.4-0.3-4.6-1.9-4.6-2.7s6.2-8,6.9-8c0.2,0,0.4,1,1.2,1.4
	c1.3,0.6,5.6,0.7,44.5,0.9l42.9,0.2l1.9,3.4c1,2.1,2.1,4,1.9,4.5c-0.3,0.6-26.5,1-69.1,1C137.5,175.3,138.2,174.8,137.2,174.7
	L137.2,174.7z"/>
<linearGradient id="path4184_1_" gradientUnits="userSpaceOnUse" x1="1362.803" y1="-3042.7771" x2="1362.803" y2="-3065.9861" gradientTransform="matrix(0.65 0 0 -0.65 -703.56 -1815.4685)">
	<stop  offset="0" style="stop-color:#505050"/>
	<stop  offset="1" style="stop-color:#FAFAFA;stop-opacity:0"/>
</linearGradient>
<path id="path4184" class="st14" d="M137.2,174.7c-2.4-0.3-4.6-1.9-4.6-2.7s6.2-8,6.9-8c0.2,0,0.4,1,1.2,1.4
	c1.3,0.6,5.6,0.7,44.5,0.9l42.9,0.2l1.9,3.4c1,2.1,2.1,4,1.9,4.5c-0.3,0.6-26.5,1-69.1,1C137.5,175.3,138.2,174.8,137.2,174.7
	L137.2,174.7z"/>
<linearGradient id="path3069_1_" gradientUnits="userSpaceOnUse" x1="1205.451" y1="-2882.8501" x2="1266.7935" y2="-2980.7751" gradientTransform="matrix(0.65 0 0 -0.65 -703.84 -1815.4285)">
	<stop  offset="0" style="stop-color:#8282A9"/>
	<stop  offset="1" style="stop-color:#A9A9A9;stop-opacity:0"/>
</linearGradient>
<path id="path3069" class="st15" d="M137.2,215.3c-44.6-3.8-80.4-30.1-85.5-62.7c-3.2-20.4,5.5-40.4,24.8-56.4
	c6.7-5.5,8.4-6.7,17-10.9c16.1-8.1,31.6-11.7,51.9-12.4c9.3-0.4,18.6,0.2,27.8,1.8c7.9,1.3,8.7,1.6,10.9,3.8c1.5,1.5,2,2.3,2,3.6
	c0,2-2.2,5-13.9,19.2c-11.8,14.3-23.1,29.2-33.3,44.9c-9.2,13.8-10.4,16.9-9,21.8c1,3.6,4.4,5.4,7.6,6c4.1,0.7,9,0.6,40.9,0.5
	c16.7,0,52.3,0,53.4,0c1.2,0,2.4-0.5,3.2-1.4c3.2-4.3,4.6-6.1,0.2,1.8c-1.9,3.2-4.7,6-7.9,6.6c-3.6,0.7-99.1,0.4-104.4-0.4
	c-3.9-0.4-7.6-1.9-10.8-4.1c-1.8-0.9-3.1-2.6-4-4.5c-0.9-1.6-1.3-3.7-0.9-5.6c0.3-3.4,1.8-6.8,4.4-10.7c0.9-1.4,2.4-3.8,3.2-5.4
	c0.8-1.5,4.5-7.3,8.1-12.8c9.5-14.4,19.1-27.6,26-35.5c4.4-4.9,10.6-13.6,11-15.1c0.8-3.1-1.5-7.3-4.9-8.5
	c-2.3-0.7-14.7-0.6-21.9,0.3c-40.5,5.2-71.1,28.6-76.3,58.3c-0.8,6.7-0.8,13.5,0,20c2.4,13.8,11.2,26.6,25.2,36.4
	c7.1,4.7,14.8,8.6,22.7,11.6c29.9,10.7,67.8,9,96.3-4.4c6.9-3.1,9.8-5.2,14.1-9.5l3.7-3.8l6.5-0.3c6.3-0.3,9.6,0,9.2,0.7
	c-0.4,0.7-9.2,4-12.7,5.4c-2.3,0.9-4.5,2.3-6.6,3.7C194.5,210.8,164.9,217.7,137.2,215.3L137.2,215.3z"/>
<linearGradient id="path3314_1_" gradientUnits="userSpaceOnUse" x1="1008.3015" y1="-3153.9373" x2="933.0859" y2="-3179.7273" gradientTransform="matrix(0.65 0 0 -0.65 -448.63 -1925.5186)">
	<stop  offset="0" style="stop-color:#FAFAFA"/>
	<stop  offset="0.25" style="stop-color:#FAFAFA;stop-opacity:0.9"/>
	<stop  offset="0.5" style="stop-color:#E1E1E1;stop-opacity:0.5"/>
	<stop  offset="1" style="stop-color:#C8C8C8;stop-opacity:0"/>
</linearGradient>
<path id="path3314" class="st16" d="M138,215.3c-44.6-3.9-80.4-30.1-85.6-62.8c-3.2-20.4,5.5-40.4,24.8-56.4
	c6.7-5.5,8.4-6.7,17.1-10.9c16-8.1,31.6-11.7,51.9-12.4c-6.7,3.2-3,5.8-11.8,6.2c-40.5,5.2-71.1,28.6-76.3,58.3
	c-0.8,6.7-0.8,13.5,0,20c2.4,13.8,11.2,26.6,25.2,36.4c7.2,4.7,14.9,8.6,22.8,11.6c29.9,10.7,67.8,9,96.3-4.4
	c6.9-3.1,9.8-5.2,14.1-9.5l3.7-3.8l6.5-0.3c6.3-0.3,9.6,0,9.2,0.7c-0.4,0.7-9.2,4-12.7,5.4c-2.3,0.9-4.5,2.3-6.6,3.7
	C195,210.8,165.3,217.7,138,215.3z"/>
<linearGradient id="path3116_1_" gradientUnits="userSpaceOnUse" x1="1306.6178" y1="-2893.4485" x2="1304.9631" y2="-3159.5393" gradientTransform="matrix(0.65 0 0 -0.65 -703.56 -1815.4685)">
	<stop  offset="0" style="stop-color:#AAAAAA"/>
	<stop  offset="0.1" style="stop-color:#BEBEBE"/>
	<stop  offset="0.21" style="stop-color:#BEBEBE"/>
	<stop  offset="0.55" style="stop-color:#B4B4B4"/>
	<stop  offset="0.67" style="stop-color:#878787"/>
	<stop  offset="0.78" style="stop-color:#969696"/>
	<stop  offset="1" style="stop-color:#AAAAAA"/>
</linearGradient>
<path id="path3116" class="st17" d="M137.5,215.3C92.7,211.4,58,187,52.8,154.4c-3.2-20.4,5.5-40,24.8-56.1
	c6.7-5.5,8.6-6.7,16.6-11.3c15.5-9.1,30.9-13.6,51.3-14.1c9.3-0.4,18.6,0.2,27.8,1.8c7.9,1.3,8.7,1.6,11,3.9c1.5,1.5,2,2.3,2,3.6
	c0,2-2.2,5-13.9,19.2c-11.8,14.3-23.1,29.2-33.3,44.9c-9.2,13.8-10.4,16.9-9,21.8c1,3.6,4.4,5.4,7.6,6c4.1,0.7,9,0.6,40.9,0.5
	c16.7,0,52.3,0,53.4,0c1.2,0,2.4-0.5,3.2-1.4c3.2-4.3,4.6-6.1,0.2,1.8c-1.9,3.2-4.7,6-7.9,6.6c-3.6,0.7-99.1,0.4-104.4-0.4
	c-3.9-0.4-7.6-1.9-10.8-4.1c-1.8-0.9-3.1-2.6-4-4.5c-0.9-1.6-1.3-3.7-0.9-5.6c0.3-3.4,1.8-6.8,4.4-10.7c0.9-1.4,2.4-3.8,3.2-5.4
	c0.8-1.5,4.5-7.3,8.1-12.8c9.5-14.6,19.2-27.7,26.1-35.6c4.4-4.9,10.6-13.6,11-15.1c0.8-3.1-1.5-7.3-4.9-8.5
	c-2.3-0.7-14.6-0.6-22,0.3c-40.5,5.1-71,28.5-76.3,58.1c-0.8,6.7-0.8,13.5,0,20c2.4,13.8,11.2,26.6,25.2,36.4
	c7.2,4.7,14.9,8.6,22.8,11.6c29.9,10.7,67.8,9,96.3-4.4c6.9-3.1,9.8-5.2,14.1-9.5l3.7-3.8l6.5-0.3c6.3-0.3,9.6,0,9.2,0.7
	c-0.4,0.7-9.2,4-12.7,5.4c-2.3,0.9-4.5,2.3-6.6,3.7C194.7,210.8,165.1,217.7,137.5,215.3L137.5,215.3z"/>
<linearGradient id="path4198_1_" gradientUnits="userSpaceOnUse" x1="1193.4497" y1="-3123.4946" x2="1255.3228" y2="-3069.6975" gradientTransform="matrix(0.65 0 0 -0.65 -703.56 -1815.4685)">
	<stop  offset="0" style="stop-color:#E6E6E6"/>
	<stop  offset="1" style="stop-color:#FAFAFA;stop-opacity:0"/>
</linearGradient>
<path id="path4198" class="st18" d="M137.2,215.3c-44.6-3.8-80.4-30.1-85.5-62.7c-3.2-20.4,5.5-40.4,24.8-56.4
	c6.7-5.5,8.4-6.7,17-10.9c16.1-8.1,31.6-11.7,51.9-12.4c-0.4,4.5-7.4,6.2-11.8,6.2c-40.5,5.2-71.1,28.6-76.3,58.3
	c-0.8,6.7-0.8,13.5,0,20c2.4,13.8,11.2,26.6,25.2,36.4c7.1,4.7,14.8,8.6,22.7,11.6c29.9,10.7,67.8,9,96.3-4.4
	c6.9-3.1,9.8-5.2,14.1-9.5l3.7-3.8l6.5-0.3c6.3-0.3,9.6,0,9.2,0.7c-0.4,0.7-9.2,4-12.7,5.4c-2.3,0.9-4.5,2.3-6.6,3.7
	C194.5,210.8,164.9,217.7,137.2,215.3L137.2,215.3z"/>
<linearGradient id="path3116-1_1_" gradientUnits="userSpaceOnUse" x1="1008.3015" y1="-3153.9373" x2="933.0859" y2="-3179.7273" gradientTransform="matrix(0.65 0 0 -0.65 -448.63 -1925.5186)">
	<stop  offset="0" style="stop-color:#FAFAFA"/>
	<stop  offset="0.25" style="stop-color:#FAFAFA;stop-opacity:0.9"/>
	<stop  offset="0.5" style="stop-color:#E1E1E1;stop-opacity:0.5"/>
	<stop  offset="1" style="stop-color:#C8C8C8;stop-opacity:0"/>
</linearGradient>
<path id="path3116-1" class="st19" d="M138,215.3c-44.6-3.9-80.4-30.1-85.6-62.8c-3.2-20.4,5.5-40.4,24.8-56.4
	c6.7-5.5,8.4-6.7,17.1-10.9c16-8.1,31.6-11.7,51.9-12.4c-6.7,3.2-3,5.8-11.8,6.2c-40.5,5.2-71.1,28.6-76.3,58.3
	c-0.8,6.7-0.8,13.5,0,20c2.4,13.8,11.2,26.6,25.2,36.4c7.2,4.7,14.9,8.6,22.8,11.6c29.9,10.7,67.8,9,96.3-4.4
	c6.9-3.1,9.8-5.2,14.1-9.5l3.7-3.8l6.5-0.3c6.3-0.3,9.6,0,9.2,0.7c-0.4,0.7-9.2,4-12.7,5.4c-2.3,0.9-4.5,2.3-6.6,3.7
	C195,210.8,165.3,217.7,138,215.3z"/>
<linearGradient id="path4500_1_" gradientUnits="userSpaceOnUse" x1="1326.1252" y1="-2979.6135" x2="1341.4557" y2="-2990.375" gradientTransform="matrix(0.65 0 0 -0.65 -703.56 -1815.4685)">
	<stop  offset="0" style="stop-color:#FAFAFA"/>
	<stop  offset="0.25" style="stop-color:#EDEDED;stop-opacity:0.75"/>
	<stop  offset="0.5" style="stop-color:#E1E1E1;stop-opacity:0.5"/>
	<stop  offset="1" style="stop-color:#C8C8C8;stop-opacity:0"/>
</linearGradient>
<path id="path4500" class="st20" d="M142.5,176.6c-3.7-0.1-10.5-5.5-9.9-5c3.8,3.2,20,2.9,51.6,2.8l48-0.1l1.2-1.2
	c1.3-1.8,2.5-3.6,3.4-5.8c7-14.7,7-29.5,0.1-43.9c-2.8-6-6.7-11.2-11.2-16c-7.3-7.9-16.2-14.1-26.1-18.3c-8.1-3.6-8.3-2.7-8-5
	c-0.1-0.7-0.3-1.4-0.5-2.2c-1-3.8-0.5-2.9,9.1,2.1c13,6.8,19.9,11.3,28,19.8c17.9,18.6,22.4,42.8,11.8,64.5c-2,4.1-4.9,7-8.1,8
	c-1.4,0.4-9.8,0.4-43.2,0.4C164.4,177.2,161.2,177.3,142.5,176.6L142.5,176.6z"/>
<linearGradient id="path3155_1_" gradientUnits="userSpaceOnUse" x1="1313.046" y1="-3089.1401" x2="1455.6298" y2="-2941.7061" gradientTransform="matrix(0.65 0 0 -0.65 -703.56 -1815.4685)">
	<stop  offset="0" style="stop-color:#969696"/>
	<stop  offset="0.13" style="stop-color:#C0BEBE"/>
	<stop  offset="0.5" style="stop-color:#B4B4B4"/>
	<stop  offset="1" style="stop-color:#BEBEBE"/>
</linearGradient>
<path id="path3155" class="st21" d="M142.5,175.4c-6.4-0.1-12-5.4-11.6-4.9c3.8,3.2,21.7,2.8,53.2,2.8l47.9-0.1l1.2-1.2
	c1.3-1.8,2.5-3.6,3.4-5.6c7-14.4,7-29,0.1-43.2c-2.8-6-6.7-11.1-11.2-15.7c-7.3-7.7-16.2-14-26.1-18c-8.1-3.5-8.3-2.7-8-4.9
	c-0.1-0.7-0.3-1.4-0.5-2.1c-1-3.7-0.1-0.9,9.5,3.9c13,6.7,18.3,10.2,26.6,18.5c17.9,18.4,23.4,41.2,13,62.6c-2,4-4.9,6.9-8.1,7.9
	c-1.4,0.4-9.8,0.4-43.2,0.4C164.4,175.7,161.2,175.6,142.5,175.4L142.5,175.4z"/>
<linearGradient id="path3284_1_" gradientUnits="userSpaceOnUse" x1="1365.3097" y1="-2940.9492" x2="1395.9807" y2="-2946.8711" gradientTransform="matrix(0.65 0 0 -0.65 -703.56 -1815.4685)">
	<stop  offset="0" style="stop-color:#000000;stop-opacity:0"/>
	<stop  offset="0.11" style="stop-color:#323232;stop-opacity:0.95"/>
	<stop  offset="0.22" style="stop-color:#323232;stop-opacity:0.9"/>
	<stop  offset="0.51" style="stop-color:#E1E1E1;stop-opacity:0.5"/>
	<stop  offset="1" style="stop-color:#C8C8C8;stop-opacity:0"/>
</linearGradient>
<path id="path3284" class="st22" d="M236.8,123.6c-2.8-6-6.7-11.2-11.2-16c-7.3-7.9-16.2-14.1-26.1-18.2c-8.1-3.6-8.3-2.7-8-5
	c-0.1-0.7-0.3-1.4-0.5-2.2c-1-3.8-1.2-1.8,8.4,3.2c13,6.8,20.5,10.1,28.6,18.5C234.8,113.6,230.3,108.5,236.8,123.6L236.8,123.6z"/>
<linearGradient id="path3300_1_" gradientUnits="userSpaceOnUse" x1="1037.5341" y1="-3250.3596" x2="1037.3883" y2="-3259.7368" gradientTransform="matrix(0.65 0 0 -0.65 -448.63 -1925.5186)">
	<stop  offset="0" style="stop-color:#FAFAFA"/>
	<stop  offset="0.5" style="stop-color:#FAFAFA;stop-opacity:0.9"/>
	<stop  offset="0.7" style="stop-color:#E1E1E1;stop-opacity:0.5"/>
	<stop  offset="1" style="stop-color:#C8C8C8;stop-opacity:0"/>
</linearGradient>
<path id="path3300" class="st23" d="M216.3,191.6l3.7-3.8l6.5-0.3c6.3-0.3,9.6,0,9.2,0.7C231.2,193.2,212.1,196.6,216.3,191.6z"/>
<radialGradient id="path3287_1_" cx="148.1367" cy="120.0277" r="93.9762" gradientTransform="matrix(-2.338541e-02 0.9997 -1.4854 -3.474723e-02 329.8954 -23.8978)" gradientUnits="userSpaceOnUse">
	<stop  offset="0.1428" style="stop-color:#FFFFFF;stop-opacity:0.9"/>
	<stop  offset="0.75" style="stop-color:#E1E1E1;stop-opacity:0.45"/>
</radialGradient>
<path id="path3287" class="st24" d="M137.5,215.2c-44.7-3.9-79.4-28.3-84.6-60.9c-3.2-20.4,5.5-40,24.8-56.1
	c6.7-5.5,8.6-6.7,16.6-11.3c15.5-9.1,30.9-13.6,51.3-14.1c9.3-0.4,18.6,0.2,27.8,1.8c7.9,1.3,8.7,1.6,11,3.8c1.5,1.5,2,2.3,2,3.6
	c0,2-2.2,5-13.9,19.2c-11.8,14.3-23.1,29.2-33.3,44.9c-9.2,13.8-10.4,16.9-9,21.8c1,3.6,4.4,5.4,7.6,6c4.1,0.7,9,0.6,40.9,0.5
	c16.7,0,52.3,0,53.4,0c1.2,0,2.4-0.5,3.2-1.4c3.2-4.3,4.6-6.1,0.2,1.8c-1.9,3.2-4.7,6-7.9,6.6c-3.6,0.7-99.1,0.4-104.4-0.4
	c-3.9-0.4-7.6-1.9-10.8-4.1c-1.8-0.9-3.1-2.6-4-4.5c-0.9-1.6-1.3-3.7-0.9-5.6c0.3-3.4,1.8-6.8,4.4-10.7c0.9-1.4,2.4-3.8,3.2-5.4
	c0.8-1.5,4.5-7.3,8.1-12.8c9.4-14.4,19.1-27.6,26-35.5c4.4-4.9,10.6-13.6,11-15.1c0.8-3.1-1.5-7.3-4.9-8.5c-2.3-0.7-14.6-0.6-22,0.3
	c-40.5,5.2-71.1,28.6-76.3,58.3c-0.8,6.7-0.8,13.5,0,20c2.4,13.8,11.2,26.6,25.2,36.4c7.2,4.7,14.9,8.6,22.8,11.6
	c29.9,10.7,67.8,9,96.3-4.4c6.9-3.1,9.8-5.2,14.1-9.5l3.7-3.8l6.5-0.3c6.3-0.3,9.6,0,9.2,0.7c-0.4,0.7-9.2,4-12.7,5.4
	c-2.3,0.9-4.5,2.3-6.6,3.7C194.7,210.7,165,217.6,137.5,215.2z"/>
</svg>
