<?xml version="1.0" encoding="utf-8"?>
<!-- Generator: Adobe Illustrator 21.0.2, SVG Export Plug-In . SVG Version: 6.00 Build 0)  -->
<svg version="1.1" id="Layer_1" xmlns="http://www.w3.org/2000/svg" xmlns:xlink="http://www.w3.org/1999/xlink" x="0px" y="0px"
	 viewBox="0 0 300 300" style="enable-background:new 0 0 300 300;" xml:space="preserve">
<style type="text/css">
	.st0{fill:url(#path111_1_);}
	.st1{fill:url(#path129_1_);}
	.st2{fill:url(#path147_1_);}
	.st3{fill:url(#path165_1_);}
	.st4{fill:url(#path183_1_);}
	.st5{fill:url(#path201_1_);}
	.st6{fill:url(#path219_1_);}
	.st7{fill:url(#path237_1_);}
	.st8{fill:url(#path255_1_);}
	.st9{fill:url(#path273_1_);}
	.st10{fill:url(#path291_1_);}
	.st11{fill:url(#path309_1_);}
	.st12{fill:url(#path327_1_);}
	.st13{fill:url(#path345_1_);}
	.st14{fill:url(#path363_1_);}
	.st15{fill:url(#path381_1_);}
	.st16{fill:url(#path399_1_);}
	.st17{fill:url(#path417_1_);}
	.st18{fill:url(#path435_1_);}
	.st19{fill:#DEDEDE;}
	.st20{fill:url(#path459_1_);}
	.st21{fill:none;stroke:#231F20;stroke-width:0.4475;}
	.st22{fill:url(#path483_1_);}
	.st23{fill:url(#path507_1_);}
	.st24{fill:#FFF7F5;}
	.st25{fill:#FEEDE8;}
	.st26{fill:#FDE3DC;}
	.st27{fill:#FDD9CF;}
	.st28{fill:#FCCFC4;}
	.st29{fill:#FBC5B8;}
	.st30{fill:#FBBCAD;}
	.st31{fill:#FAB2A3;}
	.st32{fill:#F9A999;}
	.st33{fill:#F89F8F;}
	.st34{fill:#F89686;}
	.st35{fill:#F78D7D;}
	.st36{fill:#F68475;}
	.st37{fill:#F67B6D;}
	.st38{fill:#F57265;}
	.st39{fill:#F4695E;}
	.st40{fill:#F36157;}
	.st41{fill:#F46258;}
	.st42{fill:#F46359;}
	.st43{fill:#F46459;}
	.st44{fill:#F4655A;}
	.st45{fill:#F4655B;}
	.st46{fill:#F4665B;}
	.st47{fill:#F4675C;}
	.st48{fill:#F4685D;}
	.st49{fill:#F4695D;}
	.st50{fill:#F46A5E;}
	.st51{fill:#F46B5F;}
	.st52{fill:#F46C60;}
	.st53{fill:#F46D61;}
	.st54{fill:#F56E62;}
	.st55{fill:#F56F62;}
	.st56{fill:#F57063;}
	.st57{fill:#F57164;}
	.st58{fill:#F57366;}
	.st59{fill:#F57467;}
	.st60{fill:#F57567;}
	.st61{fill:#F57668;}
	.st62{fill:#F57769;}
	.st63{fill:#F5786A;}
	.st64{fill:#F5796B;}
	.st65{fill:#FEEFEA;}
	.st66{fill:#FEE7E0;}
	.st67{fill:#FDDFD6;}
	.st68{fill:#FDD6CC;}
	.st69{fill:#FCCEC3;}
	.st70{fill:#FBC6B9;}
	.st71{fill:#FBBEB0;}
	.st72{fill:#FAB6A8;}
	.st73{fill:#FAAF9F;}
	.st74{fill:#F9A797;}
	.st75{fill:#F89888;}
	.st76{fill:#F79080;}
	.st77{fill:#F78979;}
	.st78{fill:#F68172;}
	.st79{fill:#F57A6C;}
	.st80{fill:#FEEEEA;}
	.st81{fill:#FEE5DE;}
	.st82{fill:#FDDCD3;}
	.st83{fill:#FCD3C9;}
	.st84{fill:#FCCBBE;}
	.st85{fill:#FBC2B4;}
	.st86{fill:#FAB9AB;}
	.st87{fill:#FAB1A2;}
	.st88{fill:#F9A899;}
	.st89{fill:#F8A090;}
	.st90{fill:#F89A8A;}
	.st91{fill:#F89787;}
	.st92{fill:#F89989;}
	.st93{fill:#F89A89;}
	.st94{fill:#F89988;}
	.st95{fill:#F89887;}
	.st96{fill:#F89585;}
	.st97{fill:#F89484;}
	.st98{fill:#F79383;}
	.st99{fill:#F79282;}
	.st100{fill:#F79181;}
	.st101{fill:#F78F80;}
	.st102{fill:#F78F7F;}
	.st103{fill:#F78E7E;}
	.st104{fill:#F78C7C;}
	.st105{fill:#F78B7B;}
	.st106{fill:#F78A7A;}
	.st107{fill:#F7897A;}
	.st108{fill:#F78778;}
	.st109{fill:#F68677;}
	.st110{fill:#F68676;}
	.st111{fill:#F68575;}
	.st112{fill:#F68374;}
	.st113{fill:#FEF0EB;}
	.st114{fill:#FEE8E2;}
	.st115{fill:#FDE0D8;}
	.st116{fill:#FCD1C6;}
	.st117{fill:#FCCABD;}
	.st118{fill:#FBC2B5;}
	.st119{fill:#FBBBAD;}
	.st120{fill:#FAB4A5;}
	.st121{fill:#F9AD9D;}
	.st122{fill:#F9A596;}
	.st123{fill:#F89E8E;}
	.st124{fill:#F67C6E;}
	.st125{fill:#F67A6C;}
	.st126{fill:#F57A6B;}
	.st127{fill:#F57568;}
	.st128{fill:#F57466;}
	.st129{fill:#F57365;}
	.st130{fill:#F56F63;}
	.st131{fill:#F36057;}
	.st132{fill:#F36056;}
	.st133{fill:#F35F55;}
	.st134{fill:#F35E55;}
	.st135{fill:#F35D54;}
	.st136{fill:#F35C54;}
	.st137{fill:#F35B53;}
	.st138{fill:#F35B52;}
	.st139{fill:#F35A52;}
	.st140{fill:#F35951;}
	.st141{fill:#F35851;}
	.st142{fill:#F35750;}
	.st143{fill:#F3574F;}
	.st144{fill:#F3564F;}
	.st145{fill:#F2554E;}
	.st146{fill:#F2544E;}
	.st147{fill:#FFFFFF;}
	.st148{fill:url(#path941_1_);}
	.st149{fill:url(#path959_1_);}
	.st150{fill:url(#path977_1_);}
	.st151{fill:#231F20;}
	.st152{fill:#ED192D;}
	.st153{fill:#FDD8CE;}
	.st154{fill:url(#path1073_1_);}
	.st155{fill:url(#path1097_1_);}
	.st156{fill:url(#path1121_1_);}
	.st157{fill:url(#path1143_1_);}
	.st158{fill:url(#path1165_1_);}
	.st159{fill:url(#path1209_1_);}
	.st160{fill:url(#path1227_1_);}
	.st161{fill:url(#path1245_1_);}
	.st162{fill:url(#path1263_1_);}
	.st163{fill:url(#path1281_1_);}
	.st164{fill:url(#path1299_1_);}
	.st165{fill:url(#path1317_1_);}
	.st166{fill:url(#path1335_1_);}
	.st167{fill:url(#path1353_1_);}
	.st168{fill:url(#path1371_1_);}
	.st169{fill:url(#path1389_1_);}
</style>
<g id="g6739" transform="matrix(2.35154, 0, 0, 2.35154, -585.603, -571.591)">
	<g id="g95" transform="matrix(1.25, 0, 0, -1.25, -332.505, 1185.55)">
		<g id="g97">
			<g id="g103">
				
					<linearGradient id="path111_1_" gradientUnits="userSpaceOnUse" x1="674.3401" y1="983.8123" x2="675.9014" y2="983.8123" gradientTransform="matrix(-2.539728e-05 -381.0432 -381.0432 2.539728e-05 375401.4375 257666.2656)">
					<stop  offset="0" style="stop-color:#EDECEC"/>
					<stop  offset="1" style="stop-color:#686566"/>
				</linearGradient>
				<path id="path111" class="st0" d="M526.2,708.2l-1.6-5.8c0.2,0,0.3-0.4,0.2-0.7c0-0.4,0-8.3,0-8.5c0-0.2,0.1-0.4,0.2-0.5
					l3.1,4.3v12.5L526.2,708.2"/>
			</g>
		</g>
	</g>
	<g id="g113" transform="matrix(1.25, 0, 0, -1.25, -332.505, 1185.55)">
		<g id="g115">
			<g id="g121">
				
					<linearGradient id="path129_1_" gradientUnits="userSpaceOnUse" x1="674.6826" y1="983.8673" x2="676.2518" y2="983.8673" gradientTransform="matrix(64.8396 -287.4817 -287.4817 -64.8396 239624.7812 258470.4219)">
					<stop  offset="0" style="stop-color:#EDECEC"/>
					<stop  offset="1" style="stop-color:#686566"/>
				</linearGradient>
				<path id="path129" class="st1" d="M532.1,711.9c0,0.2,0,0.3-0.1,0.4l-3.9-2.8v-12.5l0,0l3.9-4.1c0,0.2,0,0.4,0,0.7
					C532.1,694.6,532.2,711.1,532.1,711.9"/>
			</g>
		</g>
	</g>
	<g id="g131" transform="matrix(1.25, 0, 0, -1.25, -332.505, 1185.55)">
		<g id="g133">
			<g id="g139">
				
					<linearGradient id="path147_1_" gradientUnits="userSpaceOnUse" x1="675.6217" y1="982.3389" x2="677.1904" y2="982.3389" gradientTransform="matrix(-14.7118 -121.3718 -121.3718 14.7118 129706.7812 68264.7656)">
					<stop  offset="0" style="stop-color:#EDECEC"/>
					<stop  offset="1" style="stop-color:#686566"/>
				</linearGradient>
				<path id="path147" class="st2" d="M541,699.2c0,0.1,0,0.2,0,0.4c0,0.5,0,5.4,0,6.1c0,0.1,0,0.3,0,0.3c-2.2,1.9-4.2,3-6.9,3
					c-0.1-0.3-0.1-0.7-0.1-1.1c0,0,0-9.7,0-10.6c0.1-0.8,0.3-1.5,0.6-2.1C538.8,696.5,540.4,698.2,541,699.2"/>
			</g>
		</g>
	</g>
	<g id="g149" transform="matrix(1.25, 0, 0, -1.25, -332.505, 1185.55)">
		<g id="g151">
			<g id="g157">
				
					<linearGradient id="path165_1_" gradientUnits="userSpaceOnUse" x1="675.7178" y1="982.7113" x2="677.2936" y2="982.7113" gradientTransform="matrix(0 -132.7009 -132.7009 0 130954.7344 90368.7969)">
					<stop  offset="0" style="stop-color:#EDECEC"/>
					<stop  offset="1" style="stop-color:#686566"/>
				</linearGradient>
				<path id="path165" class="st3" d="M559.8,698.8c-1.7,0-18,0-18.4,0c-0.2,0-0.4,0.1-0.4,0.4c-0.6-1-2.2-2.6-6.4-4
					c0.8-1.6,2.4-2.6,4.2-2.6c1,0,21.4,0,21.8,0c0.6,0,0.7,0.3,0.7,0.8c0,0.5,0.1,3.8,0,4.5C561.2,698.7,561.3,698.8,559.8,698.8"/>
			</g>
		</g>
	</g>
	<g id="g167" transform="matrix(1.25, 0, 0, -1.25, -332.505, 1185.55)">
		<g id="g169">
			<g id="g175">
				
					<linearGradient id="path183_1_" gradientUnits="userSpaceOnUse" x1="675.4818" y1="983.3359" x2="677.0307" y2="983.3359" gradientTransform="matrix(27.7491 -162.4103 -162.4103 -27.7491 141506.9844 137706.0781)">
					<stop  offset="0" style="stop-color:#EDECEC"/>
					<stop  offset="1" style="stop-color:#686566"/>
				</linearGradient>
				<path id="path183" class="st4" d="M541,706c0.1,0.4,0.3,0.5,0.6,0.5c1.8,0,18.2,0,18.9,0c0.6,0,0.7,0.1,0.9,0.9
					c0.2,0.8,0.1,3.7,0.1,4.1c-0.1,0.8-0.3,1.3-1.2,1.3c-1,0-21.3,0-21.8-0.1c-1.7-0.1-3.8-1.5-4.3-3.9
					C536.8,708.9,538.8,707.9,541,706"/>
			</g>
		</g>
	</g>
	<g id="g185" transform="matrix(1.25, 0, 0, -1.25, -332.505, 1185.55)">
		<g id="g187">
			<g id="g193">
				
					<linearGradient id="path201_1_" gradientUnits="userSpaceOnUse" x1="674.2098" y1="983.9149" x2="675.7792" y2="983.9149" gradientTransform="matrix(-2.539728e-05 -461.8395 -461.8395 2.539728e-05 454932.0312 312096.25)">
					<stop  offset="0" style="stop-color:#EDECEC"/>
					<stop  offset="1" style="stop-color:#686566"/>
				</linearGradient>
				<path id="path201" class="st5" d="M519.1,692.8c0.1,0.1,0.2,0.3,0.4,0.5c0.5,0.7,4.5,8.2,4.9,8.9c0.1,0.2,0.2,0.2,0.2,0.2
					l1.6,5.8l-10-11L519.1,692.8"/>
			</g>
		</g>
	</g>
	<g id="g203" transform="matrix(1.25, 0, 0, -1.25, -332.505, 1185.55)">
		<g id="g205">
			<g id="g211">
				
					<linearGradient id="path219_1_" gradientUnits="userSpaceOnUse" x1="674.21" y1="983.9221" x2="675.7801" y2="983.9221" gradientTransform="matrix(-2.539728e-05 -461.7937 -461.7937 2.539728e-05 454880.4375 312065.3125)">
					<stop  offset="0" style="stop-color:#EDECEC"/>
					<stop  offset="1" style="stop-color:#686566"/>
				</linearGradient>
				<path id="path219" class="st6" d="M508.2,702.5c0.1,0.1,0.3,0,0.5-0.2c0.3-0.5,4.5-8.4,4.9-9c0.1-0.2,0.3-0.4,0.4-0.5l2.7,3.8
					l-10.4,11.9L508.2,702.5"/>
			</g>
		</g>
	</g>
	<g id="g221" transform="matrix(1.25, 0, 0, -1.25, -332.505, 1185.55)">
		<g id="g223">
			<g id="g229">
				
					<linearGradient id="path237_1_" gradientUnits="userSpaceOnUse" x1="675.4504" y1="983.0517" x2="677.0233" y2="983.0517" gradientTransform="matrix(5.7413 -153.7087 -153.7087 -5.7413 147749.4844 110179.875)">
					<stop  offset="0" style="stop-color:#EDECEC"/>
					<stop  offset="1" style="stop-color:#686566"/>
				</linearGradient>
				<path id="path237" class="st7" d="M531.1,712.8c-0.4,0-7.4,0-7.8,0c-0.3,0-0.9,0-1.5-0.9c-0.3-0.5-1.1-1.9-2-3.6
					c-1.2-2.2-2.6-4.8-2.8-5.4c-0.3-0.6-0.4-0.5-0.5-0.6c0,0,0,0-0.1,0l-0.2-5.1l10,11l5.8,4.2C531.9,712.7,531.7,712.8,531.1,712.8
					"/>
			</g>
		</g>
	</g>
	<g id="g239" transform="matrix(1.25, 0, 0, -1.25, -332.505, 1185.55)">
		<g id="g241">
			<g id="g247">
				
					<linearGradient id="path255_1_" gradientUnits="userSpaceOnUse" x1="675.587" y1="983.483" x2="677.1464" y2="983.483" gradientTransform="matrix(35.5 -155.4635 -155.4635 -35.5 129420.1797 140655.2812)">
					<stop  offset="0" style="stop-color:#EDECEC"/>
					<stop  offset="1" style="stop-color:#686566"/>
				</linearGradient>
				<path id="path255" class="st8" d="M516,702.9c-0.2,0.4-1.6,3.1-2.9,5.5c-0.9,1.7-1.8,3.3-1.9,3.4c-0.2,0.3-0.6,1.1-1.6,1.1
					c-0.1,0-7.3,0-7.6,0c-0.2,0-0.4-0.1-0.6-0.2l4.8-4.2l10-11.3l0.2,5.1C516.3,702.3,516.2,702.4,516,702.9"/>
			</g>
		</g>
	</g>
	<g id="g257" transform="matrix(1.25, 0, 0, -1.25, -332.505, 1185.55)">
		<g id="g259">
			<g id="g265">
				
					<linearGradient id="path273_1_" gradientUnits="userSpaceOnUse" x1="674.2731" y1="983.8709" x2="675.8381" y2="983.8709" gradientTransform="matrix(-2.539728e-05 -418.463 -418.463 2.539728e-05 412230.125 282875.125)">
					<stop  offset="0" style="stop-color:#EDECEC"/>
					<stop  offset="1" style="stop-color:#686566"/>
				</linearGradient>
				<path id="path273" class="st9" d="M514,692.8c0.3-0.2,0.5-0.3,0.8-0.3c0.3,0,3,0,3.6,0c0.4,0,0.5,0.1,0.7,0.3l-2.3,4.1
					L514,692.8"/>
			</g>
		</g>
	</g>
	<g id="g275" transform="matrix(1.25, 0, 0, -1.25, -332.505, 1185.55)">
		<g id="g277">
			<g id="g283">
				
					<linearGradient id="path291_1_" gradientUnits="userSpaceOnUse" x1="674.2723" y1="983.8616" x2="675.8405" y2="983.8616" gradientTransform="matrix(-2.539728e-05 -418.9989 -418.9989 2.539728e-05 412765.5312 283236.0625)">
					<stop  offset="0" style="stop-color:#EDECEC"/>
					<stop  offset="1" style="stop-color:#686566"/>
				</linearGradient>
				<path id="path291" class="st10" d="M525.1,692.8c0.1-0.2,0.4-0.3,0.6-0.3c0.9,0,5.5,0,5.6,0c0.6,0.1,0.8,0.2,0.8,0.6l-3.9,4.1
					L525.1,692.8"/>
			</g>
		</g>
	</g>
	<g id="g293" transform="matrix(1.25, 0, 0, -1.25, -332.505, 1185.55)">
		<g id="g295">
			<g id="g301">
				
					<linearGradient id="path309_1_" gradientUnits="userSpaceOnUse" x1="674.2708" y1="983.8823" x2="675.8346" y2="983.8823" gradientTransform="matrix(-2.539728e-05 -419.926 -419.926 2.539728e-05 413662.1875 283860.625)">
					<stop  offset="0" style="stop-color:#EDECEC"/>
					<stop  offset="1" style="stop-color:#686566"/>
				</linearGradient>
				<path id="path309" class="st11" d="M500.9,692.9c0.1-0.2,0.3-0.4,0.6-0.4c0.7,0,5.4,0,5.8,0c0.5,0,0.6,0.2,0.7,0.5l-3.7,3.8
					L500.9,692.9"/>
			</g>
		</g>
	</g>
	<g id="g311" transform="matrix(1.25, 0, 0, -1.25, -332.505, 1185.55)">
		<g id="g313">
			<g id="g319">
				
					<linearGradient id="path327_1_" gradientUnits="userSpaceOnUse" x1="674.4586" y1="983.7422" x2="676.0283" y2="983.7422" gradientTransform="matrix(-2.539728e-05 -327.0963 -327.0963 2.539728e-05 322282.875 221326.0469)">
					<stop  offset="0" style="stop-color:#EDECEC"/>
					<stop  offset="1" style="stop-color:#686566"/>
				</linearGradient>
				<path id="path327" class="st12" d="M501.4,712.8c-0.1,0-0.2-0.1-0.3-0.2c-0.2-0.2-0.3-0.5-0.3-0.9c0-0.5,0-17.7,0-18.3
					c0-0.2,0-0.4,0.1-0.6l3.4,3.9l3.7-3.8v0c0,0.1,0,0.3,0,0.5c0.1,1.7,0,8.3,0,8.6c0,0.2,0,0.4,0.2,0.5l-1.9,6L501.4,712.8"/>
			</g>
		</g>
	</g>
	<g id="g329" transform="matrix(1.25, 0, 0, -1.25, -332.505, 1185.55)">
		<g id="g331">
			<g id="g337">
				
					<linearGradient id="path345_1_" gradientUnits="userSpaceOnUse" x1="672.0383" y1="982.1733" x2="673.5499" y2="982.1733" gradientTransform="matrix(-125.9779 -1.930193e-03 -1.930193e-03 125.9779 85141.5 -123029.0781)">
					<stop  offset="0" style="stop-color:#EDECEC"/>
					<stop  offset="1" style="stop-color:#686566"/>
				</linearGradient>
				<path id="path345" class="st13" d="M477.8,699.1c0,1.7,0,5.7,0,6.8l-7,3c-0.1-0.3-0.1-0.6-0.1-0.9c0-0.6-0.1-5.7,0-10.1
					c0-1.5,0.5-2.7,1.1-3.5l6,4.5C477.8,699,477.8,699.1,477.8,699.1"/>
			</g>
		</g>
	</g>
	<g id="g347" transform="matrix(1.25, 0, 0, -1.25, -332.505, 1185.55)">
		<g id="g349">
			<g id="g355">
				
					<linearGradient id="path363_1_" gradientUnits="userSpaceOnUse" x1="676.4945" y1="982.2084" x2="678.0645" y2="982.2084" gradientTransform="matrix(0 -95.2488 -95.2488 0 94052.1797 65148.0664)">
					<stop  offset="0" style="stop-color:#EDECEC"/>
					<stop  offset="1" style="stop-color:#686566"/>
				</linearGradient>
				<path id="path363" class="st14" d="M498.8,706.7c0.2,0.1,0.3,0.2,0.3,0.5c0,0,0,3.9,0,4.7c0,0.1,0,0.2-0.1,0.3l-2.2-2.8
					L498.8,706.7"/>
			</g>
		</g>
	</g>
	<g id="g365" transform="matrix(1.25, 0, 0, -1.25, -332.505, 1185.55)">
		<g id="g367">
			<g id="g373">
				
					<linearGradient id="path381_1_" gradientUnits="userSpaceOnUse" x1="676.3895" y1="982.3318" x2="677.9581" y2="982.3318" gradientTransform="matrix(0 -98.8294 -98.8294 0 97568.0781 67560.1953)">
					<stop  offset="0" style="stop-color:#EDECEC"/>
					<stop  offset="1" style="stop-color:#686566"/>
				</linearGradient>
				<path id="path381" class="st15" d="M477.7,706.1c0,0.2,0.1,0.6,0.6,0.6c1.3,0,19.9,0,20.2,0c0.1,0,0.2,0,0.2,0l-1.9,2.8l2.2,2.8
					c-0.2,0.5-0.7,0.5-1.3,0.6c-1.8,0-22.1-0.1-22.3-0.1c-3.1-0.2-4.4-2.3-4.7-3.8l7-3C477.7,706,477.7,706.1,477.7,706.1"/>
			</g>
		</g>
	</g>
	<g id="g383" transform="matrix(1.25, 0, 0, -1.25, -332.505, 1185.55)">
		<g id="g385">
			<g id="g391">
				
					<linearGradient id="path399_1_" gradientUnits="userSpaceOnUse" x1="675.1671" y1="983.2257" x2="676.736" y2="983.2257" gradientTransform="matrix(0 -178.7453 -178.7453 0 176242.4688 121388.75)">
					<stop  offset="0" style="stop-color:#EDECEC"/>
					<stop  offset="1" style="stop-color:#686566"/>
				</linearGradient>
				<path id="path399" class="st16" d="M498.9,705.4l-5.4-4.1l-1.6-1.9c0-0.2,0-0.4,0-0.5l6.2-4.2c0.9,1.5,0.9,3.3,0.9,3.6
					c0,0.7,0,5.9,0,6.5C499.1,705,499,705.2,498.9,705.4"/>
			</g>
		</g>
	</g>
	<g id="g401" transform="matrix(1.25, 0, 0, -1.25, -332.505, 1185.55)">
		<g id="g403">
			<g id="g409">
				
					<linearGradient id="path417_1_" gradientUnits="userSpaceOnUse" x1="675.7273" y1="982.8463" x2="677.2959" y2="982.8463" gradientTransform="matrix(0 -132.0986 -132.0986 0 130317.6172 89963.1172)">
					<stop  offset="0" style="stop-color:#EDECEC"/>
					<stop  offset="1" style="stop-color:#686566"/>
				</linearGradient>
				<path id="path417" class="st17" d="M492,698.8c0-0.2-0.1-0.2-0.3-0.2c0,0-13.3,0-13.6,0c-0.3,0-0.3,0.1-0.3,0.4l-6-4.5
					c1-1.4,2.6-1.9,3.8-1.9c2.4,0,14.2,0,18.7,0c2.1,0,3.2,1,3.9,2.1L492,698.8C492,698.8,492,698.8,492,698.8"/>
			</g>
		</g>
	</g>
	<g id="g419" transform="matrix(1.25, 0, 0, -1.25, -332.505, 1185.55)">
		<g id="g421">
			<g id="g427">
				
					<linearGradient id="path435_1_" gradientUnits="userSpaceOnUse" x1="676.1589" y1="982.4973" x2="677.7281" y2="982.4973" gradientTransform="matrix(0 -108.7984 -108.7984 0 107386.0312 74271.1797)">
					<stop  offset="0" style="stop-color:#EDECEC"/>
					<stop  offset="1" style="stop-color:#686566"/>
				</linearGradient>
				<path id="path435" class="st18" d="M498.3,705.6c-2,0.1-10.8,0.1-11.9,0c-0.7-0.1-1.5-0.6-1.5-1.5l2.4-0.9l-2.1-3
					c0.3-0.4,0.8-0.6,1.3-0.6c0,0,4.9,0,5,0c0.1,0,0.3,0,0.4-0.2c0,0,0-0.1,0-0.1l1.6,1.9l5.4,4.1
					C498.7,705.6,498.5,705.6,498.3,705.6"/>
			</g>
		</g>
	</g>
	<path id="path437" class="st19" d="M273.6,305.3C273.6,305.3,273.6,305.3,273.6,305.3c0,0.8-0.1,2.3,0.1,3.7c0,0.5,0.2,0.9,0.4,1.2
		l2.6-3.8L273.6,305.3"/>
	<g id="g439" transform="matrix(1.25, 0, 0, -1.25, -332.505, 1185.55)">
		<g id="g441">
			<g id="g447">
				
					<linearGradient id="path459_1_" gradientUnits="userSpaceOnUse" x1="674.2935" y1="983.8809" x2="675.8634" y2="983.8809" gradientTransform="matrix(-2.539728e-05 -407.7629 -407.7629 2.539728e-05 401674.9688 275664.7812)">
					<stop  offset="0" style="stop-color:#ED192D"/>
					<stop  offset="0.98" style="stop-color:#231F20"/>
					<stop  offset="0.98" style="stop-color:#231F20"/>
					<stop  offset="1" style="stop-color:#231F20"/>
				</linearGradient>
				<path id="path459" class="st20" d="M497.2,711.5c0.2,0,0.6,0.1,0.6-0.7c0-0.7,0-2.1,0-2.4c0-0.3-0.2-0.5-0.5-0.5
					c-0.3,0-19.3,0-19.3,0c-1,0-1.5-0.8-1.5-1.5c0-0.8,0-7.5,0.1-7.7c0-0.7,0.5-1.5,1.5-1.5c1.2,0,12.9,0,13.6,0
					c0.7,0,1.5,0.5,1.5,1.6c0,1.2,0,1.6,0,1.7c0,0.2,0,0.4-0.4,0.4c-0.4,0-5.7,0-6.1,0c-0.4,0-0.6,0.1-0.6,0.6c0,0.5,0,2,0,2.3
					c0,0.4,0.1,0.5,0.7,0.5c0.4,0,10.4,0,10.6,0c0.3,0,0.4,0,0.5-0.6c0-0.6,0-5.5,0-5.8c0-1.2-0.9-3.9-3.8-4c-3-0.1-18.1,0-18.3,0
					c-0.6,0-3.6,0.7-3.8,3.9c-0.1,1-0.1,9.2-0.1,9.7c0,0.8,0.8,4,3.9,4.1C478.6,711.5,496.7,711.5,497.2,711.5"/>
			</g>
		</g>
	</g>
	<path id="path461" class="st21" d="M289,296.2c0.2,0,0.7-0.1,0.8,0.8c0,0.9,0,2.6,0,3c0,0.4-0.2,0.6-0.7,0.6c-0.4,0-24.1,0-24.1,0
		c-1.3,0-1.9,1-1.9,1.9c0,1,0.1,9.4,0.1,9.6c0.1,0.9,0.6,1.8,1.9,1.9c1.4,0,16.2,0,17,0c0.9,0,1.8-0.6,1.9-2c0-1.5,0-2,0-2.2
		c0-0.2,0-0.5-0.5-0.5c-0.5,0-7.1,0-7.6,0s-0.7-0.2-0.7-0.8c0-0.6,0-2.6,0-2.9c0-0.4,0.1-0.6,0.8-0.6c0.5,0,13,0,13.3,0
		c0.3,0,0.5,0,0.6,0.8c0,0.8,0,6.9,0,7.3c0,1.5-1.1,4.9-4.8,5c-3.7,0.1-22.6,0.1-22.9,0.1c-0.7,0-4.4-0.9-4.8-4.9
		c-0.1-1.3-0.1-11.5-0.1-12.1c0-1,1-5,4.8-5.1C265.8,296.1,288.4,296.2,289,296.2z"/>
	<g id="g463" transform="matrix(1.25, 0, 0, -1.25, -332.505, 1185.55)">
		<g id="g465">
			<g id="g471">
				
					<linearGradient id="path483_1_" gradientUnits="userSpaceOnUse" x1="674.2936" y1="983.8348" x2="675.863" y2="983.8348" gradientTransform="matrix(-2.539728e-05 -407.7562 -407.7562 2.539728e-05 401712.3438 275660.1562)">
					<stop  offset="0" style="stop-color:#ED192D"/>
					<stop  offset="0.98" style="stop-color:#231F20"/>
					<stop  offset="0.98" style="stop-color:#231F20"/>
					<stop  offset="1" style="stop-color:#231F20"/>
				</linearGradient>
				<path id="path483" class="st22" d="M535.1,707.2c0,1.9,1.4,4.2,3.9,4.2c2.5,0.1,20,0,20.4,0c0.4,0,0.7-0.2,0.7-0.7
					c0-0.5,0-1.6,0-2.1c0-0.5-0.1-0.7-0.7-0.7c-0.6,0-17,0-18.1,0c-1.1,0-1.7-0.9-1.6-1.6c0-0.7,0-7.1,0.1-7.5
					c0.1-0.4,0.3-1.4,1.4-1.4c1.1,0,18,0,18.4,0c0.4,0,0.5-0.3,0.6-0.8c0-0.5,0-1.8,0-2.2c0-0.4-0.1-0.5-0.7-0.6
					c-0.6,0-18.3-0.1-20.5-0.1c-2.2,0.1-3.8,1.9-3.8,4.2C535.1,700.4,535.1,706,535.1,707.2"/>
			</g>
		</g>
	</g>
	<path id="path485" class="st21" d="M336.4,301.6c0-2.4,1.8-5.2,4.9-5.3c3.1-0.1,25,0,25.5,0c0.5,0,0.9,0.2,0.9,0.9c0,0.7,0,2,0,2.7
		c0,0.7-0.1,0.8-0.9,0.8c-0.8,0-21.3,0-22.7,0c-1.4,0-2.1,1.1-2.1,2c0,0.9,0.1,8.8,0.1,9.4c0.1,0.5,0.4,1.7,1.8,1.7
		c1.4,0,22.5,0,23,0c0.5,0,0.7,0.3,0.7,1c0,0.6,0,2.2,0,2.7c0,0.5-0.1,0.7-0.8,0.7c-0.7,0-22.9,0.2-25.6,0.1
		c-2.8-0.1-4.8-2.4-4.8-5.3C336.4,310.1,336.4,303.1,336.4,301.6z"/>
	<g id="g487" transform="matrix(1.25, 0, 0, -1.25, -332.505, 1185.55)">
		<g id="g489">
			<g id="g495">
				
					<linearGradient id="path507_1_" gradientUnits="userSpaceOnUse" x1="674.2944" y1="983.857" x2="675.866" y2="983.857" gradientTransform="matrix(-2.539728e-05 -407.3062 -407.3062 2.539728e-05 401247.4688 275357.0312)">
					<stop  offset="0" style="stop-color:#ED192D"/>
					<stop  offset="0.98" style="stop-color:#231F20"/>
					<stop  offset="0.98" style="stop-color:#231F20"/>
					<stop  offset="1" style="stop-color:#231F20"/>
				</linearGradient>
				<path id="path507" class="st23" d="M502,710.9c0,0.7,0.5,0.5,0.6,0.6c0.1,0,6.6,0,6.9,0c0.2,0,0.3-0.2,0.6-0.6
					c0.2-0.4,5.8-10.7,6-11c0.2-0.3,0.4-0.6,0.7-0.1c0.3,0.5,6,11.1,6.2,11.3c0.2,0.3,0.3,0.3,0.6,0.3c0.3,0,6.9,0,6.9,0
					c0.3,0,0.5-0.2,0.5-0.7c0-0.4,0-16.4,0-16.4c0-0.3-0.1-0.5-0.5-0.5c-0.4,0-3.8,0-3.8,0c-0.2,0-0.4,0-0.4,0.7c0,0.7,0,13,0,13
					s-0.1,0.5-0.3,0c-0.3-0.5-4.5-8.7-7.4-13.6c-0.1-0.1-0.1-0.2-0.4-0.2c-0.4,0-3.2,0-3.2,0c-0.1,0-0.2,0-0.4,0.3
					c-0.2,0.3-7.2,13.3-7.4,13.6c-0.2,0.3-0.4,0.2-0.4-0.1c0-1.6,0-12.9,0-13.1c0-0.3,0-0.5-0.5-0.6c-0.5,0-3.7,0-4,0
					c-0.2,0.1-0.2,0.2-0.2,0.5C502,694.5,502,710.1,502,710.9"/>
			</g>
		</g>
	</g>
	<path id="path509" class="st21" d="M295,297c0-0.9,0.6-0.7,0.8-0.7c0.2,0,8.3,0,8.6,0c0.3,0,0.4,0.2,0.7,0.8
		c0.3,0.5,7.3,13.4,7.4,13.7c0.2,0.4,0.5,0.7,0.9,0.1c0.3-0.6,7.6-13.9,7.8-14.2c0.2-0.3,0.4-0.3,0.8-0.4c0.3,0,8.6,0,8.6,0
		c0.4,0,0.6,0.3,0.6,0.8c0,0.6,0,20.5,0,20.5c0,0.3-0.1,0.7-0.6,0.7c-0.5,0-4.8,0-4.8,0c-0.3,0-0.5,0-0.5-0.9c0-0.9,0-16.2,0-16.2
		s-0.1-0.6-0.4,0c-0.3,0.6-5.6,10.9-9.3,16.9c-0.1,0.1-0.2,0.2-0.5,0.2c-0.5,0-4.1,0-4.1,0c-0.2,0-0.3,0-0.5-0.3
		c-0.2-0.4-9-16.6-9.2-16.9c-0.2-0.3-0.5-0.2-0.5,0.2c0,2,0,16.1,0,16.4c0,0.3,0,0.7-0.6,0.7c-0.6,0-4.7,0-5-0.1
		c-0.3-0.1-0.3-0.3-0.3-0.6C295,317.4,295,297.9,295,297z"/>
	<path id="path583" class="st24" d="M258.4,299.3c0.5-1.4,2.1-2.3,3.5-2.5h27c0.2,0,0.2,0.1,0.3,0.6c-0.1-0.3-0.1-0.3-0.3-0.3h-27
		C261,297.1,259.5,297.6,258.4,299.3"/>
	<path id="path585" class="st24" d="M354.7,297.2h-13.6c-0.8,0-2.2,0.4-3.5,2.1c0.6-1.4,2.1-2.3,3.5-2.4h25.4c0.3,0,0.4,0,0.5,0.5
		c-0.2-0.2-0.2-0.3-0.5-0.3H354.7"/>
	<path id="path587" class="st25" d="M341.1,297.2c-0.8,0-2.2,0.4-3.5,2.1c0.6-1.4,2.1-2.3,3.5-2.4h25.4c0.3,0,0.4,0,0.5,0.5
		c-0.2-0.2-0.2-0.2-0.5-0.2L341.1,297.2"/>
	<path id="path589" class="st26" d="M341.1,297.2c-0.7,0-2.2,0.4-3.5,2.1c0.6-1.4,2.1-2.3,3.5-2.4h25.4c0.3,0,0.4,0,0.5,0.5
		c-0.2-0.2-0.2-0.2-0.5-0.2L341.1,297.2"/>
	<path id="path591" class="st27" d="M341.1,297.2c-0.7,0-2.2,0.4-3.5,2.1c0.6-1.3,2.1-2.3,3.5-2.4h25.4c0.3,0,0.4,0,0.5,0.5
		c-0.2-0.2-0.2-0.2-0.5-0.2L341.1,297.2"/>
	<path id="path593" class="st28" d="M341.1,297.3c-0.7,0-2.2,0.3-3.5,2.1c0.7-1.3,2.1-2.2,3.5-2.4h25.4c0.2,0,0.4,0,0.5,0.5
		c-0.2-0.2-0.2-0.2-0.5-0.2L341.1,297.3"/>
	<path id="path595" class="st29" d="M341.1,297.3c-0.7,0-2.2,0.3-3.5,2.1c0.7-1.3,2.1-2.2,3.5-2.3h25.4c0.2,0,0.4,0,0.5,0.5
		c-0.2-0.2-0.2-0.2-0.5-0.2H341.1"/>
	<path id="path597" class="st30" d="M341.1,297.3c-0.6,0-2.2,0.3-3.5,2c0.7-1.3,2.1-2.2,3.5-2.3h25.4c0.2,0,0.5,0,0.5,0.5
		c-0.2-0.2-0.3-0.2-0.5-0.2H341.1"/>
	<path id="path599" class="st31" d="M341.1,297.4c-0.6,0-2.2,0.3-3.5,2c0.7-1.3,2.1-2.2,3.5-2.3h25.4c0.2,0,0.5,0,0.5,0.5
		c-0.2-0.2-0.3-0.2-0.5-0.2L341.1,297.4"/>
	<path id="path601" class="st32" d="M341.1,297.4c-0.6,0-2.2,0.3-3.5,2c0.7-1.3,2.1-2.2,3.5-2.3h25.4c0.2,0,0.5,0,0.5,0.5
		c-0.2-0.2-0.3-0.2-0.5-0.2L341.1,297.4"/>
	<path id="path603" class="st33" d="M341.1,297.4c-0.6,0-2.2,0.3-3.5,2c0.7-1.3,2.1-2.1,3.5-2.3h25.4c0.2,0,0.5,0.1,0.5,0.5
		c-0.2-0.2-0.3-0.2-0.5-0.2H341.1"/>
	<path id="path605" class="st34" d="M341.1,297.5c-0.6,0-2.2,0.2-3.5,2c0.7-1.3,2.1-2.1,3.5-2.3h25.4c0.2,0,0.5,0.1,0.5,0.5
		c-0.2-0.2-0.3-0.2-0.5-0.2L341.1,297.5"/>
	<path id="path607" class="st35" d="M341.1,297.5c-0.5,0-2.2,0.2-3.6,2c0.7-1.3,2.1-2.1,3.5-2.2h25.4c0.2,0,0.5,0.1,0.5,0.5
		c-0.2-0.2-0.3-0.2-0.5-0.2H341.1"/>
	<path id="path609" class="st36" d="M341.1,297.5c-0.5,0-2.2,0.2-3.6,1.9c0.7-1.3,2.1-2.1,3.5-2.2h25.4c0.2,0,0.5,0.1,0.5,0.5
		c-0.2-0.2-0.3-0.2-0.5-0.2H341.1"/>
	<path id="path611" class="st37" d="M341.1,297.6c-0.5,0-2.2,0.2-3.6,1.9c0.7-1.2,2.1-2.1,3.5-2.2h25.4c0.2,0,0.5,0.1,0.5,0.5
		c-0.2-0.2-0.3-0.2-0.5-0.2H341.1"/>
	<path id="path613" class="st38" d="M341.1,297.6c-0.5,0-2.2,0.2-3.6,1.9c0.7-1.2,2.1-2.1,3.5-2.2h25.4c0.2,0,0.5,0.1,0.5,0.5
		c-0.2-0.2-0.3-0.2-0.5-0.2L341.1,297.6"/>
	<path id="path615" class="st39" d="M341.1,297.6c-0.4,0-2.2,0.1-3.6,1.9c0.7-1.2,2.2-2,3.5-2.2h25.4c0.2,0,0.5,0.1,0.5,0.5
		c-0.2-0.2-0.3-0.2-0.5-0.2L341.1,297.6"/>
	<path id="path617" class="st24" d="M300.6,297.2c-2.1,0-4.4,0-4.4,0c-0.5-0.1-0.6,0.7-0.6,0.7c0-0.8,0.1-1.1,0.5-1.1l7.9,0
		c0.3,0,0.4,0.3,0.5,0.6c-0.2-0.1-0.2-0.2-0.5-0.2C304,297.2,302.3,297.2,300.6,297.2"/>
	<path id="path619" class="st40" d="M330.6,299.5c0-0.5-0.4-0.6-0.9-0.6l-9.2,0.4c-0.1,0,0,0.1-0.3,0.5c0.2-0.1,0.5-0.3,0.8-0.3
		c0,0,8.9-0.4,8.9-0.4C330.2,299.2,330.6,299.5,330.6,299.5"/>
	<path id="path621" class="st24" d="M325.6,297.3c2.1,0,4.4,0,4.4,0c0.4,0,0.6,0.7,0.6,0.7c0-1-0.1-1.1-0.5-1.1l-8,0
		c-0.3,0-0.4,0.2-0.5,0.6c0.2-0.1,0.5-0.2,0.7-0.2C322.4,297.3,323.9,297.3,325.6,297.3"/>
	<path id="path623" class="st41" d="M320.1,299.8c0.2-0.1,0.5-0.3,0.8-0.3c0,0,1.6-0.1,3.4-0.1c2.2-0.1,4.9-0.2,5.4-0.2
		c0.1,0,0.1,0,0.1,0c0.4,0,0.8,0.3,0.8,0.3c0-0.5-0.4-0.6-0.9-0.6c0,0,0,0,0,0l-9.2,0.4l0,0C320.4,299.3,320.4,299.4,320.1,299.8"/>
	<path id="path625" class="st42" d="M320.2,299.7c0.2-0.1,0.5-0.3,0.8-0.3c0,0,1.6-0.1,3.4-0.1c2.2-0.1,4.9-0.2,5.3-0.2
		c0.1,0,0.1,0,0.1,0c0.3,0,0.8,0.3,0.8,0.3c0-0.6-0.4-0.6-0.9-0.6c0,0,0,0,0,0l-9.1,0.3c0,0,0,0,0,0
		C320.5,299.2,320.5,299.3,320.2,299.7"/>
	<path id="path627" class="st43" d="M320.2,299.7c0.2-0.1,0.5-0.3,0.8-0.3c0,0,1.6-0.1,3.4-0.1c2.2-0.1,4.8-0.2,5.3-0.2
		c0.1,0,0.1,0,0.1,0c0.4,0,0.8,0.3,0.8,0.3c0-0.6-0.4-0.6-0.9-0.6c0,0,0,0,0,0l-9.1,0.3c0,0,0,0,0,0
		C320.5,299.1,320.5,299.2,320.2,299.7"/>
	<path id="path629" class="st44" d="M320.3,299.6c0.2-0.1,0.5-0.2,0.8-0.2c0,0,1.6-0.1,3.4-0.1c2.2-0.1,4.8-0.2,5.3-0.2
		c0.1,0,0.1,0,0.1,0c0.4,0,0.8,0.3,0.8,0.3c0-0.6-0.3-0.6-0.8-0.6c0,0,0,0,0,0l-9.1,0.3c0,0,0,0,0,0
		C320.5,299.1,320.5,299.2,320.3,299.6"/>
	<path id="path631" class="st45" d="M320.3,299.5c0.2-0.1,0.5-0.2,0.8-0.2c0,0,1.6-0.1,3.4-0.1c2.2-0.1,4.8-0.2,5.2-0.2
		c0.1,0,0.1,0,0.1,0c0.4,0,0.7,0.4,0.7,0.4c0-0.6-0.3-0.6-0.8-0.6c0,0,0,0,0,0l-9,0.3c0,0,0,0,0,0
		C320.6,299,320.6,299.1,320.3,299.5"/>
	<path id="path633" class="st46" d="M320.3,299.5c0.2-0.1,0.5-0.2,0.8-0.2c0,0,1.6-0.1,3.4-0.1c2.2-0.1,4.8-0.2,5.2-0.2
		c0,0,0.1,0,0.1,0c0.3,0,0.7,0.4,0.7,0.4c0-0.6-0.3-0.7-0.8-0.7c0,0,0,0,0,0l-9,0.3c0,0,0,0,0,0C320.6,298.9,320.6,299,320.3,299.5"
		/>
	<path id="path635" class="st47" d="M320.4,299.4c0.2-0.1,0.5-0.2,0.8-0.2c0,0,1.6,0,3.4-0.1c2.2-0.1,4.8-0.2,5.2-0.2
		c0,0,0.1,0,0.1,0c0.3,0,0.7,0.4,0.7,0.4c0-0.6-0.3-0.7-0.8-0.7c0,0,0,0,0,0l-9,0.3c0,0,0,0,0,0C320.7,298.9,320.6,299,320.4,299.4"
		/>
	<path id="path637" class="st48" d="M320.4,299.3c0.2-0.1,0.5-0.2,0.8-0.2c0,0,1.6-0.1,3.4-0.1c2.2-0.1,4.8-0.2,5.1-0.2
		c0,0,0.1,0,0.1,0c0.3,0,0.7,0.4,0.7,0.4c0-0.6-0.3-0.7-0.8-0.7c0,0,0,0,0,0l-8.9,0.3c0,0,0,0,0,0
		C320.7,298.8,320.7,298.9,320.4,299.3"/>
	<path id="path639" class="st49" d="M320.5,299.3c0.2-0.1,0.5-0.2,0.8-0.2c0,0,1.6,0,3.4-0.1c2.2-0.1,4.7-0.1,5.1-0.2
		c0,0,0.1,0,0.1,0c0.3,0,0.7,0.4,0.7,0.4c0-0.6-0.3-0.7-0.7-0.7c0,0,0,0,0,0l-8.9,0.3c0,0,0,0,0,0
		C320.7,298.7,320.7,298.8,320.5,299.3"/>
	<path id="path641" class="st50" d="M320.5,299.2c0.2-0.1,0.5-0.2,0.8-0.2c0,0,1.6,0,3.4-0.1c2.2-0.1,4.7-0.1,5.1-0.2
		c0,0,0.1,0,0.1,0c0.3,0,0.7,0.4,0.7,0.4c0-0.6-0.3-0.7-0.7-0.7c0,0,0,0-0.1,0l-8.8,0.2c0,0,0,0,0,0
		C320.8,298.7,320.7,298.8,320.5,299.2"/>
	<path id="path643" class="st51" d="M320.5,299.1c0.2-0.1,0.5-0.2,0.8-0.2c0,0,1.6,0,3.4-0.1c2.2-0.1,4.7-0.1,5-0.1c0,0,0.1,0,0.1,0
		c0.3,0,0.7,0.4,0.7,0.4c0-0.7-0.3-0.7-0.7-0.7c0,0,0,0-0.1,0l-8.8,0.2c0,0,0,0,0,0C320.8,298.6,320.8,298.7,320.5,299.1"/>
	<path id="path645" class="st51" d="M320.6,299c0.2-0.1,0.5-0.2,0.8-0.2c0,0,1.6,0,3.4-0.1c2.2-0.1,4.7-0.1,5-0.1c0,0,0.1,0,0.1,0
		c0.3,0,0.7,0.4,0.7,0.4c0-0.7-0.3-0.7-0.7-0.8c0,0,0,0-0.1,0l-8.8,0.2c0,0,0,0,0,0C320.9,298.5,320.8,298.6,320.6,299"/>
	<path id="path647" class="st52" d="M320.6,299c0.2-0.1,0.5-0.2,0.8-0.2c0.1,0,1.6,0,3.4-0.1c2.2-0.1,4.7-0.1,5-0.1c0,0,0.1,0,0.1,0
		c0.3,0,0.7,0.5,0.7,0.5c0-0.7-0.3-0.8-0.7-0.8c0,0,0,0-0.1,0l-8.7,0.2c0,0,0,0,0,0C320.9,298.4,320.8,298.6,320.6,299"/>
	<path id="path649" class="st53" d="M320.7,298.9c0.2-0.1,0.5-0.2,0.8-0.2c0.1,0,1.6,0,3.4-0.1c2.2,0,4.7-0.1,4.9-0.1
		c0,0,0.1,0,0.1,0c0.3,0,0.6,0.5,0.6,0.5c0-0.7-0.2-0.8-0.6-0.8c0,0,0,0-0.1,0l-8.7,0.2c0,0,0,0,0,0
		C320.9,298.4,320.9,298.5,320.7,298.9"/>
	<path id="path651" class="st54" d="M320.7,298.8c0.2-0.1,0.5-0.2,0.8-0.2c0.1,0,1.7,0,3.4-0.1c2.2-0.1,4.7-0.1,4.9-0.1
		c0,0,0.1,0,0.1,0c0.3,0,0.6,0.5,0.6,0.5c0-0.7-0.2-0.8-0.6-0.8c0,0,0,0-0.1,0l-8.7,0.2c0,0,0,0,0,0
		C321,298.3,320.9,298.5,320.7,298.8"/>
	<path id="path653" class="st55" d="M320.7,298.8c0.2-0.1,0.6-0.2,0.8-0.2c0.1,0,1.7,0,3.4-0.1c2.2,0,4.6-0.1,4.9-0.1
		c0,0,0.1,0,0.1,0c0.3,0.1,0.6,0.5,0.6,0.5c0-0.7-0.2-0.8-0.6-0.8c0,0-0.1,0-0.1,0l-8.6,0.2c0,0,0,0,0,0
		C321,298.2,320.9,298.4,320.7,298.8"/>
	<path id="path655" class="st56" d="M320.8,298.7c0.2-0.1,0.6-0.2,0.8-0.2c0.1,0,1.7,0,3.4-0.1c2.2,0,4.6-0.1,4.8-0.1
		c0,0,0.1,0,0.1,0c0.3,0.1,0.6,0.5,0.6,0.5c0-0.7-0.2-0.8-0.6-0.8c0,0-0.1,0-0.1,0l-8.6,0.2c0,0,0,0,0,0
		C321.1,298.2,321,298.3,320.8,298.7"/>
	<path id="path657" class="st57" d="M320.8,298.6c0.2-0.1,0.6-0.2,0.8-0.2c0.1,0,1.7,0,3.4-0.1c2.2,0,4.6-0.1,4.8-0.1
		c0,0,0.1,0,0.1,0c0.3,0.1,0.6,0.5,0.6,0.5c0-0.7-0.2-0.8-0.6-0.9c0,0-0.1,0-0.1,0l-8.6,0.1c0,0,0,0,0,0
		C321.1,298.1,321,298.3,320.8,298.6"/>
	<path id="path659" class="st57" d="M320.9,298.6c0.2-0.1,0.6-0.2,0.8-0.2c0.1,0,1.7,0,3.4-0.1c2.1,0,4.6-0.1,4.8-0.1
		c0,0,0.1,0,0.1,0c0.3,0.1,0.6,0.5,0.6,0.5c0-0.7-0.2-0.9-0.5-0.9c0,0-0.1,0-0.1,0l-8.5,0.1c0,0,0,0,0,0
		C321.1,298,321,298.2,320.9,298.6"/>
	<path id="path661" class="st38" d="M320.9,298.5c0.2-0.1,0.6-0.2,0.8-0.2c0.1,0,1.7,0,3.4,0c2.1,0,4.6-0.1,4.7-0.1c0,0,0.1,0,0.1,0
		c0.3,0.1,0.6,0.6,0.6,0.6c0-0.7-0.2-0.9-0.5-0.9c0,0-0.1,0-0.1,0l-8.5,0.1c0,0,0,0,0,0C321.2,298,321.1,298.1,320.9,298.5"/>
	<path id="path663" class="st58" d="M320.9,298.4c0.2-0.1,0.6-0.2,0.8-0.2c0.1,0,1.7,0,3.4,0c2.1,0,4.6-0.1,4.7-0.1c0,0,0.1,0,0.1,0
		c0.3,0.1,0.6,0.6,0.6,0.6c0-0.8-0.2-0.9-0.5-0.9c0,0-0.1,0-0.1,0l-8.5,0.1c0,0,0,0,0,0C321.2,297.9,321.1,298.1,320.9,298.4"/>
	<path id="path665" class="st59" d="M321,298.3c0.2-0.1,0.6-0.2,0.8-0.2c0.1,0,1.7,0,3.4,0c2.1,0,4.5-0.1,4.7-0.1c0,0,0.1,0,0.1,0
		c0.3,0.1,0.6,0.6,0.6,0.6c0-0.8-0.2-0.9-0.5-0.9c0,0-0.1,0-0.1,0l-8.4,0.1c0,0,0,0,0,0C321.3,297.8,321.1,298,321,298.3"/>
	<path id="path667" class="st60" d="M321,298.3c0.2-0.1,0.6-0.2,0.8-0.2c0.1,0,1.7,0,3.4,0c2.1,0,4.5,0,4.6-0.1c0,0,0.1,0,0.1,0
		c0.3,0.1,0.5,0.6,0.5,0.6c0-0.8-0.2-0.9-0.5-0.9c0,0-0.1,0-0.1,0l-8.4,0.1c0,0,0,0,0,0C321.3,297.7,321.2,297.9,321,298.3"/>
	<path id="path669" class="st61" d="M321.1,298.2c0.2-0.1,0.6-0.2,0.8-0.2c0.1,0,1.7,0,3.4,0c2.1,0,4.5,0,4.6,0c0,0,0.1,0,0.1,0
		c0.3,0.1,0.5,0.6,0.5,0.6c0-0.8-0.2-0.9-0.4-1c0,0-0.1,0-0.1,0l-8.4,0.1c0,0,0,0,0,0C321.3,297.7,321.2,297.9,321.1,298.2"/>
	<path id="path671" class="st62" d="M321.1,298.1c0.2-0.1,0.6-0.2,0.8-0.2c0.1,0,1.7,0,3.4,0c2.1,0,4.5,0,4.6,0c0,0,0.1,0,0.1,0
		c0.3,0.1,0.5,0.6,0.5,0.6c0-0.8-0.1-1-0.4-1c0,0-0.1,0-0.1,0l-8.3,0.1c0,0,0,0,0,0C321.4,297.6,321.2,297.8,321.1,298.1"/>
	<path id="path673" class="st63" d="M321.1,298.1c0.2-0.1,0.6-0.2,0.8-0.2c0.1,0,1.7,0,3.4,0c2.1,0,4.5,0,4.5,0c0,0,0.1,0,0.1,0
		c0.3,0.1,0.5,0.7,0.5,0.7c0-0.8-0.1-1-0.4-1c0,0-0.1,0-0.1,0l-8.3,0c0,0,0,0,0,0C321.4,297.5,321.3,297.7,321.1,298.1"/>
	<path id="path675" class="st63" d="M321.2,298c0.2-0.1,0.6-0.2,0.8-0.2c0.1,0,1.7,0,3.4,0c2.1,0,4.5,0,4.5,0c0,0,0.1,0,0.1,0
		c0.3,0.1,0.5,0.7,0.5,0.7c0-0.8-0.1-1-0.4-1c0,0-0.1,0-0.1,0l-8.3,0c0,0,0,0,0,0C321.5,297.5,321.3,297.7,321.2,298"/>
	<path id="path677" class="st64" d="M321.2,297.9c0.2-0.1,0.6-0.2,0.8-0.2c0.1,0,1.7,0,3.4,0c2.1,0,4.4,0,4.5,0c0,0,0.1,0,0.1,0
		c0.3,0.1,0.5,0.7,0.5,0.7c0-0.8-0.1-1-0.4-1c0,0-0.1,0-0.1,0l-8.2,0c0,0,0,0,0,0C321.5,297.4,321.3,297.6,321.2,297.9"/>
	<path id="path679" class="st65" d="M325.6,297.3c2.1,0,4.4,0,4.4,0c0.4,0,0.6,0.7,0.6,0.7c0-1-0.1-1.1-0.5-1.1l-8,0
		c-0.3,0-0.4,0.2-0.5,0.6c0.2-0.1,0.5-0.2,0.7-0.2C322.4,297.3,323.9,297.3,325.6,297.3"/>
	<path id="path681" class="st66" d="M325.6,297.3c2.1,0,4.4,0,4.4,0c0.4,0,0.6,0.7,0.6,0.7c0-1-0.1-1.1-0.5-1.1l-8,0
		c-0.3,0-0.4,0.2-0.5,0.6c0.2-0.1,0.5-0.2,0.7-0.2C322.4,297.3,323.9,297.3,325.6,297.3"/>
	<path id="path683" class="st67" d="M325.6,297.3c2.1,0,4.4,0,4.4,0c0.4,0,0.6,0.7,0.6,0.7c0-1-0.1-1.1-0.5-1.1l-8,0
		c-0.3,0-0.4,0.2-0.5,0.6c0.2-0.1,0.5-0.2,0.7-0.2C322.4,297.3,323.9,297.3,325.6,297.3"/>
	<path id="path685" class="st68" d="M325.6,297.4c2.1,0,4.4,0,4.4,0c0.4,0,0.6,0.7,0.6,0.7c0-1-0.1-1.1-0.5-1.1l-8,0
		c-0.3,0-0.4,0.2-0.5,0.6c0.2-0.1,0.5-0.2,0.7-0.2C322.4,297.4,323.9,297.4,325.6,297.4"/>
	<path id="path687" class="st69" d="M325.6,297.4c2.1,0,4.4,0,4.4,0c0.4,0,0.6,0.7,0.6,0.7c0-1-0.1-1.1-0.5-1.1l-8.1,0
		c-0.3,0-0.4,0.2-0.5,0.6c0.2-0.1,0.5-0.2,0.7-0.2C322.3,297.4,323.9,297.4,325.6,297.4"/>
	<path id="path689" class="st70" d="M325.6,297.4c2.1,0,4.4,0,4.4,0c0.4,0,0.6,0.7,0.6,0.7c0-1-0.1-1.1-0.5-1.1l-8.1,0
		c-0.3,0-0.4,0.2-0.5,0.6c0.2-0.1,0.5-0.2,0.7-0.2C322.3,297.4,323.9,297.4,325.6,297.4"/>
	<path id="path691" class="st71" d="M325.6,297.4c2.1,0,4.4,0,4.4,0c0.4,0,0.6,0.7,0.6,0.7c0-1-0.1-1.1-0.5-1.1l-8.1,0
		c-0.3,0-0.4,0.2-0.5,0.6c0.2-0.1,0.5-0.2,0.7-0.2C322.3,297.4,323.9,297.4,325.6,297.4"/>
	<path id="path693" class="st72" d="M325.6,297.5c2.1,0,4.4,0,4.4,0c0.4,0,0.6,0.7,0.6,0.7c0-1-0.1-1.1-0.5-1.1l-8.1,0
		c-0.3,0-0.4,0.2-0.5,0.6c0.2-0.1,0.5-0.2,0.7-0.2C322.3,297.5,323.9,297.5,325.6,297.5"/>
	<path id="path695" class="st73" d="M325.6,297.5c2.1,0,4.4,0,4.4,0c0.4,0,0.6,0.7,0.6,0.7c0-1-0.1-1.1-0.5-1.1l-8.1,0
		c-0.3,0-0.4,0.2-0.5,0.6c0.2-0.1,0.5-0.2,0.7-0.2C322.3,297.5,323.9,297.5,325.6,297.5"/>
	<path id="path697" class="st74" d="M325.6,297.5c2.1,0,4.4,0,4.4,0c0.4,0,0.6,0.7,0.6,0.7c0-1-0.1-1.1-0.5-1.1l-8.1,0
		c-0.3,0-0.4,0.2-0.5,0.6c0.2-0.1,0.5-0.2,0.7-0.2C322.3,297.5,323.9,297.5,325.6,297.5"/>
	<path id="path699" class="st33" d="M325.6,297.5c2.1,0,4.4,0,4.4,0c0.4,0,0.6,0.7,0.6,0.7c0-1-0.1-1.1-0.5-1.1l-8.1,0
		c-0.3,0-0.4,0.2-0.5,0.6c0.2-0.1,0.5-0.2,0.7-0.2C322.3,297.5,323.9,297.5,325.6,297.5"/>
	<path id="path701" class="st75" d="M325.6,297.6c2.1,0,4.4,0,4.4,0c0.4,0,0.6,0.7,0.6,0.7c0-1-0.1-1.1-0.5-1.1l-8.1,0
		c-0.3,0-0.4,0.2-0.5,0.6c0.2-0.1,0.5-0.2,0.7-0.2C322.3,297.6,323.8,297.6,325.6,297.6"/>
	<path id="path703" class="st76" d="M325.5,297.6c2.1,0,4.4,0,4.4,0c0.4,0,0.6,0.7,0.6,0.7c0-1-0.1-1.1-0.5-1.1l-8.2,0
		c-0.3,0-0.4,0.2-0.5,0.6c0.2-0.1,0.5-0.2,0.7-0.2C322.3,297.6,323.8,297.6,325.5,297.6"/>
	<path id="path705" class="st77" d="M325.5,297.6c2.1,0,4.4,0,4.4,0c0.4,0,0.6,0.7,0.6,0.7c0-1-0.1-1.1-0.5-1.1l-8.2,0
		c-0.3,0-0.4,0.2-0.5,0.6c0.2-0.1,0.5-0.2,0.7-0.2C322.2,297.6,323.8,297.6,325.5,297.6"/>
	<path id="path707" class="st78" d="M325.5,297.6c2.1,0,4.4,0,4.4,0c0.4,0,0.6,0.7,0.6,0.7c0-1-0.1-1.1-0.5-1.1l-8.2,0
		c-0.3,0-0.4,0.2-0.5,0.6c0.2-0.1,0.5-0.2,0.7-0.2C322.2,297.6,323.8,297.6,325.5,297.6"/>
	<path id="path709" class="st79" d="M325.5,297.7c2.1,0,4.4,0,4.4,0c0.4,0,0.6,0.7,0.6,0.7c0-1-0.1-1.1-0.5-1.1l-8.2,0
		c-0.3,0-0.5,0.2-0.6,0.6c0.2-0.1,0.6-0.2,0.8-0.2C322.2,297.7,323.8,297.7,325.5,297.7"/>
	<path id="path711" class="st80" d="M261.8,296.9h27c0.2,0,0.2,0.1,0.3,0.6c-0.1-0.2-0.1-0.3-0.3-0.3h-26.9c-0.8,0-2.4,0.4-3.5,2.1
		C258.9,298,260.5,297,261.8,296.9"/>
	<path id="path713" class="st81" d="M261.8,296.9h27c0.2,0,0.2,0.1,0.3,0.6c-0.1-0.2-0.1-0.3-0.3-0.3h-26.9c-0.8,0-2.4,0.4-3.5,2.1
		C258.9,298,260.5,297.1,261.8,296.9"/>
	<path id="path715" class="st82" d="M261.8,297h26.9c0.2,0,0.3,0.1,0.3,0.6c-0.1-0.2-0.1-0.3-0.3-0.3h-26.9c-0.7,0-2.3,0.3-3.5,2.1
		C258.9,298,260.5,297.1,261.8,297"/>
	<path id="path717" class="st83" d="M261.8,297h26.9c0.2,0,0.3,0.1,0.4,0.6c-0.1-0.2-0.2-0.3-0.4-0.3h-26.9c-0.7,0-2.3,0.3-3.5,2.1
		C258.9,298,260.5,297.2,261.8,297"/>
	<path id="path719" class="st84" d="M261.8,297.1h26.9c0.2,0,0.3,0,0.4,0.5c-0.1-0.2-0.2-0.3-0.4-0.3h-26.9c-0.7,0-2.3,0.3-3.5,2
		C258.9,298.1,260.5,297.2,261.8,297.1"/>
	<path id="path721" class="st85" d="M261.8,297.1h26.9c0.2,0,0.4,0,0.4,0.5c-0.1-0.2-0.2-0.3-0.4-0.3h-26.9c-0.6,0-2.3,0.3-3.5,2
		C258.9,298.1,260.5,297.2,261.8,297.1"/>
	<path id="path723" class="st86" d="M261.8,297.2h26.9c0.2,0,0.4,0,0.4,0.5c-0.1-0.2-0.2-0.3-0.4-0.3h-26.8c-0.6,0-2.3,0.2-3.5,2
		C258.9,298.1,260.4,297.3,261.8,297.2"/>
	<path id="path725" class="st87" d="M261.8,297.2h26.9c0.2,0,0.4,0,0.4,0.5c-0.2-0.2-0.2-0.3-0.4-0.3h-26.8c-0.6,0-2.3,0.2-3.6,2
		C258.9,298.2,260.4,297.3,261.8,297.2"/>
	<path id="path727" class="st88" d="M261.8,297.2h26.8c0.2,0,0.4,0,0.4,0.5c-0.2-0.2-0.3-0.2-0.4-0.2h-26.8c-0.5,0-2.3,0.2-3.6,1.9
		C259,298.2,260.4,297.4,261.8,297.2"/>
	<path id="path729" class="st89" d="M261.8,297.3h26.8c0.2,0,0.5,0,0.5,0.5c-0.2-0.2-0.3-0.2-0.5-0.2h-26.8c-0.5,0-2.3,0.2-3.6,1.9
		C259,298.2,260.4,297.4,261.8,297.3"/>
	<path id="path731" class="st90" d="M261.8,297.3h26.8c0.2,0,0.5-0.1,0.5,0.5c-0.2-0.2-0.3-0.2-0.5-0.2h-26.8
		c-0.5,0-2.3,0.1-3.6,1.9C259,298.2,260.4,297.4,261.8,297.3"/>
	<path id="path733" class="st75" d="M261.8,297.4h26.8c0.2,0,0.5-0.1,0.5,0.5c-0.2-0.2-0.3-0.2-0.5-0.2h-26.8
		c-0.4,0-2.3,0.1-3.6,1.8C259,298.3,260.4,297.5,261.8,297.4"/>
	<path id="path735" class="st34" d="M261.8,297.4l26.8,0c0.2,0,0.5-0.1,0.5,0.5c-0.2-0.2-0.3-0.2-0.5-0.2l-26.8,0c0,0,0,0,0,0
		c-0.4,0-2.3,0.1-3.6,1.8C259,298.3,260.4,297.5,261.8,297.4"/>
	<path id="path737" class="st91" d="M261.8,297.5l26.8-0.1c0.2,0,0.5-0.1,0.5,0.5c-0.2-0.2-0.3-0.2-0.5-0.2l-26.8,0.1c0,0,0,0,0,0
		c-0.4,0-2.3,0.1-3.6,1.8C258.9,298.4,260.4,297.6,261.8,297.5"/>
	<path id="path739" class="st75" d="M261.8,297.6l26.8-0.1c0.2,0,0.5-0.1,0.5,0.5c-0.2-0.2-0.3-0.2-0.5-0.2l-26.8,0.1c0,0,0,0,0,0
		c-0.4,0-2.3,0.1-3.6,1.8C258.9,298.4,260.4,297.7,261.8,297.6"/>
	<path id="path741" class="st92" d="M261.8,297.6l26.8-0.1c0.2,0,0.5-0.1,0.5,0.5c-0.2-0.2-0.3-0.2-0.5-0.2l-26.8,0.1c0,0,0,0,0,0
		c-0.4,0-2.3,0.1-3.6,1.7C258.9,298.5,260.4,297.7,261.8,297.6"/>
	<path id="path743" class="st93" d="M261.8,297.7l26.8-0.2c0.2,0,0.6-0.1,0.5,0.5c-0.2-0.2-0.3-0.2-0.5-0.2l-26.8,0.2c0,0,0,0,0,0
		c-0.4,0-2.3,0.1-3.6,1.7C258.9,298.5,260.4,297.8,261.8,297.7"/>
	<path id="path745" class="st90" d="M261.8,297.7l26.8-0.2c0.2,0,0.6-0.1,0.5,0.5c-0.2-0.2-0.3-0.2-0.5-0.2l-26.8,0.2c0,0,0,0,0,0
		c-0.4,0-2.3,0.1-3.6,1.7C258.9,298.6,260.4,297.9,261.8,297.7"/>
	<path id="path747" class="st92" d="M261.8,297.8l26.8-0.2c0.2,0,0.6-0.1,0.5,0.5c-0.2-0.2-0.3-0.2-0.5-0.2l-26.8,0.2h0
		c-0.4,0-2.4,0.1-3.6,1.6C258.9,298.6,260.4,297.9,261.8,297.8"/>
	<path id="path749" class="st94" d="M261.8,297.9l26.9-0.3c0.2,0,0.6-0.1,0.5,0.5c-0.2-0.2-0.3-0.2-0.5-0.2l-26.8,0.3c0,0,0,0,0,0
		c-0.4,0-2.4,0.1-3.6,1.6C258.8,298.7,260.4,298,261.8,297.9"/>
	<path id="path751" class="st95" d="M261.8,297.9l26.9-0.3c0.2,0,0.6-0.1,0.5,0.5c-0.2-0.2-0.3-0.2-0.5-0.2l-13.2,0.2l-13.6,0.2
		c0,0,0,0,0,0c-0.4,0-2.4,0.1-3.6,1.6C258.8,298.7,260.4,298.1,261.8,297.9"/>
	<path id="path753" class="st91" d="M261.8,298l26.9-0.4c0.2,0,0.6-0.1,0.5,0.5c-0.2-0.2-0.3-0.2-0.5-0.2l-26.8,0.4l0,0
		c-0.4,0-2.4,0.1-3.6,1.5C258.8,298.8,260.4,298.1,261.8,298"/>
	<path id="path755" class="st34" d="M261.7,298.1l26.9-0.4c0.2,0,0.6-0.1,0.5,0.5c-0.2-0.2-0.3-0.2-0.5-0.2l-26.8,0.4h0
		c-0.4,0-2.4,0.1-3.6,1.5C258.8,298.8,260.3,298.2,261.7,298.1"/>
	<path id="path757" class="st96" d="M261.7,298.1l26.9-0.5c0.2,0,0.6-0.1,0.5,0.5c-0.2-0.2-0.3-0.2-0.5-0.2l-26.8,0.4c0,0,0,0,0,0
		c-0.4,0-2.5,0.1-3.6,1.5C258.8,298.9,260.3,298.3,261.7,298.1"/>
	<path id="path759" class="st97" d="M261.7,298.2l26.9-0.5c0.2,0,0.6-0.1,0.5,0.5c-0.2-0.2-0.3-0.2-0.5-0.2l-26.9,0.5h0
		c-0.4,0-2.5,0.1-3.6,1.4C258.7,298.9,260.3,298.3,261.7,298.2"/>
	<path id="path761" class="st98" d="M261.7,298.3l26.9-0.5c0.2,0,0.6-0.1,0.5,0.5c-0.2-0.2-0.3-0.2-0.5-0.2l-13.2,0.3l-13.7,0.3
		c0,0,0,0,0,0c-0.4,0-2.5,0.1-3.6,1.4C258.7,299,260.3,298.4,261.7,298.3"/>
	<path id="path763" class="st99" d="M261.7,298.3l26.9-0.6c0.2,0,0.6-0.1,0.5,0.5c-0.2-0.2-0.3-0.2-0.5-0.2l-26.9,0.6h0
		c-0.4,0-2.5,0.1-3.6,1.4C258.7,299,260.3,298.5,261.7,298.3"/>
	<path id="path765" class="st100" d="M261.7,298.4l26.9-0.6c0.2,0,0.6-0.1,0.5,0.5c-0.2-0.2-0.3-0.2-0.5-0.2l-13.2,0.3l-13.7,0.3
		c0,0,0,0,0,0c-0.4,0-2.5,0.1-3.6,1.3C258.7,299.1,260.3,298.5,261.7,298.4"/>
	<path id="path767" class="st76" d="M261.7,298.5l26.9-0.7c0.2,0,0.6-0.1,0.5,0.5c-0.2-0.2-0.3-0.2-0.5-0.2l-13.1,0.3l-13.7,0.3h0
		c-0.4,0-2.6,0.1-3.7,1.3C258.6,299.1,260.3,298.6,261.7,298.5"/>
	<path id="path769" class="st101" d="M261.7,298.5l26.9-0.7c0.2,0,0.6-0.1,0.5,0.5c-0.2-0.2-0.3-0.2-0.5-0.2l-13.1,0.3l-13.8,0.4h0
		c-0.4,0-2.6,0.1-3.7,1.3C258.6,299.2,260.3,298.7,261.7,298.5"/>
	<path id="path771" class="st102" d="M261.7,298.6l27-0.7c0.2,0,0.6-0.1,0.5,0.5c-0.2-0.2-0.3-0.2-0.5-0.2l-26.9,0.7h0
		c-0.4,0-2.6,0.1-3.7,1.2C258.6,299.3,260.3,298.7,261.7,298.6"/>
	<path id="path773" class="st103" d="M261.7,298.7l27-0.8c0.2,0,0.6-0.1,0.5,0.5c-0.2-0.2-0.3-0.2-0.5-0.2l-26.9,0.8h0
		c-0.4,0-2.6,0.1-3.7,1.2C258.6,299.3,260.3,298.8,261.7,298.7"/>
	<path id="path775" class="st35" d="M261.7,298.7l27-0.8c0.2,0,0.6-0.1,0.5,0.5c-0.2-0.2-0.3-0.2-0.5-0.2l-26.9,0.8c0,0,0,0,0,0
		c-0.4,0-2.6,0.1-3.7,1.2C258.6,299.4,260.3,298.9,261.7,298.7"/>
	<path id="path777" class="st104" d="M261.6,298.8l27-0.9c0.2,0,0.6-0.1,0.5,0.5c-0.2-0.2-0.3-0.2-0.5-0.2l-13.1,0.4l-13.8,0.4h0
		c-0.4,0-2.7,0.1-3.7,1.2C258.5,299.4,260.2,298.9,261.6,298.8"/>
	<path id="path779" class="st105" d="M261.6,298.9l27-0.9c0.2,0,0.6-0.1,0.5,0.5c-0.2-0.2-0.3-0.2-0.5-0.2l-26.9,0.9c0,0,0,0,0,0
		c-0.4,0-2.7,0.1-3.7,1.1C258.5,299.5,260.2,299,261.6,298.9"/>
	<path id="path781" class="st106" d="M261.6,298.9l27-0.9c0.2,0,0.6-0.1,0.5,0.5c-0.2-0.2-0.3-0.2-0.5-0.2l-26.9,0.9h0
		c-0.4,0-2.7,0.1-3.7,1.1C258.5,299.5,260.2,299.1,261.6,298.9"/>
	<path id="path783" class="st107" d="M261.6,299l27-1c0.2,0,0.6-0.1,0.5,0.5c-0.2-0.2-0.3-0.2-0.5-0.2l-27,1h0
		c-0.4,0-2.7,0.1-3.7,1.1C258.5,299.6,260.2,299.1,261.6,299"/>
	<path id="path787" class="st108" d="M261.6,299.1l27-1.1c0.2,0,0.6-0.1,0.5,0.5c-0.2-0.2-0.3-0.2-0.5-0.2l-27,1.1l0,0
		c-0.4,0-2.8,0.1-3.7,1C258.4,299.7,260.2,299.3,261.6,299.1"/>
	<path id="path789" class="st109" d="M261.6,299.2l27-1.1c0.2,0,0.6-0.1,0.5,0.5c-0.2-0.2-0.3-0.2-0.5-0.2l-27,1.1l0,0
		c-0.4,0-2.8,0.1-3.7,1C258.4,299.7,260.2,299.3,261.6,299.2"/>
	<path id="path791" class="st110" d="M261.6,299.3l27.1-1.1c0.2,0,0.6-0.1,0.5,0.5c-0.2-0.2-0.3-0.2-0.5-0.2l-27,1.1h0
		c-0.4,0-2.8,0.1-3.7,0.9C258.4,299.8,260.2,299.4,261.6,299.3"/>
	<path id="path793" class="st111" d="M261.6,299.3l27.1-1.2c0.2,0,0.6-0.1,0.5,0.5c-0.2-0.2-0.3-0.2-0.5-0.2l-27,1.2l0,0
		c-0.4,0-2.8,0.1-3.7,0.9C258.4,299.8,260.2,299.5,261.6,299.3"/>
	<path id="path795" class="st36" d="M261.6,299.4l27.1-1.2c0.2,0,0.6-0.1,0.5,0.5c-0.2-0.2-0.3-0.2-0.5-0.2l-27,1.2l0,0
		c-0.4,0-2.8,0.1-3.7,0.9C258.3,299.9,260.2,299.5,261.6,299.4"/>
	<path id="path797" class="st112" d="M257.8,300.6c0.5-0.7,2.3-1,3.7-1.1l27.1-1.3c0.2,0,0.6-0.1,0.5,0.5c-0.2-0.2-0.3-0.2-0.5-0.2
		l-27.1,1.3C261.2,299.8,258.7,299.9,257.8,300.6"/>
	<path id="path799" class="st113" d="M296.2,296.9l7.9,0c0.3,0,0.4,0.3,0.5,0.6c-0.2-0.1-0.2-0.2-0.5-0.2c0,0,0,0-0.1,0
		c-0.3,0-1.9,0-3.5,0c-2.1,0-4.4,0-4.4,0c-0.5-0.1-0.6,0.6-0.6,0.7c0,0,0,0,0,0C295.6,297.1,295.8,296.9,296.2,296.9"/>
	<path id="path801" class="st114" d="M296.2,296.9l7.9,0c0.3,0,0.4,0.3,0.5,0.6c-0.2-0.1-0.2-0.2-0.5-0.2c0,0,0,0-0.1,0
		c-0.3,0-1.9,0-3.5,0c-2.1,0-4.4,0-4.4,0c-0.5-0.1-0.6,0.6-0.6,0.7c0,0,0,0,0,0C295.6,297.2,295.8,296.9,296.2,296.9"/>
	<path id="path803" class="st115" d="M296.2,297l7.9,0c0.3,0,0.4,0.3,0.5,0.6c-0.2-0.1-0.2-0.2-0.5-0.2c0,0-0.1,0-0.1,0
		c-0.3,0-1.9,0-3.5,0c-2.1,0-4.4,0-4.4,0c-0.5-0.1-0.6,0.6-0.6,0.7c0,0,0,0,0,0C295.6,297.2,295.8,296.9,296.2,297"/>
	<path id="path805" class="st27" d="M296.2,297l8,0c0.3,0,0.4,0.3,0.5,0.6c-0.2-0.1-0.2-0.2-0.5-0.2c0,0-0.1,0-0.1,0
		c-0.3,0-1.9,0-3.5,0c-2.1,0-4.4,0-4.4,0c-0.5-0.1-0.6,0.6-0.6,0.7c0,0,0,0,0,0C295.6,297.2,295.8,297,296.2,297"/>
	<path id="path807" class="st116" d="M296.2,297l8,0c0.3,0,0.4,0.3,0.5,0.6c-0.2-0.1-0.2-0.2-0.5-0.2c0,0-0.1,0-0.1,0
		c-0.3,0-1.9,0-3.5,0c-2.1,0-4.4,0-4.4,0c-0.5-0.1-0.6,0.6-0.6,0.7c0,0,0,0,0,0C295.6,297.2,295.8,297,296.2,297"/>
	<path id="path809" class="st117" d="M296.2,297l8,0c0.3,0,0.4,0.3,0.5,0.6c-0.2-0.1-0.2-0.2-0.5-0.2c0,0-0.1,0-0.1,0
		c-0.3,0-1.9,0-3.5,0c-2.1,0-4.4,0-4.4,0c-0.5,0-0.6,0.6-0.6,0.7c0,0,0,0,0,0C295.6,297.2,295.8,297,296.2,297"/>
	<path id="path811" class="st118" d="M296.2,297.1l8,0c0.3,0,0.4,0.3,0.5,0.6c-0.2-0.1-0.2-0.2-0.5-0.2c0,0-0.1,0-0.1,0
		c-0.2,0-1.8,0-3.5,0c-2.1,0-4.4,0-4.4,0c-0.4,0-0.6,0.7-0.6,0.7c0,0,0,0,0,0C295.6,297.2,295.8,297.1,296.2,297.1"/>
	<path id="path813" class="st119" d="M296.2,297.1l8,0c0.3,0,0.4,0.2,0.5,0.6c-0.2-0.1-0.2-0.2-0.5-0.2c0,0-0.1,0-0.2,0
		c-0.2,0-1.8,0-3.5,0c-2.1,0-4.4,0-4.4,0c-0.4,0-0.6,0.7-0.6,0.7c0,0,0,0,0,0C295.6,297.3,295.8,297.1,296.2,297.1"/>
	<path id="path815" class="st120" d="M296.2,297.1l8,0c0.3,0,0.4,0.2,0.5,0.6c-0.2-0.1-0.2-0.2-0.5-0.2c-0.1,0-0.1,0-0.2,0
		c-0.2,0-1.8,0-3.5,0c-2.1,0-4.4,0-4.4,0c-0.4,0-0.6,0.7-0.6,0.7c0,0,0,0,0,0C295.6,297.3,295.8,297.1,296.2,297.1"/>
	<path id="path817" class="st121" d="M296.2,297.1l8,0c0.3,0,0.4,0.2,0.5,0.6c-0.2-0.1-0.3-0.2-0.5-0.2c-0.1,0-0.1,0-0.2,0
		c-0.2,0-1.8,0-3.5,0c-2.1,0-4.4,0-4.4,0c-0.4,0-0.6,0.7-0.6,0.7c0,0,0,0,0,0C295.6,297.3,295.8,297.1,296.2,297.1"/>
	<path id="path819" class="st122" d="M296.2,297.2l8.1,0c0.3,0,0.4,0.2,0.5,0.6c-0.2-0.1-0.3-0.2-0.5-0.2c-0.1,0-0.1,0-0.2,0
		c-0.2,0-1.8,0-3.4,0c-2.1,0-4.4,0-4.4,0c-0.4,0-0.6,0.7-0.6,0.7v0C295.6,297.3,295.8,297.2,296.2,297.2"/>
	<path id="path821" class="st123" d="M296.2,297.2l8.1,0c0.3,0,0.4,0.2,0.5,0.6c-0.1-0.1-0.3-0.2-0.5-0.2c-0.1,0-0.1,0-0.2,0
		c-0.2,0-1.8,0-3.4,0c-2.1,0-4.4,0-4.4,0c-0.4,0-0.6,0.7-0.6,0.7c0,0,0,0,0,0C295.7,297.3,295.8,297.2,296.2,297.2"/>
	<path id="path823" class="st91" d="M296.2,297.2l8.1,0c0.3,0,0.4,0.2,0.5,0.6c-0.1-0.1-0.3-0.2-0.5-0.2c-0.1,0-0.2,0-0.2,0
		c-0.2,0-1.8,0-3.4,0c-2.1,0-4.4,0-4.4,0c-0.4,0-0.6,0.7-0.6,0.7c0,0,0,0,0,0C295.7,297.3,295.8,297.2,296.2,297.2"/>
	<path id="path825" class="st76" d="M296.2,297.2h8.1c0.3,0,0.4,0.2,0.5,0.6c-0.1-0.1-0.3-0.2-0.5-0.2c-0.1,0-0.2,0-0.2,0
		c-0.2,0-1.8,0-3.4,0c-2.1,0-4.4,0-4.4,0c-0.4,0-0.6,0.7-0.6,0.7c0,0,0,0,0,0C295.7,297.3,295.8,297.2,296.2,297.2"/>
	<path id="path827" class="st106" d="M296.2,297.3l8.1,0c0.3,0,0.4,0.2,0.5,0.6c-0.1-0.1-0.3-0.2-0.5-0.2c-0.1,0-0.2,0-0.3,0
		c-0.2,0-1.7,0-3.4,0c-2.1,0-4.4,0-4.4,0c-0.4,0-0.6,0.7-0.6,0.7c0,0,0,0,0,0C295.7,297.4,295.8,297.3,296.2,297.3"/>
	<path id="path829" class="st112" d="M296.2,297.3l8.1,0c0.3,0,0.4,0.2,0.5,0.6c-0.1-0.1-0.3-0.1-0.5-0.2c-0.1,0-0.2,0-0.3,0
		c-0.1,0-1.7,0-3.4,0c-2.1,0-4.4,0-4.4,0c-0.4,0-0.6,0.7-0.6,0.7c0,0,0,0,0,0C295.7,297.4,295.8,297.3,296.2,297.3"/>
	<path id="path831" class="st124" d="M295.6,298.4c0-1,0.2-1.1,0.6-1.1h8.3c0.2,0,0.3,0.2,0.5,0.6c-0.2-0.1-0.5-0.2-0.8-0.2
		c-0.1,0-1.9,0-3.6,0c-2.1,0-4.4,0-4.4,0C295.9,297.7,295.6,298.4,295.6,298.4"/>
	<path id="path833" class="st37" d="M296.3,297.9c-0.2,0-0.4,0.3-0.5,0.5c-0.1,0.1-0.1,0.2-0.1,0.2c0-0.6,0.1-0.8,0.3-1
		c0.1-0.1,0.2-0.1,0.3-0.1l8.3,0c0.2,0,0.3,0.2,0.5,0.6c-0.2-0.2-0.5-0.2-0.8-0.2c0,0,0,0,0,0c-0.2,0-1.9,0-3.6,0
		C298.6,297.9,296.3,297.9,296.3,297.9"/>
	<path id="path835" class="st125" d="M296.2,297.7l8.4-0.1c0.2,0,0.3,0.2,0.5,0.6c-0.2-0.2-0.5-0.2-0.8-0.2c0,0,0,0,0,0c0,0,0,0,0,0
		c-0.3,0-1.9,0-3.5,0c-2.1,0-4.5,0-4.5,0c0,0,0,0,0,0c-0.2,0-0.4,0.3-0.5,0.5c0,0,0,0,0,0c0,0.1-0.1,0.1-0.1,0.1
		c0-0.6,0.1-0.8,0.3-0.9C296,297.7,296.1,297.7,296.2,297.7"/>
	<path id="path837" class="st126" d="M296.2,297.8l8.4-0.1c0.2,0,0.3,0.2,0.5,0.6c-0.2-0.2-0.5-0.2-0.8-0.2c0,0,0,0,0,0
		c0,0,0,0-0.1,0c-0.3,0-1.9,0-3.5,0c-2.1,0-4.5,0-4.5,0c0,0,0,0,0,0c-0.2,0-0.4,0.3-0.5,0.5c0,0,0,0,0,0c0,0.1-0.1,0.1-0.1,0.1
		c0-0.6,0.1-0.8,0.3-0.9C296,297.8,296.1,297.8,296.2,297.8"/>
	<path id="path839" class="st64" d="M296.3,297.9l8.4-0.1c0.2,0,0.3,0.2,0.5,0.6c-0.2-0.1-0.5-0.2-0.8-0.2c0,0,0,0,0,0
		c0,0,0,0-0.1,0c-0.3,0-1.9,0-3.5,0c-2.1,0-4.5,0.1-4.6,0.1c0,0,0,0,0,0c-0.2,0-0.4,0.3-0.5,0.5c0,0,0,0,0,0c0,0.1-0.1,0.1-0.1,0.1
		c0-0.6,0.1-0.8,0.3-0.9C296,297.9,296.1,297.9,296.3,297.9"/>
	<path id="path841" class="st63" d="M296.3,298.1l8.5-0.1c0.2,0,0.4,0.2,0.5,0.6c-0.2-0.1-0.5-0.2-0.8-0.2c0,0,0,0,0,0
		c0,0,0,0-0.1,0c-0.2,0-1.8,0-3.5,0.1c-2.2,0-4.5,0.1-4.6,0.1c0,0,0,0,0,0c-0.2,0-0.4,0.3-0.5,0.5c0,0,0,0,0,0c0,0,0,0.1,0,0.1
		c0-0.6,0.1-0.8,0.3-0.9C296,298.1,296.2,298.1,296.3,298.1"/>
	<path id="path843" class="st62" d="M296.3,298.2l8.5-0.2c0.2,0,0.3,0.2,0.5,0.6c-0.2-0.1-0.5-0.2-0.8-0.2c0,0,0,0,0,0
		c0,0-0.1,0-0.1,0c-0.2,0-1.8,0-3.5,0.1c-2.2,0-4.6,0.1-4.7,0.1c0,0,0,0,0,0c-0.3,0-0.4,0.3-0.5,0.5c0,0,0,0,0,0c0,0,0,0.1,0,0
		c0-0.6,0.2-0.8,0.4-0.9C296.1,298.2,296.2,298.2,296.3,298.2"/>
	<path id="path845" class="st61" d="M296.3,298.3l8.6-0.2c0.2,0,0.4,0.2,0.5,0.6c-0.2-0.1-0.5-0.2-0.8-0.2c0,0,0,0,0,0
		c0,0-0.1,0-0.1,0c-0.2,0-1.8,0-3.5,0.1c-2.2,0-4.6,0.1-4.7,0.1c0,0,0,0,0,0c-0.3,0-0.5,0.3-0.5,0.5c0,0,0,0,0,0c0,0,0,0,0,0
		c0-0.6,0.2-0.8,0.4-0.8C296.1,298.3,296.2,298.3,296.3,298.3"/>
	<path id="path847" class="st127" d="M296.3,298.4l8.6-0.2c0.2,0,0.4,0.2,0.5,0.6c-0.2-0.1-0.5-0.2-0.8-0.2c0,0,0,0,0,0
		c0,0-0.1,0-0.1,0c-0.2,0-1.8,0-3.5,0.1c-2.2,0.1-4.6,0.1-4.8,0.1c0,0,0,0,0,0c-0.3,0-0.5,0.3-0.5,0.5c0,0,0,0,0,0c0,0,0,0,0,0
		c0-0.6,0.2-0.7,0.4-0.8C296.1,298.5,296.2,298.5,296.3,298.4"/>
	<path id="path849" class="st59" d="M296.3,298.6l8.7-0.2c0.2,0,0.4,0.2,0.5,0.6c-0.2-0.1-0.5-0.2-0.8-0.2c0,0,0,0,0,0
		c0,0-0.1,0-0.1,0c-0.2,0-1.7,0-3.5,0.1c-2.2,0.1-4.7,0.1-4.8,0.1c0,0,0,0,0,0c-0.3,0-0.5,0.3-0.5,0.5c0,0,0,0,0,0c0,0,0,0,0,0
		c0-0.6,0.2-0.7,0.4-0.8C296.1,298.6,296.2,298.6,296.3,298.6"/>
	<path id="path851" class="st128" d="M296.3,298.7l8.7-0.2c0.2,0,0.4,0.2,0.5,0.6c-0.1-0.1-0.5-0.2-0.8-0.2c0,0,0,0,0,0
		c0,0-0.1,0-0.1,0c-0.1,0-1.7,0-3.5,0.1c-2.2,0.1-4.7,0.1-4.9,0.1c0,0,0,0,0,0c-0.3,0-0.5,0.3-0.5,0.5c0,0,0,0,0,0c0,0,0,0,0,0
		c0-0.6,0.2-0.7,0.4-0.8C296.1,298.7,296.2,298.7,296.3,298.7"/>
	<path id="path853" class="st129" d="M296.4,298.8l8.7-0.3c0.2,0,0.4,0.2,0.5,0.6c-0.1-0.1-0.5-0.2-0.8-0.2c0,0,0,0-0.1,0
		c0,0-0.1,0-0.1,0c-0.1,0-1.7,0.1-3.4,0.1c-2.2,0.1-4.7,0.2-4.9,0.2c0,0,0,0,0,0c-0.3,0-0.5,0.3-0.6,0.4c0,0,0,0,0,0c0,0,0,0,0,0
		c0-0.6,0.2-0.7,0.4-0.8C296.1,298.9,296.2,298.8,296.4,298.8"/>
	<path id="path855" class="st38" d="M296.4,299l8.8-0.3c0.2,0,0.4,0.2,0.5,0.6c-0.2-0.1-0.5-0.2-0.8-0.2c0,0,0,0-0.1,0
		c0,0-0.1,0-0.1,0c-0.1,0-1.7,0.1-3.4,0.1c-2.2,0.1-4.7,0.2-5,0.2c0,0,0,0,0,0c-0.3,0-0.5,0.3-0.6,0.4c0,0,0,0,0,0c0,0,0,0,0-0.1
		c0-0.6,0.2-0.7,0.5-0.7C296.1,299,296.3,299,296.4,299"/>
	<path id="path857" class="st57" d="M296.4,299.1l8.8-0.3c0.2,0,0.4,0.2,0.5,0.6c-0.2-0.1-0.5-0.2-0.9-0.2c0,0,0,0,0,0
		c-0.1,0-0.1,0-0.1,0c-0.1,0-1.7,0.1-3.4,0.1c-2.2,0.1-4.8,0.2-5,0.2c0,0,0,0,0,0c-0.3,0-0.5,0.3-0.6,0.4c0,0,0,0,0,0c0,0,0,0,0-0.1
		c0-0.5,0.2-0.7,0.5-0.7C296.2,299.1,296.3,299.1,296.4,299.1"/>
	<path id="path859" class="st56" d="M296.4,299.2l8.9-0.3c0.2,0,0.4,0.2,0.5,0.6c-0.2-0.1-0.6-0.2-0.9-0.2c0,0,0,0-0.1,0
		c-0.1,0-0.1,0-0.1,0c0,0-1.6,0.1-3.4,0.1c-2.2,0.1-4.8,0.2-5.1,0.2c0,0,0,0,0,0c-0.3,0-0.5,0.3-0.6,0.4c0,0,0,0,0,0
		c0,0,0-0.1,0-0.1c0-0.5,0.2-0.6,0.5-0.7C296.2,299.3,296.3,299.2,296.4,299.2"/>
	<path id="path861" class="st130" d="M296.4,299.4l8.9-0.4c0.2,0,0.4,0.2,0.6,0.6c-0.2-0.1-0.6-0.2-0.9-0.2c0,0,0,0-0.1,0
		c-0.1,0-0.1,0-0.2,0c0,0-1.6,0.1-3.4,0.2c-2.2,0.1-4.8,0.2-5.2,0.2c0,0,0,0,0,0c-0.3,0-0.5,0.3-0.6,0.4c0,0,0,0,0,0
		c0,0,0-0.1,0-0.1c0-0.5,0.2-0.6,0.5-0.7C296.2,299.4,296.3,299.4,296.4,299.4"/>
	<path id="path863" class="st54" d="M295.6,300.3c0-0.9,0.4-0.8,0.8-0.8l8.9-0.4c0.2,0,0.4,0.2,0.6,0.6c-0.2-0.1-0.8-0.2-1.1-0.2
		c0,0-8.7,0.4-8.7,0.4C295.8,299.9,295.6,300.3,295.6,300.3"/>
	<path id="path865" class="st49" d="M337.5,299.5c0.6-1,1.7-1.8,2.9-2c0.2,0,0.4-0.1,0.6-0.1l25.4,0c0.2,0,0.5,0.1,0.5,0.5
		c-0.2-0.2-0.3-0.2-0.5-0.2l-25.4,0c0,0-0.1,0-0.1,0C340.4,297.7,338.7,298,337.5,299.5"/>
	<path id="path867" class="st48" d="M337.5,299.6c0.6-1,1.7-1.7,3-2c0.2,0,0.4-0.1,0.6-0.1l25.5-0.1c0.2,0,0.5,0.1,0.5,0.5
		c-0.2-0.2-0.3-0.2-0.5-0.2l-11.7,0l-13.7,0.1c0,0-0.1,0-0.1,0C340.4,297.8,338.7,298,337.5,299.6"/>
	<path id="path869" class="st47" d="M337.5,299.6c0.6-1,1.7-1.7,3-1.9c0.2,0,0.4-0.1,0.5-0.1l25.5-0.1c0.2,0,0.5,0.1,0.5,0.5
		c-0.2-0.2-0.3-0.2-0.5-0.2l-25.4,0.1c0,0-0.1,0-0.1,0C340.3,297.9,338.6,298.1,337.5,299.6"/>
	<path id="path871" class="st46" d="M337.5,299.6c0.6-1,1.7-1.7,3-1.9c0.2,0,0.4-0.1,0.5-0.1l25.5-0.2c0.2,0,0.5,0.1,0.5,0.5
		c-0.2-0.2-0.3-0.2-0.5-0.2l-11.7,0.1l-13.8,0.1c0,0-0.1,0-0.1,0C340.3,297.9,338.6,298.2,337.5,299.6"/>
	<path id="path873" class="st45" d="M337.5,299.6c0.5-1,1.7-1.6,3-1.9c0.2,0,0.3-0.1,0.5-0.1l25.5-0.2c0.2,0,0.5,0.1,0.5,0.5
		c-0.2-0.2-0.3-0.2-0.5-0.2l-11.7,0.1L341,298c0,0-0.1,0-0.1,0C340.3,298,338.5,298.2,337.5,299.6"/>
	<path id="path875" class="st44" d="M337.4,299.6c0.5-1,1.7-1.6,3-1.8c0.2,0,0.3-0.1,0.5-0.1l25.5-0.2c0.2,0,0.5,0.1,0.5,0.5
		c-0.2-0.2-0.3-0.2-0.5-0.2l-11.6,0.1l-13.9,0.2c0,0-0.1,0-0.1,0C340.3,298.1,338.5,298.3,337.4,299.6"/>
	<path id="path877" class="st43" d="M337.4,299.7c0.5-1,1.7-1.6,3-1.8c0.1,0,0.3-0.1,0.5-0.1l25.5-0.3c0.2,0,0.5,0.1,0.5,0.5
		c-0.2-0.2-0.3-0.2-0.5-0.2l-11.6,0.1l-13.9,0.2c0,0-0.1,0-0.1,0C340.3,298.2,338.5,298.3,337.4,299.7"/>
	<path id="path879" class="st42" d="M337.4,299.7c0.5-1,1.7-1.5,3-1.7c0.1,0,0.3-0.1,0.4-0.1l25.6-0.3c0.2,0,0.5,0.1,0.5,0.5
		c-0.2-0.2-0.3-0.2-0.5-0.2l-11.6,0.2l-14,0.2c0,0-0.1,0-0.1,0C340.3,298.2,338.4,298.4,337.4,299.7"/>
	<path id="path881" class="st41" d="M337.4,299.7c0.5-1,1.7-1.5,3.1-1.7c0.1,0,0.3-0.1,0.4-0.1l25.6-0.4c0.2,0,0.5,0.1,0.5,0.5
		c-0.2-0.2-0.3-0.2-0.5-0.2l-11.5,0.2l-14,0.2c0,0-0.1,0-0.1,0C340.3,298.3,338.4,298.5,337.4,299.7"/>
	<path id="path883" class="st40" d="M337.4,299.7c0.5-1,1.7-1.5,3.1-1.7c0.1,0,0.3-0.1,0.4-0.1l25.6-0.4c0.2,0,0.5,0.1,0.5,0.5
		c-0.2-0.2-0.3-0.2-0.5-0.2l-11.5,0.2l-14,0.3c0,0-0.1,0-0.1,0C340.3,298.4,338.3,298.5,337.4,299.7"/>
	<path id="path885" class="st131" d="M337.4,299.8c0.5-1,1.7-1.4,3.1-1.6c0.1,0,0.3,0,0.4-0.1l25.6-0.4c0.2,0,0.5,0.1,0.5,0.5
		c-0.2-0.2-0.3-0.2-0.5-0.2l-11.5,0.2l-14.1,0.3c0,0-0.1,0-0.1,0C340.3,298.4,338.3,298.6,337.4,299.8"/>
	<path id="path887" class="st132" d="M337.4,299.8c0.5-1,1.7-1.4,3.1-1.6c0.1,0,0.2,0,0.4-0.1l25.6-0.5c0.2,0,0.5,0.1,0.5,0.5
		c-0.2-0.2-0.3-0.2-0.5-0.2l-11.5,0.2l-14.1,0.3c0,0-0.1,0-0.1,0C340.2,298.5,338.2,298.7,337.4,299.8"/>
	<path id="path889" class="st133" d="M337.4,299.8c0.5-1,1.8-1.4,3.1-1.5c0.1,0,0.2,0,0.3,0l25.7-0.5c0.2,0,0.5,0.1,0.5,0.5
		c-0.2-0.2-0.3-0.2-0.5-0.2l-11.4,0.3l-14.2,0.3c0,0-0.1,0-0.1,0C340.2,298.6,338.2,298.7,337.4,299.8"/>
	<path id="path891" class="st134" d="M337.3,299.8c0.5-1,1.8-1.3,3.1-1.5c0.1,0,0.2,0,0.3,0l25.7-0.6c0.2,0,0.5,0.1,0.5,0.5
		c-0.2-0.2-0.3-0.2-0.5-0.2l-11.4,0.3l-14.2,0.4c0,0-0.1,0-0.1,0C340.2,298.7,338.1,298.8,337.3,299.8"/>
	<path id="path893" class="st135" d="M337.3,299.9c0.5-1,1.8-1.3,3.2-1.5c0.1,0,0.2,0,0.3,0l25.7-0.6c0.2,0,0.5,0.1,0.5,0.5
		c-0.2-0.2-0.3-0.2-0.5-0.2l-11.4,0.3l-14.3,0.4c0,0-0.1,0-0.1,0C340.2,298.7,338.1,298.8,337.3,299.9"/>
	<path id="path895" class="st136" d="M337.3,299.9c0.5-1,1.8-1.3,3.2-1.4c0.1,0,0.2,0,0.3,0l25.7-0.7c0.2,0,0.5,0.1,0.5,0.5
		c-0.2-0.2-0.3-0.2-0.5-0.2l-11.4,0.3l-14.3,0.4c0,0-0.1,0-0.1,0C340.2,298.8,338.1,298.9,337.3,299.9"/>
	<path id="path897" class="st137" d="M337.3,299.9c0.5-1,1.8-1.2,3.2-1.4c0.1,0,0.2,0,0.2,0l25.7-0.7c0.2,0,0.5,0.1,0.5,0.5
		c-0.2-0.2-0.3-0.2-0.5-0.2l-11.3,0.3l-14.3,0.4c0,0-0.1,0-0.1,0C340.2,298.9,338,299,337.3,299.9"/>
	<path id="path899" class="st138" d="M337.3,299.9c0.4-1,1.8-1.2,3.2-1.3c0.1,0,0.2,0,0.2,0l25.8-0.7c0.2,0,0.5,0.1,0.5,0.5
		c-0.2-0.2-0.3-0.2-0.5-0.2l-11.3,0.3l-14.4,0.5c0,0-0.1,0-0.1,0C340.2,298.9,338,299,337.3,299.9"/>
	<path id="path901" class="st139" d="M337.3,300c0.4-1,1.8-1.2,3.2-1.3c0.1,0,0.1,0,0.2,0l25.8-0.8c0.2,0,0.5,0.1,0.5,0.5
		c-0.2-0.2-0.3-0.2-0.5-0.2l-11.3,0.4l-14.4,0.5c0,0-0.1,0-0.1,0C340.2,299,337.9,299.1,337.3,300"/>
	<path id="path903" class="st140" d="M337.3,300c0.4-0.9,1.8-1.2,3.2-1.3c0,0,0.1,0,0.2,0l25.8-0.8c0.2,0,0.5,0.1,0.5,0.5
		c-0.2-0.2-0.3-0.2-0.5-0.2l-11.3,0.4l-14.5,0.5c0,0-0.1,0-0.1,0C340.1,299.1,337.9,299.2,337.3,300"/>
	<path id="path905" class="st141" d="M337.2,300c0.4-1,1.8-1.1,3.2-1.2c0,0,0.1,0,0.2,0l25.8-0.9c0.2,0,0.5,0.1,0.5,0.5
		c-0.2-0.2-0.3-0.2-0.5-0.2l-11.2,0.4l-14.5,0.5c0,0-0.1,0-0.1,0C340.1,299.2,337.8,299.2,337.2,300"/>
	<path id="path907" class="st142" d="M337.2,300c0.4-1,1.8-1.1,3.3-1.2c0,0,0.1,0,0.1,0l25.8-0.9c0.2,0,0.5,0.1,0.5,0.5
		c-0.2-0.2-0.3-0.2-0.5-0.2l-11.2,0.4l-14.6,0.6c0,0-0.1,0-0.1,0C340.1,299.2,337.8,299.3,337.2,300"/>
	<path id="path909" class="st143" d="M337.2,300c0.4-1,1.8-1.1,3.3-1.1c0,0,0.1,0,0.1,0l25.9-0.9c0.2,0,0.5,0.1,0.5,0.5
		c-0.2-0.2-0.3-0.2-0.5-0.2l-11.2,0.4l-14.6,0.6c0,0-0.1,0-0.1,0C340.1,299.3,337.8,299.4,337.2,300"/>
	<path id="path911" class="st144" d="M337.2,300.1c0.4-0.9,1.8-1,3.3-1.1c0,0,0.1,0,0.1,0l25.9-1c0.2,0,0.5,0.1,0.5,0.5
		c-0.2-0.2-0.3-0.2-0.5-0.2l-25.8,1.1c0,0-0.1,0-0.1,0C340.1,299.4,337.7,299.4,337.2,300.1"/>
	<path id="path913" class="st145" d="M337.2,300.1c0.4-0.9,1.8-1,3.3-1c0,0,0.1,0,0.1,0l25.9-1c0.2,0,0.5,0.1,0.5,0.5
		c-0.2-0.2-0.3-0.2-0.5-0.2l-25.8,1.1l-0.1,0C340.1,299.4,337.7,299.5,337.2,300.1"/>
	<path id="path915" class="st146" d="M337.2,300.1c0.4-0.9,1.8-1,3.3-1l26-1.1c0.2,0,0.5,0.1,0.5,0.5c-0.2-0.2-0.3-0.2-0.5-0.2
		l-26,1.2C340.1,299.5,337.6,299.5,337.2,300.1"/>
	<path id="path917" class="st147" d="M262,295.5c3.5-0.1,26.3,0,27,0c0,0,0,0,0,0c0.5,0,0.8,0.1,1,0.3c-0.2-0.3-0.5-0.5-1-0.4
		c0,0,0,0,0,0c-0.8,0-23.5-0.1-27,0c-2,0-3.3,1.1-4.2,2.3C258.7,296.5,260,295.6,262,295.5"/>
	<path id="path919" class="st147" d="M264.1,312.9c0.2,0.3,0.4,0.5,1,0.5c1.4,0,16.1,0,17,0c0.3,0,0.4-0.1,0.6-0.2
		c-0.2,0.1-0.4,0.1-0.6,0.1c-0.8,0-15.6,0-16.9,0C264.7,313.2,264.3,313.1,264.1,312.9"/>
	<path id="path921" class="st147" d="M289.2,304.3c-4.4,0-8.8,0-13.3,0c0,0,0,0,0,0h0c-0.6,0-1,0.2-1.2,0.5c0.3-0.3,0.8-0.3,1.2-0.3
		l13.3,0c0.3,0,0.5,0,0.7,0.1C289.6,304.4,289.4,304.3,289.2,304.3"/>
	<path id="path923" class="st147" d="M305.9,296.9c-0.3-0.6-0.7-1.2-1.4-1.3c-0.5,0-8.6,0-8.7,0l0-0.1c0,0,0,0,0,0l0,0.1
		c0,0,0,0,0,0c-0.2,0-0.7-0.1-1.1,0.3c0.4-0.4,0.9-0.4,1.1-0.4c0,0,0,0,0,0l0,0.1c0,0,0,0,0,0l0-0.1c0,0,8.2,0,8.7,0
		C305.2,295.5,305.5,296.3,305.9,296.9"/>
	<g id="g925" transform="matrix(1.25, 0, 0, -1.25, -332.505, 1185.55)">
		<g id="g927">
			<g id="g933">
				
					<linearGradient id="path941_1_" gradientUnits="userSpaceOnUse" x1="675.162" y1="983.189" x2="676.7361" y2="983.189" gradientTransform="matrix(0 -178.0524 -178.0524 0 175575.375 120925.5625)">
					<stop  offset="0" style="stop-color:#EDECEC"/>
					<stop  offset="1" style="stop-color:#686566"/>
				</linearGradient>
				<path id="path941" class="st148" d="M521.7,709.9c-0.8-1.5-2.1-4-3.6-6.7l-1.6-2.9l0-0.1l0,0.1c-0.9,1.6-4.8,9-5.7,10.6
					c0.9-1.6,5.1-9.2,5.8-10.6h-0.1l1.6,2.9C519.4,705.9,520.8,708.4,521.7,709.9"/>
			</g>
		</g>
	</g>
	<g id="g943" transform="matrix(1.25, 0, 0, -1.25, -332.505, 1185.55)">
		<g id="g945">
			<g id="g951">
				
					<linearGradient id="path959_1_" gradientUnits="userSpaceOnUse" x1="675.177" y1="983.1781" x2="676.7399" y2="983.1781" gradientTransform="matrix(0 -178.0395 -178.0395 0 175566.3125 120912.2344)">
					<stop  offset="0" style="stop-color:#EDECEC"/>
					<stop  offset="1" style="stop-color:#686566"/>
				</linearGradient>
				<path id="path959" class="st149" d="M519.2,693.6c0.3,0.6,1.4,2.4,1.4,2.4c1.4,2.7,2.9,5.2,3.7,6.6c-0.8-1.5-2.1-4-3.6-6.7
					L519.2,693.6L519.2,693.6"/>
			</g>
		</g>
	</g>
	<g id="g961" transform="matrix(1.25, 0, 0, -1.25, -332.505, 1185.55)">
		<g id="g963">
			<g id="g969">
				
					<linearGradient id="path977_1_" gradientUnits="userSpaceOnUse" x1="675.179" y1="983.1983" x2="676.7546" y2="983.1983" gradientTransform="matrix(0 -178.0257 -178.0257 0 175545.7812 120902.3281)">
					<stop  offset="0" style="stop-color:#EDECEC"/>
					<stop  offset="1" style="stop-color:#686566"/>
				</linearGradient>
				<path id="path977" class="st150" d="M513.7,693.4c-1,1.9-4.2,7.8-5,9.3C509.5,701.2,512.8,695.2,513.7,693.4L513.7,693.4"/>
			</g>
		</g>
	</g>
	<path id="path979" class="st147" d="M331.1,295.7c-0.2-0.1-0.4,0-0.5,0h0c-0.8,0-8.3,0-8.6,0c-0.4,0-0.9,0-1.3,0.7
		c0,0.1-0.6,0.9-1.1,1.8c0.5-1,0.9-1.8,1-1.9c0.4-0.7,1-0.7,1.4-0.7c0.3,0,7.8,0,8.6,0c0,0,0,0,0,0l0,0
		C330.7,295.5,330.9,295.6,331.1,295.7"/>
	<path id="path981" class="st147" d="M336.6,298.3c1-1.5,2.6-2.8,4.7-2.8c3.2-0.1,25,0,25.5,0c0.2,0,0.4,0.1,0.5,0.2
		c-0.1,0-0.4,0-0.5,0c-0.5,0-22.3,0-25.5,0C339.2,295.7,337.5,296.8,336.6,298.3"/>
	<path id="path983" class="st147" d="M343.9,313c1.2,0,16.3,0,21.3,0l1.7,0.1l-1.7,0.1c-4.4,0-16.6,0-20.3,0
		C344.4,313.1,344,313.1,343.9,313"/>
	<path id="path985" class="st147" d="M290.9,304.2c0.1,1.1,0.3,8-0.3,10.2c-0.2,0.8-0.3,1-0.5,1.2c0,0,0.6-1.3,0.5-5.6
		C290.5,305.6,290.9,304.2,290.9,304.2"/>
	<path id="path987" class="st147" d="M291,295.3c0.1,0.6,0,5.2,0.1,6.1c0,0.6-0.1,0.1-0.1,0.2c-0.1-1-0.2-0.7-0.1-2.2
		C290.8,297.9,290.7,296.6,291,295.3"/>
	<path id="path989" class="st151" d="M369.2,313.2c-0.1-0.4-0.1-0.7-0.2-0.8c-0.2-0.2-0.6,0-0.9,0.3c-0.4,0.3-0.5,0.5-0.5,0.6
		c0.3,0,1-0.2,1.1,0.3c0,0.2,0.2,0.6,0.2,2.4c-0.1,1.5,0,2.4-0.4,3c-0.4,0.6-7.6,0.3-14.4,0.3c-13.3,0.1-15.4,0.4-17.5-1.8l0.4,0.8
		c0.4,0.4,1.5,1.5,3.3,1.6c1.7,0.1,27.7,0,27.7,0l0.8,0c0.3-0.2,0.4-0.5,0.4-1C369.3,318.1,369.4,314,369.2,313.2"/>
	<path id="path991" class="st151" d="M325,319.8c-0.2,0-0.7,0.2-1,0c-0.3-0.2-0.4-0.5-0.5-0.9c0-0.3,0-10.2,0-10.6
		c0.2,0.9,0.1,8.5,0.2,9.7c0.4-1.9,0.8-13.6-0.1-10.2l0.8-3.2c0,0,0.2,12.2,0.2,12.4c0,0.7,0.7,0.9,0.6,1.1c0,0.3,0.5,0.3,0.4,0.5
		c-0.3,0.2-1.4-0.5-1.3,0.9c0.2,0.3,0.5,0.3,0.8,0.3C325.4,319.7,325,319.8,325,319.8"/>
	<path id="path993" class="st151" d="M301.6,303.9c-0.6-2.2-0.6-2.9-0.6-2.9l-0.1,0.3c0,0,0,16.1,0,16.4c0,0.3,0,0.7-0.6,0.7
		c-0.6,0-4.7,0-5-0.1c-0.1,0-0.2,0,0.1,0.2c1,0.1,4.6,0.1,4.9,0c0.5,0,0.8-0.2,0.9-0.4c0.7,0.1,1.2,1.5,1.2,1.5
		c0.2-0.2,0.2-0.6,0.2-0.9c0.1-2.1,0-10.4,0-10.7l-0.1,8.5c0,1.4-0.7-7.9-0.8-8.3c-0.3-2.5,0.2-3.3,1-1
		C302.7,307.3,302.2,306.1,301.6,303.9"/>
	<path id="path995" class="st151" d="M323.6,306.5c0.9-4.2-0.6-0.1-1.6,1.4c-1.4,2.7-3,5.2-6.1,10.4l-0.1,0.1
		c-0.1,0.2-0.3,0.3-0.7,0.3l-4.1,0c0,0,0,0,0,0c-0.3-0.1-0.3-0.1-0.5-0.5c0.2,0.4,0.3,0.3,0.5,0.3c0,0,3.6,0,4.1,0
		c0.3,0,0.4-0.1,0.5-0.2c3.7-6.1,8.9-16.4,9.3-16.9c0.1-0.1,0.1-0.2,0.2-0.2L323.6,306.5"/>
	<path id="path997" class="st151" d="M264.8,312.2c-0.2,0-0.8-0.2-1.1,0.6c-0.1-0.3-0.2-0.6-0.2-0.7c0-0.2,0-2.6,0-4.8
		c0-2.1,0-4.3,0-4.8c0-0.3,0.1-0.7,0.3-0.9c0.2,0.3,0.3,0.6,1,0.8c-0.1,0.2-0.1,0.4-0.1,0.5c0,1,0.1,6.5,0,8.8
		C264.7,311.9,264.7,312.1,264.8,312.2"/>
	<path id="path999" class="st151" d="M291.1,302c0.1-0.1,0.2-0.3,0.2-0.6c0,0,0-4.9,0-5.9c0-0.4-0.2-0.7-0.4-0.9c0,0.2,0,0.2,0,0.6
		c0,0.5,0,5.7,0,6.1C291.1,301.7,291,301.9,291.1,302"/>
	<path id="path1001" class="st151" d="M293.7,319.7c-0.2-0.2-0.3-0.5-0.3-0.9c0-0.7,0-22.3,0-22.9c0-0.5,0.2-0.8,0.4-1
		c0.4-0.2,0.6,0.7,0.8,1.1c-0.6-0.6-0.8-0.1-0.8,0.8c0,0.9,0,12.6,0,19.9c0,2.7,0.6-0.2,0.7-0.9c0,1.2,0,1.9,0,2v0
		c0,0.3,0,0.6,0.2,0.8c-0.4,0.1-0.3,0.2-0.5,0.5c-0.1,0.2-0.8,0.2,0.9,0.3c1.8,0,5.4,0,5.4,0c0.1,0,1.2,0.5,0,0.6
		c-1.2,0.1-5.6,0.1-6.2,0.1C293.9,319.9,294,319.8,293.7,319.7"/>
	<path id="path1003" class="st151" d="M274.8,309.2c-0.1-0.2-0.1-0.3-0.1-0.6c0-0.6,0-2.6,0-2.9c-0.2-0.8-0.9-1.2-1.1-0.4
		c0,0.8-0.1,2.2,0.1,3.6c0,0.3,0.1,0.6,0.2,0.8C274.2,310.3,274.6,309.9,274.8,309.2"/>
	<path id="path1017" class="st151" d="M295.2,296.4c0.2-0.3,0.4-0.5,0.6-0.5"/>
	<path id="path1019" class="st151" d="M295.2,296.5c0.2-0.3,0.5-0.2,0.7-0.2c0.2,0,8.3,0,8.6,0c0.3,0,0.4,0.2,0.7,0.8
		c0.3,0.5,7.3,13.4,7.4,13.7c0.2,0.4,0.5,0.7,0.9,0.1c0.3-0.6,7.6-13.9,7.8-14.2c0.2-0.3,0.4-0.3,0.8-0.4c0.3,0,8.6,0,8.6,0
		c0.4,0,0.6,0.3,0.6,0.8c0,0.6,0,20.5,0,20.5c0,0.3-0.1,0.7-0.6,0.7c-0.5,0-4.8,0-4.8,0c-0.2,0-0.4,0-0.4-0.3
		c0.1,0.4,0.2,0.4,0.4,0.4h4.8c0.2,0,0.5,0,0.6-0.1c0.8-0.4,1.1,0.5,1.1,0.8c0,0.3-0.5,0.2-1.3,0.2c-0.8,0.1-6.1,0-6.3,0
		c-0.3-0.1-0.5,0.2-0.7,0.1c-0.2-0.1,0.2,0.4,0.6,0.5c0.4,0,6.9,0,6.9,0s0.7,0,1-0.3c0.2-0.2,0.2-0.7,0.2-1.3c0-1.1,0-21.7,0-22.8
		c0-0.5-0.1-0.7-0.3-0.9c-0.4,0-0.6,0.9-0.2,1.8c0.1,2.9,0.3,21.3-0.9,21.5c0-0.8,0.1-20.3,0.1-20.8c0-0.3,0-0.5-0.1-0.7
		c-0.1-0.4,0.5-0.4,0.5-0.9c0.1-0.8,0,0.1-0.9,0.5c-0.1-0.1-0.2,0-0.4,0l0,0h0c-0.3,0-8.3,0-8.6,0c-0.3,0-0.7,0-1,0.5
		c-0.1,0.2-2.6,4.7-5.6,10.2l-2.2,4c-0.1,0.1-0.1,0.2-0.1,0.2c0,0,0,0,0,0c0,0-0.1-0.1-0.2-0.3c-0.1-0.3-7.1-13.1-7.5-13.7
		c-0.3-0.6-0.5-0.9-1-1c-0.4,0-8.6,0-8.6,0c0,0,0,0,0,0"/>
	<path id="path1021" class="st151" d="M368.2,314.8c-0.1,1.9,0.2,2.4-0.3,3.2c-0.2,0.3-0.5,0.3-1.1,0.3c-0.9,0-23,0.2-25.6,0.1
		c-0.9,0-1.8-0.3-2.5-0.7c-1.1-1-2-1-2.8-1c-0.5-0.8-0.8-1.8-0.9-2.8c0-1.1,0-13.2,0-13.2c0-0.6,0.1-1.2,0.3-1.7
		c1.1-0.9,1.2-0.4,1.5-0.1c0.6-1.2,1.6-2.2,3-2.6l0,0.4c-2.1,0.8-3.3,3-3.3,5c0,1.5,0,8.5,0,11.4c0,2.9,2,5.2,4.8,5.3
		c2.8,0.1,24.9-0.1,25.6-0.1c0.7,0,0.8-0.2,0.8-0.7c0-0.5,0-2.1,0-2.7c0-0.6-0.2-1-0.7-1c-0.5,0-21.6,0-23,0c-1.4,0-1.7-1.2-1.8-1.7
		c-0.1-0.5-0.1-8.5-0.1-9.4c0-0.9,0.6-2,2.1-2c1.4,0,21.9,0,22.7,0c0.8,0,0.8-0.2,0.9-0.8c0-0.7,0-2,0-2.7c0-0.7-0.3-0.9-0.9-0.9
		c-0.5,0-22.3,0-25.5,0c-0.6,0-1.1,0.1-1.6,0.3l0-0.4c0.5-0.2,1-0.3,1.6-0.3c3.2-0.1,25,0,25.5,0c1-0.2,1.8-0.4,2.1-1.1
		c0.2,0.3,0.3,0.7,0.4,1.2c0.1,0.5,0.1,4.2-0.1,5.2c-0.1,0.7-0.2,1-0.5,1.1c0.1-0.2,0-0.4-0.1-0.7c-0.1-0.1,0.7-6.8-0.6-5.5
		c-0.4,0.4-0.2,0.3,0,0.7c0,0.9,0,3.1-0.1,3.4c-0.1,0.2-0.1,0.2-0.2,0.5c-0.2,0.2-0.5,0.3-0.9,0.3c-0.6,0-14.4,0-20.2,0l-2.5,0
		c-0.5,0-1,0.2-1.3,0.5c0.1,0.7,0.1,1,1.1,1.2c-0.1,0.2-0.2,0.4-0.2,0.9c0,0.9,0.1,6.9,0,7.6c0,0.3,0,0.6,0.1,0.7
		c-0.5,0.5-0.8,1.5,0.1,1.6c1.2,0,16.3,0,21.3,0l1.7,0C367.4,313.4,368.1,313.7,368.2,314.8"/>
	<path id="path1023" class="st147" d="M294.4,309.4c0.1,3.1,0.2,5.9,0.2,5.9l0.1-14l0-4.4c0-0.3,0.2-0.9,0.4-1.1
		c-0.7,0.2-0.7,0.7-0.7,1.1l-0.1,4.4C294.3,301.4,294.3,305.7,294.4,309.4"/>
	<path id="path1025" class="st147" d="M257.8,316.2c-0.5-0.8-0.8-1.8-0.9-2.8c-0.1-1.3-0.1-11.6-0.1-12.1c0,0,0-0.1,0-0.1
		c0.1-0.5,0-0.9,0.3-1.7c-0.3,0.8-0.6,1.2-0.6,1.7l0,0.1c0,0.5,0,10.9,0.1,12.2C256.8,314.5,257.3,315.4,257.8,316.2"/>
	<path id="path1027" class="st147" d="M336.6,315.7c-0.4-0.8-0.5-1.8-0.5-2.8c0,0,0-4.7,0-4.7c0-2.9,0-5.8,0-6.7
		c0-0.7,0-1.4,0.3-2.1c-0.3,0.7-0.7,1.4-0.7,2.1c0,0.9,0,3.9,0,6.7l0,4.7C335.7,314,336.2,314.9,336.6,315.7"/>
	<path id="path1029" class="st147" d="M367.8,296.5c0.2,0.4,0.2,0.4,0.2,0.8c0,0.3,0,0.6,0,1c0,1.7-0.1,2.2-0.1,2.2s0.4-0.5,0.5-2.2
		c0-0.2,0-0.2,0-0.7C368.3,297.2,368.2,296.8,367.8,296.5"/>
	<path id="path1031" class="st147" d="M367.5,313.5c0.4,0.2,0.5,0.9,0.5,1.1c0,0.7-0.1,2.9-0.1,3.3c0-0.2,0.4,0,0.4-1.9
		c0-0.5,0.1-1.1,0-1.4C368.3,314,367.9,313.7,367.5,313.5"/>
	<path id="path1033" class="st147" d="M342.6,301.9c-0.1,0.3-0.3,0.6-0.2,0.8c0,0.3,0,1.3,0,2.6c0,2.4,0.1,6.4,0.1,6.8
		c0.1,0.6,0.3,0.9,0.7,1.2c-0.3-0.2-0.3-0.5-0.4-1.1c0-0.3-0.1-4.3-0.1-6.7c0-1.3,0-2.3,0-2.6C342.6,302.6,342.5,302.1,342.6,301.9"
		/>
	<path id="path1035" class="st151" d="M265,300.6c-0.6,0-1.1,0.1-1.4,0.5c-0.4,0.4-0.6,0.9-0.5,1.4c0,0.6,0,2.7,0,4.8
		c0,2.4,0,4.7,0,4.8c0.1,0.9,0.6,1.8,2,1.9c-1.3,0-1.8-1-1.8-1.9c0-0.1,0-2.5,0-4.8c0-2.1,0-4.3,0-4.8c0-0.5,0.2-1,0.5-1.3
		C264,300.9,264.4,300.6,265,300.6"/>
	<path id="path1037" class="st151" d="M310.1,319.7c0.4,0.3,0.6,0.2,1.8,0.2c1.2,0,4,0.1,4.2-0.1c0.3-0.2,0.4-0.4,0.3-0.5
		c-0.2-0.3-0.3-0.5-0.3-0.5s-0.2,0.6-1.1,0.6c-0.7,0.1-1.3-0.1-1.7-0.1c-0.7,0-1.2,0.1-1.9,0c0,0-1,0.2-0.9-0.2
		c0.1-0.2,0.1-0.4,0.1-0.4s-0.1,0-0.3,0.3C310,319.5,309.7,319.4,310.1,319.7"/>
	<path id="path1039" class="st151" d="M302.7,304.2l0.4,2c0,0-0.1-1.1,0.7,0.4c0.5,0.9,5.4,9.7,5.4,9.7L302.7,304.2"/>
	<path id="path1041" class="st152" d="M275.9,305.6c-0.3,0-0.4,0.1-0.4,0.4c0,0.2-0.1,0-0.1,0l0-0.5L275.9,305.6L275.9,305.6"/>
	<path id="path1043" class="st153" d="M275.9,305.8c-0.2,0-0.2,0.1-0.2,0.2l0-0.2L275.9,305.8"/>
	<path id="path1045" class="st152" d="M288.8,305.6c0.2,0,0.5,0.2,0.5,0.4c0,0.2,0.1,0,0.1,0l0-0.5L288.8,305.6L288.8,305.6"/>
	<path id="path1047" class="st153" d="M288.8,305.8c0.2,0,0.3,0,0.3,0.2l0-0.2L288.8,305.8"/>
	<path id="path1049" class="st112" d="M366.7,314.4c0.2,0,0.3,0,0.3,0.2l0-0.2L366.7,314.4"/>
	<g id="g1051" transform="matrix(1.25, 0, 0, -1.25, -332.505, 1185.55)">
		<g id="g1053">
			<g id="g1059">
				
					<linearGradient id="path1073_1_" gradientUnits="userSpaceOnUse" x1="674.634" y1="983.629" x2="676.2034" y2="983.629" gradientTransform="matrix(0 -270.4483 -270.4483 0 266505.6562 183166.6406)">
					<stop  offset="0" style="stop-color:#EDECEC"/>
					<stop  offset="0.29" style="stop-color:#929090"/>
					<stop  offset="0.51" style="stop-color:#EDECEC"/>
					<stop  offset="0.81" style="stop-color:#D4D4D4"/>
					<stop  offset="1" style="stop-color:#706E6E"/>
				</linearGradient>
				<path id="path1073" class="st154" d="M499,698.2c0-0.5-0.1-1.8-0.7-3.1c-0.8-1.6-2.1-2.4-4-2.4c-3.7,0-18.6,0-18.7,0
					c-1.1,0-2.2,0.4-3.1,1.2c-1.1,1-1.6,2.4-1.7,4.1c-0.1,2.6,0,7.5,0,9.4c0,0.5,0,0.6,0,0.7c0,0.1,0,0.3,0,0.4
					c0.1,0.8,1,3.6,4.2,4.1c0.3,0,0.3,0,0.5,0c0.2,0,7.4,0,13.1,0.1c4.7,0,8.8,0,9.2,0c0.7,0,1.1-0.1,1.1-0.7c0-0.8,0-4.6,0-4.7
					c0-0.1,0-0.2-0.1-0.3c0,0-0.1-0.1-0.3-0.1c-0.3,0-19,0-20.2,0c-0.2,0-0.4-0.1-0.5-0.2c-0.2-0.2-0.2-0.5-0.2-0.6
					c0-0.1,0.1-5.5,0-7c0-0.3,0-0.5,0.1-0.6c0.1-0.1,0.2-0.1,0.3-0.1h13.6c0.3,0,0.4,0.2,0.4,0.4c0,0.2,0,0.5,0,0.7
					c-0.1,0.3-0.3,0.3-0.5,0.3c0,0-3.5,0-5,0c-0.9,0-1.4,0.5-1.5,1.4c-0.1,0.7,0,2.1,0,2.7c0,0.1,0,0.2,0,0.2c0,0.7,0.7,1.2,1.3,1.3
					c1.1,0.1,9.9,0.1,11.9,0c0.2,0,0.6-0.1,0.6-0.7C499,704.2,499,698.4,499,698.2z M499.2,704.8c0,0.7-0.4,0.9-0.8,0.9
					c-2,0.1-10.8,0.1-12,0c-0.8-0.1-1.5-0.7-1.5-1.5c0-0.2,0-2.1,0-2.9c0.1-1.1,0.7-1.6,1.7-1.6c1.7,0,5,0,5,0c0.1,0,0.3,0,0.3-0.1
					c0-0.2,0-0.5,0-0.7c0-0.1-0.1-0.2-0.2-0.2c0,0-13.6,0-13.6,0c-0.1,0-0.1,0-0.2,0.1c-0.1,0.1-0.1,0.2-0.1,0.5c0,1.6,0,7,0,7
					c0,0.1,0,0.3,0.1,0.4c0.1,0.1,0.2,0.1,0.4,0.1c1.2,0,19.9,0,20.2,0c0.2,0,0.4,0,0.4,0.1c0.1,0.1,0.1,0.2,0.1,0.5
					c0,0,0,3.9,0,4.7c0,0.9-0.8,0.9-1.4,1c-0.8,0-22.2-0.1-22.3-0.1c-2.1-0.1-3.3-1.1-3.9-2c-0.8-1-1-2.2-1-2.8
					c0-0.2-0.1-6.8,0-10.1c0-1.8,0.7-3.3,1.8-4.3c0.9-0.8,2.1-1.3,3.2-1.3c0,0,15,0,18.7,0c2,0,3.4,0.8,4.2,2.5
					c0.6,1.3,0.7,2.7,0.7,3.2C499.2,698.2,499.2,704.2,499.2,704.8"/>
			</g>
		</g>
	</g>
	<g id="g1075" transform="matrix(1.25, 0, 0, -1.25, -332.505, 1185.55)">
		<g id="g1077">
			<g id="g1083">
				
					<linearGradient id="path1097_1_" gradientUnits="userSpaceOnUse" x1="674.6334" y1="983.5947" x2="676.2022" y2="983.5947" gradientTransform="matrix(0 -270.585 -270.585 0 266662.375 183258.7344)">
					<stop  offset="0" style="stop-color:#EDECEC"/>
					<stop  offset="0.29" style="stop-color:#929090"/>
					<stop  offset="0.51" style="stop-color:#EDECEC"/>
					<stop  offset="0.81" style="stop-color:#D4D4D4"/>
					<stop  offset="1" style="stop-color:#706E6E"/>
				</linearGradient>
				<path id="path1097" class="st155" d="M500.9,693.4c0-0.7,0.3-0.8,0.5-0.8c0.7,0,5.3,0,5.8,0c0.5,0,0.5,0.2,0.6,0.6
					c0,0,0,8.4,0,8.7l0,0c-0.1,0.3,0.1,0.6,0.3,0.7c0.2,0.1,0.5,0,0.6-0.3c0.3-0.7,4.5-8.4,4.9-9c0.4-0.7,0.9-0.7,1-0.7
					c0.2,0,3.3,0,3.6,0c0.4,0,0.4,0,0.7,0.4c0.1,0.1,5,9,5.2,9.3c0.2,0.3,0.3,0.3,0.5,0.3c0.3-0.1,0.3-0.6,0.3-0.8
					c0-0.3,0-8.5,0-8.5c0-0.2,0.1-0.4,0.2-0.5c0.1-0.1,0.2-0.2,0.4-0.2l1.3,0c1.7,0,4.2,0,4.3,0c0.7,0.1,0.7,0.2,0.7,1
					c0,0,0,17.6,0,18.3c0,0.6-0.1,0.7-0.9,0.7c-0.4,0-7.4,0-7.8,0c0,0-0.8,0-1.3-0.8c-0.7-1.1-4.4-7.9-4.9-9
					c-0.2-0.5-0.4-0.6-0.6-0.7c0,0,0,0,0,0c0,0,0.1,0,0,0c-0.3-0.1-0.4,0.1-0.7,0.7c-0.3,0.8-4.8,8.9-4.8,9c-0.2,0.4-0.6,1-1.4,0.9
					c0,0-7.4,0-7.6,0c-0.8-0.1-1.1-0.4-1.1-1v0C500.9,711.5,500.9,693.7,500.9,693.4z M500.7,700.5c0,4.9,0,11,0,11.3l0,0v0
					c0,0.9,0.5,1.1,1.3,1.2c0.3,0,4.4,0,6.5,0c0.6,0,1.1,0,1.1,0c1,0,1.4-0.7,1.6-1c0,0,4.5-8.2,4.8-9c0.3-0.6,0.4-0.6,0.5-0.6l0,0
					c0,0,0,0,0,0c0.1,0,0.2,0,0.4,0.5c0.5,1.1,4.2,8,4.9,9c0.6,0.9,1.1,0.9,1.5,0.9c0,0,7.4,0,7.8,0c0.8,0,1.1-0.2,1.1-0.9
					c0-0.7,0-18.3,0-18.3c0-0.8,0-1.1-0.9-1.3c-0.1,0-5.6,0-5.6,0c-0.3,0-0.5,0.1-0.6,0.3c-0.2,0.2-0.3,0.4-0.3,0.7c0,0,0,8.2,0,8.5
					c0,0.2-0.1,0.6-0.2,0.6c-0.1,0-0.1,0-0.2-0.2c-0.2-0.3-5.1-9.2-5.2-9.3c-0.3-0.4-0.3-0.5-0.8-0.5c-0.3,0-3.5,0-3.6,0
					c-0.2,0-0.8,0-1.2,0.8c-0.3,0.6-4.6,8.3-4.9,9c-0.1,0.2-0.2,0.3-0.4,0.2c-0.1,0-0.2-0.2-0.2-0.5c0-0.3,0-8.7,0-8.7
					c0-0.4,0-0.8-0.8-0.8c-0.5,0-5.2,0-5.8,0c-0.3,0-0.7,0.2-0.8,1C500.7,693.7,500.7,696.8,500.7,700.5"/>
			</g>
		</g>
	</g>
	<g id="g1099" transform="matrix(1.25, 0, 0, -1.25, -332.505, 1185.55)">
		<g id="g1101">
			<g id="g1107">
				
					<linearGradient id="path1121_1_" gradientUnits="userSpaceOnUse" x1="674.6338" y1="983.5601" x2="676.2035" y2="983.5601" gradientTransform="matrix(0 -270.45 -270.45 0 266551.5625 183167.875)">
					<stop  offset="0" style="stop-color:#EDECEC"/>
					<stop  offset="0.29" style="stop-color:#929090"/>
					<stop  offset="0.51" style="stop-color:#EDECEC"/>
					<stop  offset="0.81" style="stop-color:#D4D4D4"/>
					<stop  offset="1" style="stop-color:#706E6E"/>
				</linearGradient>
				<path id="path1121" class="st156" d="M534.1,697.3L534.1,697.3c0.1-1.2,0.6-2.4,1.5-3.3c0.9-0.9,2-1.3,3.2-1.3
					c0.2,0,21.4,0,21.9,0c0.5,0,0.5,0.2,0.6,0.7c0,0.6,0.1,3.8,0,4.4c0,0,0,0,0,0.1c-0.1,0.7-0.1,0.7-1.4,0.7c-1.8,0-18.2,0-18.4,0
					c-0.2,0-0.3,0.1-0.4,0.2c-0.1,0.2-0.2,0.4-0.2,0.8c0,0.5,0,5.4,0,6.1c0,0.7,0.2,1,0.8,1.1h0c0,0,13.6,0,17.6,0h1.3
					c0.5,0,0.5,0,0.7,0.8c0.1,0.8,0.1,3.7,0.1,4.1c-0.1,0.7-0.3,1.1-1,1.1c-1.2,0-21.3,0-21.8-0.1c-0.9,0-2-0.5-2.8-1.3
					c-0.9-0.9-1.5-2.1-1.5-3.4C534.1,707.9,534.1,697.3,534.1,697.3z M533.9,707.9c0,1.3,0.6,2.6,1.5,3.6c0.9,0.8,2,1.4,3,1.4
					c0.4,0,20.6,0.1,21.8,0c0.9,0,1.2-0.5,1.3-1.3c0-0.4,0.1-3.4-0.1-4.2c-0.2-0.8-0.3-1-0.9-1l-1.3,0c-4,0-16.1,0-17.6,0
					c-0.4,0-0.6-0.2-0.6-0.8c0-0.6,0.1-5.5,0-6.1c0-0.3,0-0.5,0.1-0.6c0.1-0.1,0.1-0.1,0.3-0.1c0.1,0,16.5,0,18.4,0
					c1.4,0,1.5-0.1,1.7-0.9l0-0.1c0.1-0.7,0-4,0-4.5c0-0.5-0.1-0.9-0.8-0.9c-0.5,0-21.6,0-21.8,0c-1.2,0-2.4,0.5-3.3,1.4
					c-0.9,0.9-1.4,2.1-1.5,3.4C533.9,697.3,533.9,707.9,533.9,707.9"/>
			</g>
		</g>
	</g>
	<g id="g1123" transform="matrix(1.25, 0, 0, -1.25, -332.505, 1185.55)">
		<g id="g1125">
			<g id="g1131">
				
					<linearGradient id="path1143_1_" gradientUnits="userSpaceOnUse" x1="674.3416" y1="983.8549" x2="675.9182" y2="983.8549" gradientTransform="matrix(3.2669 -382.983 -382.983 -3.2669 375081.4375 262188.125)">
					<stop  offset="0" style="stop-color:#ED192D"/>
					<stop  offset="0.98" style="stop-color:#231F20"/>
					<stop  offset="0.98" style="stop-color:#231F20"/>
					<stop  offset="1" style="stop-color:#231F20"/>
				</linearGradient>
				<path id="path1143" class="st157" d="M497.3,708.4c-0.3,0-12.8,0-19.3,0c-0.6,0-1.1-0.2-1.4-0.6c-0.4-0.4-0.6-0.9-0.6-1.5
					c0-0.4,0-2.1,0-3.8c0-2.6,0-3.8,0-3.9c0.1-0.9,0.6-1.9,2-2c1.1,0,12.9,0,13.6,0c0.9,0,1.9,0.6,1.9,2.1c0,1.3,0,1.6,0,1.8
					c0,0,0,0,0,0c0,0.5-0.3,0.8-0.9,0.8c-0.3,0-2.9,0-5.4,0l-0.7,0c0,0-0.1,0-0.1,0c0,0,0,0.1,0,0.1c0,0.4,0,2,0,2.2
					c0,0,0.1,0,0.2,0c0,0,10,0,10.6,0c0,0,0-0.1,0-0.2c0-0.5,0-4.2,0-5.3l0-0.4c0-0.7-0.6-3.4-3.4-3.5c-2.5-0.1-13.4-0.1-18,0
					l-0.3,0c0,0-3.1,0.3-3.4,3.5c-0.1,1-0.1,9-0.1,9.6c0,0.5,0.7,3.5,3.4,3.6c2.8,0.1,21,0,21.6,0c0,0,0.1,0,0.1,0c0,0,0,0,0,0
					c0,0,0-0.1,0-0.2c0-0.5,0-1.4,0-1.9C497.3,708.7,497.3,708.5,497.3,708.4C497.3,708.4,497.3,708.4,497.3,708.4z M497.4,708.9
					c0,0.5,0.1,1.2,0.1,1.7c0,0.2-0.1,0.4-0.1,0.4l0,0c0,0,0,0,0,0l0,0c0,0,0,0-0.1,0c0,0-0.1,0-0.1,0c-0.6,0-18.7,0.1-21.6,0
					c-2.8-0.1-3.5-3.1-3.5-3.6c0-0.7,0-8.7,0.1-9.7c0.3-3.2,3.4-3.6,3.4-3.6h0.3c4.6,0,15.6,0,18,0c2.8,0.1,3.4,2.9,3.4,3.6l0,0.4
					c0,1.2,0,4.8,0,5.4c0,0.1,0,0.2,0,0.2l0,0.1c0,0-0.1,0-0.1,0.1l-0.1,0c0,0,0,0,0,0c-0.7,0-10.6,0-10.6,0c-0.1,0-0.1,0-0.2,0
					c0,0,0,0,0,0l-0.1,0c0,0,0,0,0-0.1l0-0.1c0,0,0,0,0,0c0-0.3,0-1.8,0-2.2c0-0.1,0-0.2,0-0.2l0,0l0,0c0,0,0,0,0,0l0,0
					c0,0,0.1,0,0.1,0l0.7,0c2.5,0,5.1,0,5.4,0c0.5,0,0.8-0.3,0.8-0.7l0,0c0-0.2,0-0.5,0-1.8c0-1.5-1-2-1.9-2c-0.7,0-12.5,0-13.6,0
					c-1.3,0-1.9,1-1.9,1.9c0,0.1,0,1.3,0,3.9c0,1.7,0,3.4,0,3.8c0,0.5,0.2,1,0.5,1.4c0.3,0.4,0.8,0.6,1.4,0.6c6.5,0,19,0,19.3,0
					c0.1,0,0.1,0,0.1,0l0,0c0,0,0,0,0,0c0,0,0,0,0,0l0,0c0,0,0,0,0,0C497.4,708.5,497.4,708.7,497.4,708.9"/>
			</g>
		</g>
	</g>
	<g id="g1145" transform="matrix(1.25, 0, 0, -1.25, -332.505, 1185.55)">
		<g id="g1147">
			<g id="g1153">
				
					<linearGradient id="path1165_1_" gradientUnits="userSpaceOnUse" x1="674.3425" y1="983.8294" x2="675.9187" y2="983.8294" gradientTransform="matrix(3.2625 -382.488 -382.488 -3.2625 374619.2812 261850.5625)">
					<stop  offset="0" style="stop-color:#ED192D"/>
					<stop  offset="0.98" style="stop-color:#231F20"/>
					<stop  offset="0.98" style="stop-color:#231F20"/>
					<stop  offset="1" style="stop-color:#231F20"/>
				</linearGradient>
				<path id="path1165" class="st158" d="M526.7,694.2c0,0,0,0.1,0,0.2c0,0.7,0,12.5,0,13v0l0,0l0,0c-0.1,0.3-0.3,0.6-0.5,0.6
					c-0.2,0-0.5,0-0.7-0.5c0-0.1-0.2-0.3-0.4-0.7c-1.1-2.1-4.5-8.6-7-12.8c0,0,0,0,0,0c0,0-3,0-3.2,0c0,0,0,0,0,0
					c-0.1,0.1-1.3,2.3-2.5,4.7l0,0c-3.3,6-4.7,8.8-4.8,8.9c-0.3,0.4-0.7,0.4-0.8,0.3c-0.1,0-0.5-0.2-0.5-0.8c0-0.1,0-12.8,0-13.1
					c0,0,0,0,0-0.1c0,0,0,0-0.1,0c-0.5,0-3.1,0-3.7,0c0,0,0,0,0,0l0,0c0,0.3,0,8.6,0,13.1l0,3.5c0,0,0,0.1,0,0.1c0,0,0,0,0,0
					c0,0,0.1,0,0.1,0c0.2,0,6.3,0,6.8,0c0-0.1,0.1-0.2,0.2-0.4c0.3-0.5,5.8-10.7,6-10.9c0.3-0.5,0.6-0.6,0.8-0.6
					c0.2,0,0.5,0.1,0.7,0.5l1.8,3.2c1.7,3.2,4.3,7.9,4.4,8.1c0,0.1,0,0.1,0.2,0.1c0.2,0,4.2,0,6.8,0c0,0,0-0.1,0-0.2
					c0-0.4,0-12,0-16.4c0,0,0,0,0,0c0,0,0,0,0,0L526.7,694.2L526.7,694.2z M509.5,711L509.5,711L509.5,711L509.5,711z M509.5,711
					C509.5,711,509.5,711,509.5,711L509.5,711L509.5,711L509.5,711z M530.5,710.9L530.5,710.9C530.5,710.9,530.5,710.9,530.5,710.9
					L530.5,710.9C530.5,710.9,530.5,710.9,530.5,710.9L530.5,710.9c-2.7,0-6.7,0-6.9,0c-0.2,0-0.2,0-0.3-0.1c-0.1-0.2-2.7-5-4.4-8.1
					l-1.8-3.2c-0.2-0.4-0.5-0.5-0.7-0.5c-0.2,0-0.5,0.1-0.7,0.6c-0.1,0.2-5.7,10.5-6,10.9c-0.1,0.2-0.2,0.3-0.2,0.4l0,0l0,0
					c0,0,0,0,0,0l0,0h0c-0.3,0-6.4,0-6.8,0c0,0-0.1,0-0.1,0c0,0-0.1,0-0.1,0l0,0c0,0,0,0,0,0l0,0c0,0,0-0.1,0-0.1l0-3.5
					c0-4.5,0-12.8,0-13.1c0,0,0,0,0,0c0-0.1,0.1-0.1,0.1-0.1c0.7,0,3.2,0,3.7,0c0,0,0,0,0.1,0l0,0c0,0,0.1,0,0.1,0l0,0.1
					c0,0,0,0,0,0.1c0,0.3,0,13,0,13.1c0,0.5,0.3,0.7,0.4,0.7c0.1,0,0.4,0.1,0.7-0.3c0.1-0.2,1.6-2.9,4.8-8.9l0,0
					c1.3-2.3,2.4-4.5,2.5-4.7c0,0,0,0,0,0l0-0.1l0.1,0l3.2,0c0,0,0.1,0,0.1,0l0,0l0,0c2.5,4.1,5.9,10.6,7,12.8
					c0.2,0.4,0.3,0.6,0.4,0.7c0.2,0.4,0.5,0.4,0.6,0.4c0.2,0,0.4-0.2,0.5-0.5c0,0,0,0,0,0v0c0-0.5,0-12.3,0-13c0-0.1,0-0.2,0-0.2
					c0,0,0-0.1,0.1-0.1h3.8c0,0,0.1,0,0.1,0c0,0,0,0.1,0,0.1c0,4.4,0,16,0,16.4C530.5,710.8,530.5,710.9,530.5,710.9"/>
			</g>
		</g>
	</g>
	<g id="g1189" transform="matrix(1.25, 0, 0, -1.25, -332.505, 1185.55)">
		<g id="g1191">
			<g id="g1197">
				
					<linearGradient id="path1209_1_" gradientUnits="userSpaceOnUse" x1="674.342" y1="983.8054" x2="675.9128" y2="983.8054" gradientTransform="matrix(3.2634 -382.6356 -382.6356 -3.2634 374785.8438 261951.0312)">
					<stop  offset="0" style="stop-color:#ED192D"/>
					<stop  offset="0.98" style="stop-color:#231F20"/>
					<stop  offset="0.98" style="stop-color:#231F20"/>
					<stop  offset="1" style="stop-color:#231F20"/>
				</linearGradient>
				<path id="path1209" class="st159" d="M559.4,708.3c-0.5,0-11.5,0-16.1,0l-2,0c-0.8,0-1.3-0.4-1.6-0.6c-0.4-0.4-0.6-0.9-0.6-1.4
					c0-0.2,0-1,0-2.1c0-2.9,0.1-5.2,0.1-5.5c0.1-1.1,0.8-1.8,1.9-1.8c1,0,13.1,0,17,0l1.4,0c0,0,0,0,0,0c0,0,0-0.1,0-0.3
					c0-0.5,0-1.7,0-2.1c0,0,0-0.1,0-0.1c0,0-0.1,0-0.2,0c-0.8,0-18.3-0.1-20.5-0.1c-1.9,0-3.4,1.6-3.4,3.7l0,3.7c0,2.3,0,4.7,0,5.4
					c0,1.8,1.3,3.7,3.5,3.7c2.5,0.1,19.9,0,20.4,0c0.3,0,0.3,0,0.2-0.2c0-0.2,0-0.5,0-0.9c0-0.4,0-1,0-1.3c0,0,0-0.1,0-0.2
					C559.6,708.3,559.5,708.3,559.4,708.3z M559.4,711c-0.4,0-17.9,0-20.4,0c-2.2,0-3.6-2-3.5-3.8c0-0.7,0-3.1,0-5.4l0-3.7
					c0-2.1,1.5-3.7,3.4-3.8c2.1-0.1,19.7,0,20.5,0.1c0.1,0,0.2,0,0.2,0l0.1,0c0,0,0,0.1,0,0.1c0,0.4,0,1.7,0,2.1
					c0,0.3-0.1,0.3-0.1,0.3l0,0l0,0l0,0l0,0c0,0,0,0-0.1,0l-1.4,0c-4,0-16.1,0-17,0c-1,0-1.7,0.7-1.8,1.8c0,0.3-0.1,2.6-0.1,5.5
					c0,1,0,1.8,0,2.1c0,0.5,0.2,1,0.5,1.4c0.3,0.3,0.7,0.6,1.5,0.6l2,0c4.7,0,15.7,0,16.1,0c0.1,0,0.1,0,0.2,0v0l0.1,0l0,0h0
					c0,0.1,0,0.1,0,0.2c0,0.3,0,0.8,0,1.3c0,0.3,0,0.6,0,0.9C559.7,710.9,559.7,711,559.4,711"/>
			</g>
		</g>
	</g>
	<g id="g1211" transform="matrix(1.25, 0, 0, -1.25, -332.505, 1185.55)">
		<g id="g1213">
			<g id="g1219">
				
					<linearGradient id="path1227_1_" gradientUnits="userSpaceOnUse" x1="674.5335" y1="983.7019" x2="676.1032" y2="983.7019" gradientTransform="matrix(-2.539728e-05 -299.655 -299.655 2.539728e-05 295255.9688 202841.8906)">
					<stop  offset="0" style="stop-color:#FFFFFF"/>
					<stop  offset="1" style="stop-color:#ED192D"/>
				</linearGradient>
				<path id="path1227" class="st160" d="M473.2,695.4c-0.5,0.5-0.8,1.3-0.9,2.3c-0.1,1-0.1,9-0.1,9.6c0,0.5,0.6,3.5,3.4,3.5
					c2.3,0.1,15.3,0,21.1,0c0.1,0,0.2,0,0.2,0c0.1,0,0.3,0,0.3,0c0.1-0.1,0.1-2,0.1-2.4l0.1,1.2c0,1-0.1,1.3-0.1,1.4
					c-0.2,0.1-0.4,0.1-0.4,0.1c-5.6,0-19,0.1-21.3,0c-2.8-0.1-3.5-3.1-3.5-3.7c0-0.7,0-8.7,0.1-9.7
					C472.3,696.7,472.7,696,473.2,695.4"/>
			</g>
		</g>
	</g>
	<g id="g1229" transform="matrix(1.25, 0, 0, -1.25, -332.505, 1185.55)">
		<g id="g1231">
			<g id="g1237">
				
					<linearGradient id="path1245_1_" gradientUnits="userSpaceOnUse" x1="674.4715" y1="983.7513" x2="676.0337" y2="983.7513" gradientTransform="matrix(-2.539728e-05 -323.3127 -323.3127 2.539728e-05 318544.0625 218775.6562)">
					<stop  offset="0" style="stop-color:#FFFFFF"/>
					<stop  offset="1" style="stop-color:#ED192D"/>
				</linearGradient>
				<path id="path1245" class="st161" d="M492.7,701.4c0.5,0,0.7-0.3,0.8-0.8v0c0-0.2,0-0.5,0-1.8c0-1.4-1-2-1.8-2
					c-0.7,0-12.5,0-13.6,0c-1.3,0-1.8,1-1.9,1.8c0,0.1,0,2.3,0,4.3c0,1.7,0,3.3,0,3.5c0,0.5,0.2,1,0.5,1.4c0.3,0.4,0.8,0.6,1.3,0.6
					c-0.6,0-1.1-0.1-1.4-0.5c-0.4-0.4-0.6-0.9-0.6-1.5c0-0.2,0-1.8,0-3.5c0-2.6,0-4.2,0-4.3c0.1-0.9,0.6-2,2-2c1.1,0,12.9,0,13.6,0
					c0.9,0,2,0.6,2,2.1c0,1.3,0,1.6,0,1.8c0,0,0,0,0,0C493.6,701.1,493.3,701.4,492.7,701.4"/>
			</g>
		</g>
	</g>
	<g id="g1247" transform="matrix(1.25, 0, 0, -1.25, -332.505, 1185.55)">
		<g id="g1249">
			<g id="g1255">
				
					<linearGradient id="path1263_1_" gradientUnits="userSpaceOnUse" x1="674.4725" y1="983.743" x2="676.0405" y2="983.743" gradientTransform="matrix(-2.539728e-05 -322.9646 -322.9646 2.539728e-05 318206.125 218541.1719)">
					<stop  offset="0" style="stop-color:#FFFFFF"/>
					<stop  offset="1" style="stop-color:#ED192D"/>
				</linearGradient>
				<path id="path1263" class="st162" d="M497.3,703.8c0-0.7,0-4.3,0-5.9c0-0.5-0.3-2.1-1.5-3c1.3,0.9,1.6,2.5,1.6,3
					c0,2,0,6.1,0,6.1c0,0-10.9,0-11,0c0,0-0.1,0-0.1-0.1c0-0.3,0-1.9,0-2.3c0-0.2,0-0.2,0.2-0.2c0,0-0.1,0.1-0.1,0.1c0,0,0,0,0,0.1
					c0,0.4,0,1.7,0,2.2C487.5,703.8,496.3,703.8,497.3,703.8"/>
			</g>
		</g>
	</g>
	<g id="g1265" transform="matrix(1.25, 0, 0, -1.25, -332.505, 1185.55)">
		<g id="g1267">
			<g id="g1273">
				
					<linearGradient id="path1281_1_" gradientUnits="userSpaceOnUse" x1="674.4708" y1="983.7328" x2="676.0405" y2="983.7328" gradientTransform="matrix(-2.539728e-05 -323.4976 -323.4976 2.539728e-05 318741.9375 218900.2344)">
					<stop  offset="0" style="stop-color:#FFFFFF"/>
					<stop  offset="1" style="stop-color:#ED192D"/>
				</linearGradient>
				<path id="path1281" class="st163" d="M507.4,707.8c-0.3,0.5-0.7,0.4-0.8,0.4c-0.1,0-0.5-0.2-0.5-0.8c0-0.1,0.1-10.3,0.1-12.7
					c0,1.9,0.1,12.6,0.1,12.7c0,0.5,0.3,0.6,0.4,0.6C506.8,708.1,507.1,708.2,507.4,707.8"/>
			</g>
		</g>
	</g>
	<g id="g1283" transform="matrix(1.25, 0, 0, -1.25, -332.505, 1185.55)">
		<g id="g1285">
			<g id="g1291">
				
					<linearGradient id="path1299_1_" gradientUnits="userSpaceOnUse" x1="674.535" y1="983.6794" x2="676.1054" y2="983.6794" gradientTransform="matrix(-2.539728e-05 -299.1365 -299.1365 2.539728e-05 294761.9688 202492.6406)">
					<stop  offset="0" style="stop-color:#FFFFFF"/>
					<stop  offset="1" style="stop-color:#ED192D"/>
				</linearGradient>
				<path id="path1299" class="st164" d="M512.7,705.1c-0.4,0.7-0.7,1.4-1,2c-1,1.9-1.8,3.4-2,3.7c0,0,0,0.2-0.1,0.2
					c-0.1,0-0.3,0-0.4,0c-0.8,0-5.6,0-5.6,0c0,0-1.1,0.1-1.2,0c0-0.2,0-0.6,0-0.6c0-0.1,0-13.2,0-15.8c0,0,0.1,15,0.1,16.3
					c0.7,0,6.1,0,6.9,0c0.1,0,0.1,0,0.1,0c0-0.1,0.6-1.1,0.6-1.1l1.5-2.8C511.9,706.4,512.3,705.7,512.7,705.1"/>
			</g>
		</g>
	</g>
	<g id="g1301" transform="matrix(1.25, 0, 0, -1.25, -332.505, 1185.55)">
		<g id="g1303">
			<g id="g1309">
				
					<linearGradient id="path1317_1_" gradientUnits="userSpaceOnUse" x1="674.4717" y1="983.7125" x2="676.0397" y2="983.7125" gradientTransform="matrix(-2.539728e-05 -323.183 -323.183 2.539728e-05 318444.5 218688.3438)">
					<stop  offset="0" style="stop-color:#FFFFFF"/>
					<stop  offset="1" style="stop-color:#ED192D"/>
				</linearGradient>
				<path id="path1317" class="st165" d="M526.6,696.1c0,3.5,0.1,11.3,0.1,11.3v0l0,0l0,0c-0.1,0.3-0.3,0.6-0.6,0.6
					c-0.2,0-0.5,0-0.7-0.5c0,0-0.6-1.3-1.6-3l1.7,2.9c0.2,0.3,0.4,0.4,0.6,0.4c0.2,0,0.4-0.2,0.4-0.5l0,0v0v0
					C526.6,707.4,526.6,699.8,526.6,696.1"/>
			</g>
		</g>
	</g>
	<g id="g1319" transform="matrix(1.25, 0, 0, -1.25, -332.505, 1185.55)">
		<g id="g1321">
			<g id="g1327">
				
					<linearGradient id="path1335_1_" gradientUnits="userSpaceOnUse" x1="674.6658" y1="983.583" x2="676.236" y2="983.583" gradientTransform="matrix(1.2234 -265.5391 -265.5391 -1.2234 260871.8438 181059.5312)">
					<stop  offset="0" style="stop-color:#FFFFFF"/>
					<stop  offset="1" style="stop-color:#ED192D"/>
				</linearGradient>
				<path id="path1335" class="st166" d="M520,704.8c-1.4-2.5-2.8-5-2.9-5.2c-0.2-0.4-0.5-0.5-0.6-0.5c-0.2,0-0.5,0.1-0.7,0.6
					c0,0.1-0.4,0.6-0.9,1.5c0.5-0.9,0.7-1.5,0.7-1.5c0.3-0.5,0.6-0.6,0.8-0.7c0.2,0,0.5,0.1,0.8,0.5
					C517.2,699.5,518.5,702,520,704.8"/>
			</g>
		</g>
	</g>
	<g id="g1337" transform="matrix(1.25, 0, 0, -1.25, -332.505, 1185.55)">
		<g id="g1339">
			<g id="g1345">
				
					<linearGradient id="path1353_1_" gradientUnits="userSpaceOnUse" x1="674.535" y1="983.6594" x2="676.0984" y2="983.6594" gradientTransform="matrix(-2.539728e-05 -299.1338 -299.1338 2.539728e-05 294771.125 202490.875)">
					<stop  offset="0" style="stop-color:#FFFFFF"/>
					<stop  offset="1" style="stop-color:#ED192D"/>
				</linearGradient>
				<path id="path1353" class="st167" d="M520,704.8c1.5,2.8,3.3,5.9,3.4,6c0,0,0,0,0,0c0,0,0.1,0,0.2,0c0.2,0,6.8,0,6.8,0
					c0,0,0,0,0,0c0,0,0,0,0-0.2c0-0.2,0-6.1,0-10.8l0.1-3.6c0,1,0.1,2.3,0.1,3.6c0,4.7,0,10.5,0,10.7c0,0.2-0.2,0.4-0.3,0.4
					c-0.3,0-6.4,0-6.6,0c-0.2,0-0.4-0.2-0.5-0.4C523.1,710.5,521.7,707.8,520,704.8"/>
			</g>
		</g>
	</g>
	<g id="g1355" transform="matrix(1.25, 0, 0, -1.25, -332.505, 1185.55)">
		<g id="g1357">
			<g id="g1363">
				
					<linearGradient id="path1371_1_" gradientUnits="userSpaceOnUse" x1="674.5341" y1="983.639" x2="676.1033" y2="983.639" gradientTransform="matrix(-2.539728e-05 -299.426 -299.426 2.539728e-05 295074.75 202687.6719)">
					<stop  offset="0" style="stop-color:#FFFFFF"/>
					<stop  offset="1" style="stop-color:#ED192D"/>
				</linearGradient>
				<path id="path1371" class="st168" d="M559.7,708.5c0,0.2,0.1,1.8,0.1,1.9c0,0.4-0.3,0.6-0.6,0.6c-0.4,0-17.6,0-20.1,0
					c-2.2,0-3.6-2-3.6-3.8c0-0.7,0-9,0-9.1c0-1.2,0.4-2,1.1-2.7c-0.5,0.6-1,1.7-1,2.7c0,0.1,0,8.4,0,9.1c0,1.7,1.3,3.6,3.4,3.7
					c2.5,0.1,19.9,0,20.4,0c0.2,0,0.2,0,0.2-0.2C559.6,710.6,559.7,708.7,559.7,708.5"/>
			</g>
		</g>
	</g>
	<g id="g1373" transform="matrix(1.25, 0, 0, -1.25, -332.505, 1185.55)">
		<g id="g1375">
			<g id="g1381">
				
					<linearGradient id="path1389_1_" gradientUnits="userSpaceOnUse" x1="674.4723" y1="983.6906" x2="676.0427" y2="983.6906" gradientTransform="matrix(-2.539728e-05 -322.9059 -322.9059 2.539728e-05 318188.9062 218501.6094)">
					<stop  offset="0" style="stop-color:#FFFFFF"/>
					<stop  offset="1" style="stop-color:#ED192D"/>
				</linearGradient>
				<path id="path1389" class="st169" d="M559.6,694.5c0,0.4,0.1,1.7,0.1,2.1c0,0.3,0,0.4-0.1,0.4c0,0-0.1,0-0.1,0
					c-0.2,0-17.4,0-18.4,0c-1,0-1.6,0.7-1.8,1.7c0,0.2-0.1,7.5-0.1,7.5c0,0.5,0.2,1,0.5,1.3c0.3,0.3,0.7,0.7,1.5,0.7
					c-0.8,0-1.3-0.3-1.6-0.6c-0.4-0.4-0.6-0.9-0.6-1.4c0,0,0.1-7.3,0.1-7.5c0.1-1.1,0.9-1.8,1.9-1.9c1,0,18.2,0,18.4,0c0,0,0,0,0,0
					c0,0,0,0,0-0.3C559.6,696.2,559.7,694.9,559.6,694.5"/>
			</g>
		</g>
	</g>
	<path id="path1391" class="st147" d="M302.4,307.6c-0.1-0.5-0.4-0.9-0.5-0.1c-0.1,0.7,0.5,8,0.6,8.5L302.4,307.6"/>
	<path id="path1393" class="st147" d="M323.7,308.6c-0.1,0.3,0.2-1.9,0.4-0.3c0.1,0.6,0.3,2.8-0.3,9.3L323.7,308.6"/>
	<path id="path1395" class="st147" d="M331.8,297.6c0,0-0.1,13.6-0.1,18.4c0,1.1-0.4,2-0.4,2c0-0.1,0.1-0.6,0.1-1.1
		c0-4.3,0-19.9,0-19.9l0-0.5C331.6,296.6,331.8,297.4,331.8,297.6"/>
	<path id="path1397" class="st147" d="M367.2,297.1c0-0.4-0.3-0.5-0.5-0.6h-25.6c-1.4,0.1-2.8,1.2-3.5,2.4c1.3-1.7,3.1-2.1,3.5-2.1
		h25.6c0.5,0,0.2,2.1,0.4,2.3C367.2,298.2,367.2,297.6,367.2,297.1"/>
	<path id="path1399" class="st147" d="M304.2,296.6H296c-0.4,0-0.5,0.1-0.5,0.6c0,0.4,0,1.4,0,2.3c0,0,0.1-1.2,0.1-1.9
		c0,0,0,0,0-0.1c0-0.6,0.3-0.6,0.4-0.6c0,0,2.4,0,4.5,0c1.7,0,3.2,0,3.3,0c0.2,0,0.5,0.3,0.7,0.6c0.2,0.3,0.2,0.3,0.3,0.4
		C304.9,297.5,304.5,296.6,304.2,296.6"/>
	<path id="path1401" class="st147" d="M288.8,296.6h-27c-1.4,0.1-2.8,1.2-3.5,2.4c1.3-1.7,3.1-2.1,3.5-2.1h27c0.5,0,0.2,2.1,0.4,2.3
		c0-0.9,0.1-1.6,0.1-2C289.3,296.7,289,296.6,288.8,296.6"/>
	<path id="path1403" class="st147" d="M330.2,296.6H322c-0.3,0-0.6,0.5-0.7,0.9c0.1,0,0.1-0.1,0.2-0.2c0,0,0.2-0.3,0.2-0.3
		c0.2-0.1,0.4-0.1,0.7-0.1c0.1,0,1.5,0,3.2,0c2.1,0,4.5,0,4.5,0c0.4,0.1,0.3,0.6,0.3,0.6c0.1,0.4,0,1,0.1,1.1
		c0.1,0.8,0.1,0.8,0.1,0.8c0-0.9,0-1.9,0-2.3C330.7,296.8,330.4,296.6,330.2,296.6"/>
	<path id="path1405" class="st152" d="M295.5,297.5c0-0.1,0-0.9,0.4-0.9h-0.6L295.5,297.5"/>
</g>
</svg>
