<?xml version="1.0" encoding="utf-8"?>
<!-- Generator: Adobe Illustrator 25.4.1, SVG Export Plug-In . SVG Version: 6.00 Build 0)  -->
<svg version="1.1" id="Layer_1" xmlns="http://www.w3.org/2000/svg" xmlns:xlink="http://www.w3.org/1999/xlink" x="0px" y="0px"
	 viewBox="0 0 300 300" style="enable-background:new 0 0 300 300;" xml:space="preserve">
<style type="text/css">
	.st0{fill:#1D1D1B;}
</style>
<path class="st0" d="M284.3,118.1h-19c-1.9,0-3.7,0.7-5.1,1.6L173.5,176c-0.2,0.2-0.5,0.2-0.7,0.2c-0.8,0-0.7-0.7-0.7-0.6v-53.1
	c0-0.3-0.1-0.6-0.2-0.9c-0.3-1.6-1.3-3.2-4-3.6l-0.1,0.1c-0.2,0-0.4,0-0.6,0H125c-1.9-0.2-3.5,0.5-5.1,1.4L41.1,167
	c-0.2,0-0.5,0.2-0.7,0.2c-0.3,0-0.5-0.2-0.5-0.7v-35.1v-12.5v-0.4c0-0.2,0-0.4-0.1-0.5c0-0.1-0.1-0.2-0.2-0.3
	c-0.2-0.2-0.6,0.1-0.6,0.1l-23.2,13.9c-3.5,1.9-5.4,5.6-4.9,9.3v36.3c0.1,0.9,0.4,1.7,0.9,2.3c0,0.1,0.1,0.2,0.1,0.2c0,0,0,0,0,0
	c0.7,1,1.8,1.9,3.7,1.9l0-0.1c0.1,0,0.1,0,0.2,0h27.6l0,0.1c3.4,0,5.1-1.4,6.2-2.1l-0.1-0.1L78.8,162c0-0.2,0.3-0.2,0.5-0.2
	c0.3,0,0.3,0,0.5,0.2l18,18.1c1.4,1.2,2.9,1.6,4.7,1.4c0.1,0,0.3,0,0.4,0H130c0.4,0,0.9,0,0.9-0.5c-0.2-0.2-0.5-0.7-0.7-0.9
	l-29.9-29.9c-0.3-0.2-0.5-0.5-0.5-0.7s0.3-0.7,0.5-0.7l41.7-25.3c0.2-0.2,0.5-0.2,0.7-0.2c0.3,0,0.5,0.5,0.5,0.7v53.3
	c0.3,2.5,2.3,4.6,4.9,4.4h42.2c1.7,0,3.5-0.5,4.9-1.4l63.5-41.3c0.2-0.2,0.5-0.2,0.7-0.2c0.3,0,0.5,0.2,0.5,0.7v42.4
	c0,0.7,0.3,0.9,0.5,0.9s0.5,0,0.7-0.2l23.2-13.9c4-2.3,4.9-4.9,4.9-9.3v-36.9C288.9,120,286.9,117.9,284.3,118.1z"/>
</svg>
