<?xml version="1.0" encoding="utf-8"?>
<!-- Generator: Adobe Illustrator 25.4.1, SVG Export Plug-In . SVG Version: 6.00 Build 0)  -->
<svg version="1.1" id="Layer_1" xmlns="http://www.w3.org/2000/svg" xmlns:xlink="http://www.w3.org/1999/xlink" x="0px" y="0px"
	 viewBox="0 0 300 300" style="enable-background:new 0 0 300 300;" xml:space="preserve">
<style type="text/css">
	.st0{fill:#878787;}
	.st1{fill:#FFFFFF;}
</style>
<g>
	<path class="st0" d="M157.4,256.9L214.1,150l-47.9-90.1L118.3,150l28.3,53.2l-8.7,16.3l-37-69.5l56.8-106.9h16.8L231.4,150
		l-56.7,106.9H157.4z M125.4,256.9L68.6,150l56.8-106.9h17.3L86,150l47.9,90.1l47.9-90.1l-28.4-53.2l8.7-16.3l37,69.5l-56.9,106.9
		H125.4z"/>
	<path class="st1" d="M174.2,43.6L230.8,150l-56.4,106.4h-16.2L214.7,150l-48.5-91.2L117.7,150l28.3,53.2l-8.1,15.2L101.5,150
		L158,43.6H174.2 M141.9,43.6L85.4,150l48.5,91.2l48.5-91.2L154,96.8l8.1-15.2l36.4,68.4l-56.6,106.4h-16.2L69.2,150l56.5-106.4
		H141.9 M174.8,42.6h-0.6H158h-0.6l-0.3,0.5l-56.5,106.4l-0.2,0.5l0.2,0.5l36.4,68.4l0.9,1.7l0.9-1.7l8.1-15.2l0.3-0.5l-0.3-0.5
		L118.8,150l47.4-89.1l47.4,89.1l-56.3,105.9l-0.8,1.5h1.7h16.2h0.6l0.3-0.5l56.4-106.4l0.2-0.5l-0.2-0.5L175.1,43.1L174.8,42.6
		L174.8,42.6z M143.6,42.6h-1.7h-16.2h-0.6l-0.3,0.5L68.3,149.5l-0.2,0.5l0.2,0.5l56.5,106.4l0.3,0.5h0.6h16.2h0.6l0.3-0.5
		l56.6-106.4l0.2-0.5l-0.2-0.5L163,81.1l-0.9-1.7l-0.9,1.7l-8.1,15.2l-0.3,0.5l0.3,0.5l28.1,52.7l-47.4,89.1L86.5,150l56.3-105.9
		L143.6,42.6L143.6,42.6z"/>
</g>
</svg>
